M48
; DRILL file {KiCad (5.1.5)-3} date 2022-07-07 10:07:37 PM
; FORMAT={-:-/ absolute / inch / decimal}
; #@! TF.CreationDate,2022-07-07T22:07:37-04:00
; #@! TF.GenerationSoftware,Kicad,Pcbnew,(5.1.5)-3
; #@! TF.FileFunction,Plated,1,2,PTH
FMAT,2
INCH
T1C0.0157
T2C0.0315
T3C0.0320
T4C0.0350
T5C0.0354
T6C0.0360
T7C0.0440
%
G90
G05
T1
X3.7941Y-4.8108
X4.1Y-6.06
X4.1108Y-5.0907
X4.1968Y-4.6266
X4.2795Y-4.1717
X4.3103Y-4.1431
X4.3639Y-4.1006
X4.4001Y-4.1217
X4.508Y-4.7063
X4.7673Y-6.0194
X4.8298Y-5.407
X5.1034Y-4.0954
X5.2291Y-4.7839
X5.2735Y-4.7591
X5.7689Y-5.5589
T2
X4.47Y-4.78
X4.47Y-4.88
X4.47Y-4.98
X4.47Y-5.08
X4.47Y-5.18
X4.47Y-5.28
X4.47Y-5.38
X4.47Y-5.48
X4.47Y-5.58
X4.47Y-5.68
X4.77Y-4.78
X4.77Y-4.88
X4.77Y-4.98
X4.77Y-5.08
X4.77Y-5.18
X4.77Y-5.28
X4.77Y-5.38
X4.77Y-5.48
X4.77Y-5.58
X4.77Y-5.68
X3.7Y-3.49
X3.7Y-3.59
X3.7Y-3.69
X3.7Y-3.79
X3.7Y-3.89
X3.7Y-3.99
X3.7Y-4.09
X3.7Y-4.19
X3.7Y-4.29
X3.7Y-4.39
X4.0Y-3.49
X4.0Y-3.59
X4.0Y-3.69
X4.0Y-3.79
X4.0Y-3.89
X4.0Y-3.99
X4.0Y-4.09
X4.0Y-4.19
X4.0Y-4.29
X4.0Y-4.39
X2.4Y-1.56
X2.4Y-1.66
X2.4Y-1.76
X2.4Y-1.86
X2.4Y-1.96
X2.4Y-2.06
X2.4Y-2.16
X2.4Y-2.26
X2.4Y-2.36
X2.4Y-2.46
X2.4Y-2.56
X2.4Y-2.66
X2.4Y-2.76
X2.4Y-2.86
X2.4Y-2.96
X2.4Y-3.06
X3.0Y-1.56
X3.0Y-1.66
X3.0Y-1.76
X3.0Y-1.86
X3.0Y-1.96
X3.0Y-2.06
X3.0Y-2.16
X3.0Y-2.26
X3.0Y-2.36
X3.0Y-2.46
X3.0Y-2.56
X3.0Y-2.66
X3.0Y-2.76
X3.0Y-2.86
X3.0Y-2.96
X3.0Y-3.06
X4.46Y-3.5
X4.46Y-3.6
X4.46Y-3.7
X4.46Y-3.8
X4.46Y-3.9
X4.46Y-4.0
X4.46Y-4.1
X4.46Y-4.2
X4.46Y-4.3
X4.46Y-4.4
X4.76Y-3.5
X4.76Y-3.6
X4.76Y-3.7
X4.76Y-3.8
X4.76Y-3.9
X4.76Y-4.0
X4.76Y-4.1
X4.76Y-4.2
X4.76Y-4.3
X4.76Y-4.4
X3.15Y-6.07
X3.15Y-6.17
X3.15Y-6.27
X3.15Y-6.37
X3.15Y-6.47
X3.15Y-6.57
X3.15Y-6.67
X3.45Y-6.07
X3.45Y-6.17
X3.45Y-6.27
X3.45Y-6.37
X3.45Y-6.47
X3.45Y-6.57
X3.45Y-6.67
X3.71Y-4.77
X3.71Y-4.87
X3.71Y-4.97
X3.71Y-5.07
X3.71Y-5.17
X3.71Y-5.27
X3.71Y-5.37
X3.71Y-5.47
X3.71Y-5.57
X3.71Y-5.67
X4.01Y-4.77
X4.01Y-4.87
X4.01Y-4.97
X4.01Y-5.07
X4.01Y-5.17
X4.01Y-5.27
X4.01Y-5.37
X4.01Y-5.47
X4.01Y-5.57
X4.01Y-5.67
X3.83Y-2.16
X3.83Y-2.26
X3.83Y-2.36
X3.83Y-2.46
X3.83Y-2.56
X3.83Y-2.66
X3.83Y-2.76
X3.83Y-2.86
X3.83Y-2.96
X3.83Y-3.06
X4.13Y-2.16
X4.13Y-2.26
X4.13Y-2.36
X4.13Y-2.46
X4.13Y-2.56
X4.13Y-2.66
X4.13Y-2.76
X4.13Y-2.86
X4.13Y-2.96
X4.13Y-3.06
X5.46Y-5.62
X5.46Y-5.72
X5.46Y-5.82
X5.46Y-5.92
X5.46Y-6.02
X5.46Y-6.12
X5.46Y-6.22
X5.46Y-6.32
X5.46Y-6.42
X5.46Y-6.52
X5.76Y-5.62
X5.76Y-5.72
X5.76Y-5.82
X5.76Y-5.92
X5.76Y-6.02
X5.76Y-6.12
X5.76Y-6.22
X5.76Y-6.32
X5.76Y-6.42
X5.76Y-6.52
T3
X4.53Y-3.33
X4.73Y-3.33
X4.54Y-2.56
X4.84Y-2.56
X4.91Y-3.64
X5.21Y-3.64
X4.54Y-2.66
X4.84Y-2.66
X4.65Y-6.06
X4.85Y-6.06
X4.91Y-3.81
X5.21Y-3.81
X4.96Y-4.51
X5.16Y-4.51
X4.91Y-4.09
X5.21Y-4.09
X2.42Y-3.44
X2.42Y-3.54
X2.42Y-3.64
X2.42Y-3.74
X2.42Y-3.84
X2.42Y-3.94
X2.42Y-4.04
X2.42Y-4.14
X2.42Y-4.24
X2.42Y-4.34
X2.42Y-4.44
X2.42Y-4.54
X2.42Y-4.64
X2.42Y-4.74
X2.42Y-4.84
X2.42Y-4.94
X2.42Y-5.04
X2.42Y-5.14
X2.42Y-5.24
X2.42Y-5.34
X2.42Y-5.44
X2.42Y-5.54
X2.42Y-5.64
X2.42Y-5.74
X3.02Y-3.44
X3.02Y-3.54
X3.02Y-3.64
X3.02Y-3.74
X3.02Y-3.84
X3.02Y-3.94
X3.02Y-4.04
X3.02Y-4.14
X3.02Y-4.24
X3.02Y-4.34
X3.02Y-4.44
X3.02Y-4.54
X3.02Y-4.64
X3.02Y-4.74
X3.02Y-4.84
X3.02Y-4.94
X3.02Y-5.04
X3.02Y-5.14
X3.02Y-5.24
X3.02Y-5.34
X3.02Y-5.44
X3.02Y-5.54
X3.02Y-5.64
X3.02Y-5.74
X3.28Y-2.3
X3.58Y-2.3
X3.22Y-6.91
X3.42Y-6.91
X3.82Y-3.28
X4.12Y-3.28
X3.28Y-2.53
X3.58Y-2.53
X2.91Y-6.09
X2.91Y-6.39
X2.61Y-3.29
X2.81Y-3.29
X2.61Y-6.56
X2.91Y-6.56
X3.27Y-2.86
X3.57Y-2.86
X4.12Y-4.58
X4.32Y-4.58
X3.32Y-2.06
X3.52Y-2.06
X4.35Y-2.94
X4.65Y-2.94
X4.9Y-4.28
X5.2Y-4.28
T4
X5.33Y-3.48
X5.33Y-3.58
X5.33Y-3.68
X5.33Y-3.78
X5.33Y-3.88
X5.33Y-3.98
X5.33Y-4.08
X5.33Y-4.18
X5.33Y-4.28
X5.33Y-4.38
X5.33Y-4.48
X5.33Y-4.58
X5.33Y-4.68
X5.33Y-4.78
X5.33Y-4.88
X5.33Y-4.98
X5.33Y-5.08
X5.33Y-5.18
X5.33Y-5.28
X5.33Y-5.38
X5.93Y-3.48
X5.93Y-3.58
X5.93Y-3.68
X5.93Y-3.78
X5.93Y-3.88
X5.93Y-3.98
X5.93Y-4.08
X5.93Y-4.18
X5.93Y-4.28
X5.93Y-4.38
X5.93Y-4.48
X5.93Y-4.58
X5.93Y-4.68
X5.93Y-4.78
X5.93Y-4.88
X5.93Y-4.98
X5.93Y-5.08
X5.93Y-5.18
X5.93Y-5.28
X5.93Y-5.38
T5
X5.39Y-3.04
X5.5869Y-3.04
X5.81Y-2.9
X6.0069Y-2.9
T6
X4.81Y-3.02
X4.81Y-3.12
X4.91Y-3.02
X4.91Y-3.12
X5.01Y-3.02
X5.01Y-3.12
X3.82Y-6.37
X3.82Y-6.47
T7
X3.29Y-3.17
X3.69Y-3.17
X2.55Y-5.87
X2.95Y-5.87
T0
M30
