G04 #@! TF.GenerationSoftware,KiCad,Pcbnew,(5.1.5)-3*
G04 #@! TF.CreationDate,2022-07-07T22:07:32-04:00*
G04 #@! TF.ProjectId,FAL6567i,46414c36-3536-4376-992e-6b696361645f,rev?*
G04 #@! TF.SameCoordinates,Original*
G04 #@! TF.FileFunction,Soldermask,Top*
G04 #@! TF.FilePolarity,Negative*
%FSLAX46Y46*%
G04 Gerber Fmt 4.6, Leading zero omitted, Abs format (unit mm)*
G04 Created by KiCad (PCBNEW (5.1.5)-3) date 2022-07-07 22:07:32*
%MOMM*%
%LPD*%
G04 APERTURE LIST*
%ADD10R,1.473200X5.283200*%
%ADD11O,1.600000X1.600000*%
%ADD12R,1.600000X1.600000*%
%ADD13C,1.800000*%
%ADD14O,2.844800X1.524000*%
%ADD15C,1.803400*%
%ADD16R,1.803400X1.803400*%
%ADD17C,1.524000*%
%ADD18C,1.625600*%
%ADD19O,3.048000X1.625600*%
%ADD20C,1.879600*%
G04 APERTURE END LIST*
D10*
X143510000Y-65849500D03*
X140970000Y-65849500D03*
X138430000Y-65849500D03*
D11*
X101854000Y-121158000D03*
X94234000Y-144018000D03*
X101854000Y-123698000D03*
X94234000Y-141478000D03*
X101854000Y-126238000D03*
X94234000Y-138938000D03*
X101854000Y-128778000D03*
X94234000Y-136398000D03*
X101854000Y-131318000D03*
X94234000Y-133858000D03*
X101854000Y-133858000D03*
X94234000Y-131318000D03*
X101854000Y-136398000D03*
X94234000Y-128778000D03*
X101854000Y-138938000D03*
X94234000Y-126238000D03*
X101854000Y-141478000D03*
X94234000Y-123698000D03*
X101854000Y-144018000D03*
D12*
X94234000Y-121158000D03*
D11*
X120904000Y-88900000D03*
X113284000Y-111760000D03*
X120904000Y-91440000D03*
X113284000Y-109220000D03*
X120904000Y-93980000D03*
X113284000Y-106680000D03*
X120904000Y-96520000D03*
X113284000Y-104140000D03*
X120904000Y-99060000D03*
X113284000Y-101600000D03*
X120904000Y-101600000D03*
X113284000Y-99060000D03*
X120904000Y-104140000D03*
X113284000Y-96520000D03*
X120904000Y-106680000D03*
X113284000Y-93980000D03*
X120904000Y-109220000D03*
X113284000Y-91440000D03*
X120904000Y-111760000D03*
D12*
X113284000Y-88900000D03*
D11*
X101600000Y-88646000D03*
X93980000Y-111506000D03*
X101600000Y-91186000D03*
X93980000Y-108966000D03*
X101600000Y-93726000D03*
X93980000Y-106426000D03*
X101600000Y-96266000D03*
X93980000Y-103886000D03*
X101600000Y-98806000D03*
X93980000Y-101346000D03*
X101600000Y-101346000D03*
X93980000Y-98806000D03*
X101600000Y-103886000D03*
X93980000Y-96266000D03*
X101600000Y-106426000D03*
X93980000Y-93726000D03*
X101600000Y-108966000D03*
X93980000Y-91186000D03*
X101600000Y-111506000D03*
D12*
X93980000Y-88646000D03*
D11*
X121158000Y-121412000D03*
X113538000Y-144272000D03*
X121158000Y-123952000D03*
X113538000Y-141732000D03*
X121158000Y-126492000D03*
X113538000Y-139192000D03*
X121158000Y-129032000D03*
X113538000Y-136652000D03*
X121158000Y-131572000D03*
X113538000Y-134112000D03*
X121158000Y-134112000D03*
X113538000Y-131572000D03*
X121158000Y-136652000D03*
X113538000Y-129032000D03*
X121158000Y-139192000D03*
X113538000Y-126492000D03*
X121158000Y-141732000D03*
X113538000Y-123952000D03*
X121158000Y-144272000D03*
D12*
X113538000Y-121412000D03*
D13*
X152574000Y-73660000D03*
X147574000Y-73660000D03*
X141906000Y-77216000D03*
X136906000Y-77216000D03*
D11*
X146304000Y-142748000D03*
X138684000Y-165608000D03*
X146304000Y-145288000D03*
X138684000Y-163068000D03*
X146304000Y-147828000D03*
X138684000Y-160528000D03*
X146304000Y-150368000D03*
X138684000Y-157988000D03*
X146304000Y-152908000D03*
X138684000Y-155448000D03*
X146304000Y-155448000D03*
X138684000Y-152908000D03*
X146304000Y-157988000D03*
X138684000Y-150368000D03*
X146304000Y-160528000D03*
X138684000Y-147828000D03*
X146304000Y-163068000D03*
X138684000Y-145288000D03*
X146304000Y-165608000D03*
D12*
X138684000Y-142748000D03*
D14*
X76708000Y-87376000D03*
X76708000Y-89916000D03*
X76708000Y-92456000D03*
X76708000Y-94996000D03*
X76708000Y-97536000D03*
X76708000Y-100076000D03*
X76708000Y-102616000D03*
X76708000Y-105156000D03*
X76708000Y-107696000D03*
X76708000Y-110236000D03*
X76708000Y-112776000D03*
X76708000Y-115316000D03*
X76708000Y-117856000D03*
X76708000Y-120396000D03*
X76708000Y-122936000D03*
X76708000Y-125476000D03*
X76708000Y-128016000D03*
X76708000Y-130556000D03*
X76708000Y-133096000D03*
X76708000Y-135636000D03*
X76708000Y-138176000D03*
X76708000Y-140716000D03*
X76708000Y-143256000D03*
X76708000Y-145796000D03*
X61468000Y-145796000D03*
X61468000Y-143256000D03*
X61468000Y-140716000D03*
X61468000Y-138176000D03*
X61468000Y-135636000D03*
X61468000Y-133096000D03*
X61468000Y-130556000D03*
X61468000Y-128016000D03*
X61468000Y-125476000D03*
X61468000Y-122936000D03*
X61468000Y-120396000D03*
X61468000Y-117856000D03*
X61468000Y-115316000D03*
X61468000Y-112776000D03*
X61468000Y-110236000D03*
X61468000Y-107696000D03*
X61468000Y-105156000D03*
X61468000Y-102616000D03*
X61468000Y-100076000D03*
X61468000Y-97536000D03*
X61468000Y-94996000D03*
X61468000Y-92456000D03*
X61468000Y-89916000D03*
X61468000Y-87376000D03*
D15*
X135382000Y-136652000D03*
X135382000Y-134112000D03*
X135382000Y-131572000D03*
X135382000Y-129032000D03*
X135382000Y-126492000D03*
X135382000Y-123952000D03*
X135382000Y-121412000D03*
X135382000Y-118872000D03*
X135382000Y-116332000D03*
X135382000Y-113792000D03*
X135382000Y-108712000D03*
X135382000Y-106172000D03*
X135382000Y-103632000D03*
X135382000Y-101092000D03*
X135382000Y-98552000D03*
X135382000Y-96012000D03*
X135382000Y-93472000D03*
X135382000Y-90932000D03*
D16*
X135382000Y-88392000D03*
D15*
X135382000Y-111252000D03*
X150622000Y-88392000D03*
X150622000Y-90932000D03*
X150622000Y-93472000D03*
X150622000Y-136652000D03*
X150622000Y-134112000D03*
X150622000Y-131572000D03*
X150622000Y-96012000D03*
X150622000Y-98552000D03*
X150622000Y-129032000D03*
X150622000Y-126492000D03*
X150622000Y-123952000D03*
X150622000Y-101092000D03*
X150622000Y-121412000D03*
X150622000Y-103632000D03*
X150622000Y-118872000D03*
X150622000Y-106172000D03*
X150622000Y-108712000D03*
X150622000Y-116332000D03*
X150622000Y-113792000D03*
X150622000Y-111252000D03*
D11*
X87630000Y-154178000D03*
X80010000Y-169418000D03*
X87630000Y-156718000D03*
X80010000Y-166878000D03*
X87630000Y-159258000D03*
X80010000Y-164338000D03*
X87630000Y-161798000D03*
X80010000Y-161798000D03*
X87630000Y-164338000D03*
X80010000Y-159258000D03*
X87630000Y-166878000D03*
X80010000Y-156718000D03*
X87630000Y-169418000D03*
D12*
X80010000Y-154178000D03*
D11*
X76200000Y-39624000D03*
X60960000Y-77724000D03*
X76200000Y-42164000D03*
X60960000Y-75184000D03*
X76200000Y-44704000D03*
X60960000Y-72644000D03*
X76200000Y-47244000D03*
X60960000Y-70104000D03*
X76200000Y-49784000D03*
X60960000Y-67564000D03*
X76200000Y-52324000D03*
X60960000Y-65024000D03*
X76200000Y-54864000D03*
X60960000Y-62484000D03*
X76200000Y-57404000D03*
X60960000Y-59944000D03*
X76200000Y-59944000D03*
X60960000Y-57404000D03*
X76200000Y-62484000D03*
X60960000Y-54864000D03*
X76200000Y-65024000D03*
X60960000Y-52324000D03*
X76200000Y-67564000D03*
X60960000Y-49784000D03*
X76200000Y-70104000D03*
X60960000Y-47244000D03*
X76200000Y-72644000D03*
X60960000Y-44704000D03*
X76200000Y-75184000D03*
X60960000Y-42164000D03*
X76200000Y-77724000D03*
D12*
X60960000Y-39624000D03*
D17*
X132080000Y-108712000D03*
X124460000Y-108712000D03*
X73914000Y-154686000D03*
X73914000Y-162306000D03*
X132334000Y-103886000D03*
X124714000Y-103886000D03*
X124714000Y-96774000D03*
X132334000Y-96774000D03*
X132334000Y-92456000D03*
X124714000Y-92456000D03*
X118110000Y-74676000D03*
X110490000Y-74676000D03*
X90678000Y-72644000D03*
X83058000Y-72644000D03*
X90932000Y-64262000D03*
X83312000Y-64262000D03*
X90932000Y-58420000D03*
X83312000Y-58420000D03*
X104648000Y-83312000D03*
X97028000Y-83312000D03*
X73914000Y-166624000D03*
X66294000Y-166624000D03*
X122936000Y-67564000D03*
X115316000Y-67564000D03*
X122936000Y-65024000D03*
X115316000Y-65024000D03*
D18*
X127254000Y-76708000D03*
X127254000Y-79248000D03*
X124714000Y-76708000D03*
X124714000Y-79248000D03*
X122174000Y-76708000D03*
X122174000Y-79248000D03*
D19*
X97028000Y-161798000D03*
X97028000Y-164338000D03*
D11*
X104902000Y-54864000D03*
X97282000Y-77724000D03*
X104902000Y-57404000D03*
X97282000Y-75184000D03*
X104902000Y-59944000D03*
X97282000Y-72644000D03*
X104902000Y-62484000D03*
X97282000Y-70104000D03*
X104902000Y-65024000D03*
X97282000Y-67564000D03*
X104902000Y-67564000D03*
X97282000Y-65024000D03*
X104902000Y-70104000D03*
X97282000Y-62484000D03*
X104902000Y-72644000D03*
X97282000Y-59944000D03*
X104902000Y-75184000D03*
X97282000Y-57404000D03*
X104902000Y-77724000D03*
D12*
X97282000Y-54864000D03*
D20*
X64770000Y-149098000D03*
X74930000Y-149098000D03*
X93726000Y-80518000D03*
X83566000Y-80518000D03*
D17*
X120142000Y-84582000D03*
X115062000Y-84582000D03*
X71374000Y-83566000D03*
X66294000Y-83566000D03*
X86868000Y-175514000D03*
X81788000Y-175514000D03*
X131064000Y-114554000D03*
X125984000Y-114554000D03*
X123190000Y-153924000D03*
X118110000Y-153924000D03*
X104648000Y-116332000D03*
X109728000Y-116332000D03*
X89408000Y-52324000D03*
X84328000Y-52324000D03*
M02*
