G04 #@! TF.GenerationSoftware,KiCad,Pcbnew,(5.1.5)-3*
G04 #@! TF.CreationDate,2022-07-07T22:07:32-04:00*
G04 #@! TF.ProjectId,FAL6567i,46414c36-3536-4376-992e-6b696361645f,rev?*
G04 #@! TF.SameCoordinates,Original*
G04 #@! TF.FileFunction,Legend,Top*
G04 #@! TF.FilePolarity,Positive*
%FSLAX46Y46*%
G04 Gerber Fmt 4.6, Leading zero omitted, Abs format (unit mm)*
G04 Created by KiCad (PCBNEW (5.1.5)-3) date 2022-07-07 22:07:32*
%MOMM*%
%LPD*%
G04 APERTURE LIST*
%ADD10C,0.150000*%
%ADD11C,0.152400*%
%ADD12C,0.120000*%
%ADD13C,0.127000*%
%ADD14C,0.100000*%
%ADD15C,0.304800*%
%ADD16C,0.177800*%
%ADD17C,0.203200*%
%ADD18C,0.099060*%
G04 APERTURE END LIST*
D10*
X152253240Y-39878000D02*
G75*
G03X152253240Y-39878000I-3663240J0D01*
G01*
X71735240Y-177800000D02*
G75*
G03X71735240Y-177800000I-3663240J0D01*
G01*
X149459240Y-177546000D02*
G75*
G03X149459240Y-177546000I-3663240J0D01*
G01*
D11*
X146368000Y-52832000D02*
X146368000Y-53784000D01*
X145415000Y-52197000D02*
X146368000Y-52832000D01*
X136525000Y-52197000D02*
X145415000Y-52197000D01*
X135572000Y-52832000D02*
X136525000Y-52197000D01*
X135572000Y-53784000D02*
X135572000Y-52832000D01*
X146368000Y-53784000D02*
X146046000Y-54102000D01*
X135572000Y-53784000D02*
X135886000Y-54102000D01*
X135886000Y-62357000D02*
X135886000Y-54102000D01*
X146046000Y-54102000D02*
X146046000Y-62357000D01*
X135886000Y-54102000D02*
X146046000Y-54102000D01*
X135572000Y-53784000D02*
X135572000Y-62357000D01*
X146368000Y-53784000D02*
X135572000Y-53784000D01*
X146368000Y-62357000D02*
X146368000Y-53784000D01*
X146046000Y-62357000D02*
X146368000Y-62357000D01*
X135886000Y-62357000D02*
X146046000Y-62357000D01*
X135572000Y-62357000D02*
X135886000Y-62357000D01*
D12*
X100694000Y-119828000D02*
X99044000Y-119828000D01*
X100694000Y-145348000D02*
X100694000Y-119828000D01*
X95394000Y-145348000D02*
X100694000Y-145348000D01*
X95394000Y-119828000D02*
X95394000Y-145348000D01*
X97044000Y-119828000D02*
X95394000Y-119828000D01*
X99044000Y-119828000D02*
G75*
G02X97044000Y-119828000I-1000000J0D01*
G01*
X119744000Y-87570000D02*
X118094000Y-87570000D01*
X119744000Y-113090000D02*
X119744000Y-87570000D01*
X114444000Y-113090000D02*
X119744000Y-113090000D01*
X114444000Y-87570000D02*
X114444000Y-113090000D01*
X116094000Y-87570000D02*
X114444000Y-87570000D01*
X118094000Y-87570000D02*
G75*
G02X116094000Y-87570000I-1000000J0D01*
G01*
X100440000Y-87316000D02*
X98790000Y-87316000D01*
X100440000Y-112836000D02*
X100440000Y-87316000D01*
X95140000Y-112836000D02*
X100440000Y-112836000D01*
X95140000Y-87316000D02*
X95140000Y-112836000D01*
X96790000Y-87316000D02*
X95140000Y-87316000D01*
X98790000Y-87316000D02*
G75*
G02X96790000Y-87316000I-1000000J0D01*
G01*
X119998000Y-120082000D02*
X118348000Y-120082000D01*
X119998000Y-145602000D02*
X119998000Y-120082000D01*
X114698000Y-145602000D02*
X119998000Y-145602000D01*
X114698000Y-120082000D02*
X114698000Y-145602000D01*
X116348000Y-120082000D02*
X114698000Y-120082000D01*
X118348000Y-120082000D02*
G75*
G02X116348000Y-120082000I-1000000J0D01*
G01*
X153694000Y-73961000D02*
X153694000Y-77030000D01*
X153694000Y-70290000D02*
X153694000Y-73359000D01*
X146454000Y-73961000D02*
X146454000Y-77030000D01*
X146454000Y-70290000D02*
X146454000Y-73359000D01*
X146454000Y-77030000D02*
X153694000Y-77030000D01*
X146454000Y-70290000D02*
X153694000Y-70290000D01*
X143026000Y-77517000D02*
X143026000Y-80586000D01*
X143026000Y-73846000D02*
X143026000Y-76915000D01*
X135786000Y-77517000D02*
X135786000Y-80586000D01*
X135786000Y-73846000D02*
X135786000Y-76915000D01*
X135786000Y-80586000D02*
X143026000Y-80586000D01*
X135786000Y-73846000D02*
X143026000Y-73846000D01*
X145144000Y-141418000D02*
X143494000Y-141418000D01*
X145144000Y-166938000D02*
X145144000Y-141418000D01*
X139844000Y-166938000D02*
X145144000Y-166938000D01*
X139844000Y-141418000D02*
X139844000Y-166938000D01*
X141494000Y-141418000D02*
X139844000Y-141418000D01*
X143494000Y-141418000D02*
G75*
G02X141494000Y-141418000I-1000000J0D01*
G01*
D11*
X67945000Y-86741000D02*
G75*
G03X69977000Y-86741000I1016000J0D01*
G01*
X62484000Y-86741000D02*
X67945000Y-86741000D01*
X75692000Y-86741000D02*
X69977000Y-86741000D01*
X75692000Y-146431000D02*
X75692000Y-86741000D01*
X62484000Y-146431000D02*
X75692000Y-146431000D01*
X62484000Y-86741000D02*
X62484000Y-146431000D01*
D13*
X139192000Y-89027000D02*
G75*
G03X139192000Y-89027000I-635000J0D01*
G01*
X144907000Y-87122000D02*
X149352000Y-87122000D01*
X136652000Y-87122000D02*
X141097000Y-87122000D01*
X141097000Y-87122000D02*
G75*
G03X144907000Y-87122000I1905000J0D01*
G01*
X136652000Y-137922000D02*
X136652000Y-87122000D01*
X149352000Y-137922000D02*
X149352000Y-87122000D01*
X136652000Y-137922000D02*
X149352000Y-137922000D01*
D12*
X86470000Y-152848000D02*
X84820000Y-152848000D01*
X86470000Y-170748000D02*
X86470000Y-152848000D01*
X81170000Y-170748000D02*
X86470000Y-170748000D01*
X81170000Y-152848000D02*
X81170000Y-170748000D01*
X82820000Y-152848000D02*
X81170000Y-152848000D01*
X84820000Y-152848000D02*
G75*
G02X82820000Y-152848000I-1000000J0D01*
G01*
X75040000Y-38294000D02*
X69580000Y-38294000D01*
X75040000Y-79054000D02*
X75040000Y-38294000D01*
X62120000Y-79054000D02*
X75040000Y-79054000D01*
X62120000Y-38294000D02*
X62120000Y-79054000D01*
X67580000Y-38294000D02*
X62120000Y-38294000D01*
X69580000Y-38294000D02*
G75*
G02X67580000Y-38294000I-1000000J0D01*
G01*
D14*
G36*
X125349000Y-108966000D02*
G01*
X125730000Y-108966000D01*
X125730000Y-108458000D01*
X125349000Y-108458000D01*
X125349000Y-108966000D01*
G37*
G36*
X130810000Y-108966000D02*
G01*
X131191000Y-108966000D01*
X131191000Y-108458000D01*
X130810000Y-108458000D01*
X130810000Y-108966000D01*
G37*
D11*
X130810000Y-109474000D02*
X130810000Y-107950000D01*
X130556000Y-109728000D02*
X130175000Y-109728000D01*
X130556000Y-107696000D02*
X130175000Y-107696000D01*
X130048000Y-109601000D02*
X126492000Y-109601000D01*
X130048000Y-109601000D02*
X130175000Y-109728000D01*
X130048000Y-107823000D02*
X126492000Y-107823000D01*
X130048000Y-107823000D02*
X130175000Y-107696000D01*
X126492000Y-109601000D02*
X126365000Y-109728000D01*
X125984000Y-109728000D02*
X126365000Y-109728000D01*
X126492000Y-107823000D02*
X126365000Y-107696000D01*
X125984000Y-107696000D02*
X126365000Y-107696000D01*
X125730000Y-109474000D02*
X125730000Y-107950000D01*
X130810000Y-107950000D02*
G75*
G03X130556000Y-107696000I-254000J0D01*
G01*
X130810000Y-109474000D02*
G75*
G02X130556000Y-109728000I-254000J0D01*
G01*
X125984000Y-109728000D02*
G75*
G02X125730000Y-109474000I0J254000D01*
G01*
X125984000Y-107696000D02*
G75*
G03X125730000Y-107950000I0J-254000D01*
G01*
D14*
G36*
X74168000Y-161417000D02*
G01*
X74168000Y-161036000D01*
X73660000Y-161036000D01*
X73660000Y-161417000D01*
X74168000Y-161417000D01*
G37*
G36*
X74168000Y-155956000D02*
G01*
X74168000Y-155575000D01*
X73660000Y-155575000D01*
X73660000Y-155956000D01*
X74168000Y-155956000D01*
G37*
D11*
X74676000Y-155956000D02*
X73152000Y-155956000D01*
X74930000Y-156210000D02*
X74930000Y-156591000D01*
X72898000Y-156210000D02*
X72898000Y-156591000D01*
X74803000Y-156718000D02*
X74803000Y-160274000D01*
X74803000Y-156718000D02*
X74930000Y-156591000D01*
X73025000Y-156718000D02*
X73025000Y-160274000D01*
X73025000Y-156718000D02*
X72898000Y-156591000D01*
X74803000Y-160274000D02*
X74930000Y-160401000D01*
X74930000Y-160782000D02*
X74930000Y-160401000D01*
X73025000Y-160274000D02*
X72898000Y-160401000D01*
X72898000Y-160782000D02*
X72898000Y-160401000D01*
X74676000Y-161036000D02*
X73152000Y-161036000D01*
X73152000Y-155956000D02*
G75*
G03X72898000Y-156210000I0J-254000D01*
G01*
X74676000Y-155956000D02*
G75*
G02X74930000Y-156210000I0J-254000D01*
G01*
X74930000Y-160782000D02*
G75*
G02X74676000Y-161036000I-254000J0D01*
G01*
X72898000Y-160782000D02*
G75*
G03X73152000Y-161036000I254000J0D01*
G01*
D14*
G36*
X125603000Y-104140000D02*
G01*
X125984000Y-104140000D01*
X125984000Y-103632000D01*
X125603000Y-103632000D01*
X125603000Y-104140000D01*
G37*
G36*
X131064000Y-104140000D02*
G01*
X131445000Y-104140000D01*
X131445000Y-103632000D01*
X131064000Y-103632000D01*
X131064000Y-104140000D01*
G37*
D11*
X131064000Y-104648000D02*
X131064000Y-103124000D01*
X130810000Y-104902000D02*
X130429000Y-104902000D01*
X130810000Y-102870000D02*
X130429000Y-102870000D01*
X130302000Y-104775000D02*
X126746000Y-104775000D01*
X130302000Y-104775000D02*
X130429000Y-104902000D01*
X130302000Y-102997000D02*
X126746000Y-102997000D01*
X130302000Y-102997000D02*
X130429000Y-102870000D01*
X126746000Y-104775000D02*
X126619000Y-104902000D01*
X126238000Y-104902000D02*
X126619000Y-104902000D01*
X126746000Y-102997000D02*
X126619000Y-102870000D01*
X126238000Y-102870000D02*
X126619000Y-102870000D01*
X125984000Y-104648000D02*
X125984000Y-103124000D01*
X131064000Y-103124000D02*
G75*
G03X130810000Y-102870000I-254000J0D01*
G01*
X131064000Y-104648000D02*
G75*
G02X130810000Y-104902000I-254000J0D01*
G01*
X126238000Y-104902000D02*
G75*
G02X125984000Y-104648000I0J254000D01*
G01*
X126238000Y-102870000D02*
G75*
G03X125984000Y-103124000I0J-254000D01*
G01*
D14*
G36*
X131445000Y-96520000D02*
G01*
X131064000Y-96520000D01*
X131064000Y-97028000D01*
X131445000Y-97028000D01*
X131445000Y-96520000D01*
G37*
G36*
X125984000Y-96520000D02*
G01*
X125603000Y-96520000D01*
X125603000Y-97028000D01*
X125984000Y-97028000D01*
X125984000Y-96520000D01*
G37*
D11*
X125984000Y-96012000D02*
X125984000Y-97536000D01*
X126238000Y-95758000D02*
X126619000Y-95758000D01*
X126238000Y-97790000D02*
X126619000Y-97790000D01*
X126746000Y-95885000D02*
X130302000Y-95885000D01*
X126746000Y-95885000D02*
X126619000Y-95758000D01*
X126746000Y-97663000D02*
X130302000Y-97663000D01*
X126746000Y-97663000D02*
X126619000Y-97790000D01*
X130302000Y-95885000D02*
X130429000Y-95758000D01*
X130810000Y-95758000D02*
X130429000Y-95758000D01*
X130302000Y-97663000D02*
X130429000Y-97790000D01*
X130810000Y-97790000D02*
X130429000Y-97790000D01*
X131064000Y-96012000D02*
X131064000Y-97536000D01*
X125984000Y-97536000D02*
G75*
G03X126238000Y-97790000I254000J0D01*
G01*
X125984000Y-96012000D02*
G75*
G02X126238000Y-95758000I254000J0D01*
G01*
X130810000Y-95758000D02*
G75*
G02X131064000Y-96012000I0J-254000D01*
G01*
X130810000Y-97790000D02*
G75*
G03X131064000Y-97536000I0J254000D01*
G01*
D14*
G36*
X125603000Y-92710000D02*
G01*
X125984000Y-92710000D01*
X125984000Y-92202000D01*
X125603000Y-92202000D01*
X125603000Y-92710000D01*
G37*
G36*
X131064000Y-92710000D02*
G01*
X131445000Y-92710000D01*
X131445000Y-92202000D01*
X131064000Y-92202000D01*
X131064000Y-92710000D01*
G37*
D11*
X131064000Y-93218000D02*
X131064000Y-91694000D01*
X130810000Y-93472000D02*
X130429000Y-93472000D01*
X130810000Y-91440000D02*
X130429000Y-91440000D01*
X130302000Y-93345000D02*
X126746000Y-93345000D01*
X130302000Y-93345000D02*
X130429000Y-93472000D01*
X130302000Y-91567000D02*
X126746000Y-91567000D01*
X130302000Y-91567000D02*
X130429000Y-91440000D01*
X126746000Y-93345000D02*
X126619000Y-93472000D01*
X126238000Y-93472000D02*
X126619000Y-93472000D01*
X126746000Y-91567000D02*
X126619000Y-91440000D01*
X126238000Y-91440000D02*
X126619000Y-91440000D01*
X125984000Y-93218000D02*
X125984000Y-91694000D01*
X131064000Y-91694000D02*
G75*
G03X130810000Y-91440000I-254000J0D01*
G01*
X131064000Y-93218000D02*
G75*
G02X130810000Y-93472000I-254000J0D01*
G01*
X126238000Y-93472000D02*
G75*
G02X125984000Y-93218000I0J254000D01*
G01*
X126238000Y-91440000D02*
G75*
G03X125984000Y-91694000I0J-254000D01*
G01*
D14*
G36*
X111379000Y-74930000D02*
G01*
X111760000Y-74930000D01*
X111760000Y-74422000D01*
X111379000Y-74422000D01*
X111379000Y-74930000D01*
G37*
G36*
X116840000Y-74930000D02*
G01*
X117221000Y-74930000D01*
X117221000Y-74422000D01*
X116840000Y-74422000D01*
X116840000Y-74930000D01*
G37*
D11*
X116840000Y-75438000D02*
X116840000Y-73914000D01*
X116586000Y-75692000D02*
X116205000Y-75692000D01*
X116586000Y-73660000D02*
X116205000Y-73660000D01*
X116078000Y-75565000D02*
X112522000Y-75565000D01*
X116078000Y-75565000D02*
X116205000Y-75692000D01*
X116078000Y-73787000D02*
X112522000Y-73787000D01*
X116078000Y-73787000D02*
X116205000Y-73660000D01*
X112522000Y-75565000D02*
X112395000Y-75692000D01*
X112014000Y-75692000D02*
X112395000Y-75692000D01*
X112522000Y-73787000D02*
X112395000Y-73660000D01*
X112014000Y-73660000D02*
X112395000Y-73660000D01*
X111760000Y-75438000D02*
X111760000Y-73914000D01*
X116840000Y-73914000D02*
G75*
G03X116586000Y-73660000I-254000J0D01*
G01*
X116840000Y-75438000D02*
G75*
G02X116586000Y-75692000I-254000J0D01*
G01*
X112014000Y-75692000D02*
G75*
G02X111760000Y-75438000I0J254000D01*
G01*
X112014000Y-73660000D02*
G75*
G03X111760000Y-73914000I0J-254000D01*
G01*
D14*
G36*
X83947000Y-72898000D02*
G01*
X84328000Y-72898000D01*
X84328000Y-72390000D01*
X83947000Y-72390000D01*
X83947000Y-72898000D01*
G37*
G36*
X89408000Y-72898000D02*
G01*
X89789000Y-72898000D01*
X89789000Y-72390000D01*
X89408000Y-72390000D01*
X89408000Y-72898000D01*
G37*
D11*
X89408000Y-73406000D02*
X89408000Y-71882000D01*
X89154000Y-73660000D02*
X88773000Y-73660000D01*
X89154000Y-71628000D02*
X88773000Y-71628000D01*
X88646000Y-73533000D02*
X85090000Y-73533000D01*
X88646000Y-73533000D02*
X88773000Y-73660000D01*
X88646000Y-71755000D02*
X85090000Y-71755000D01*
X88646000Y-71755000D02*
X88773000Y-71628000D01*
X85090000Y-73533000D02*
X84963000Y-73660000D01*
X84582000Y-73660000D02*
X84963000Y-73660000D01*
X85090000Y-71755000D02*
X84963000Y-71628000D01*
X84582000Y-71628000D02*
X84963000Y-71628000D01*
X84328000Y-73406000D02*
X84328000Y-71882000D01*
X89408000Y-71882000D02*
G75*
G03X89154000Y-71628000I-254000J0D01*
G01*
X89408000Y-73406000D02*
G75*
G02X89154000Y-73660000I-254000J0D01*
G01*
X84582000Y-73660000D02*
G75*
G02X84328000Y-73406000I0J254000D01*
G01*
X84582000Y-71628000D02*
G75*
G03X84328000Y-71882000I0J-254000D01*
G01*
D14*
G36*
X84201000Y-64516000D02*
G01*
X84582000Y-64516000D01*
X84582000Y-64008000D01*
X84201000Y-64008000D01*
X84201000Y-64516000D01*
G37*
G36*
X89662000Y-64516000D02*
G01*
X90043000Y-64516000D01*
X90043000Y-64008000D01*
X89662000Y-64008000D01*
X89662000Y-64516000D01*
G37*
D11*
X89662000Y-65024000D02*
X89662000Y-63500000D01*
X89408000Y-65278000D02*
X89027000Y-65278000D01*
X89408000Y-63246000D02*
X89027000Y-63246000D01*
X88900000Y-65151000D02*
X85344000Y-65151000D01*
X88900000Y-65151000D02*
X89027000Y-65278000D01*
X88900000Y-63373000D02*
X85344000Y-63373000D01*
X88900000Y-63373000D02*
X89027000Y-63246000D01*
X85344000Y-65151000D02*
X85217000Y-65278000D01*
X84836000Y-65278000D02*
X85217000Y-65278000D01*
X85344000Y-63373000D02*
X85217000Y-63246000D01*
X84836000Y-63246000D02*
X85217000Y-63246000D01*
X84582000Y-65024000D02*
X84582000Y-63500000D01*
X89662000Y-63500000D02*
G75*
G03X89408000Y-63246000I-254000J0D01*
G01*
X89662000Y-65024000D02*
G75*
G02X89408000Y-65278000I-254000J0D01*
G01*
X84836000Y-65278000D02*
G75*
G02X84582000Y-65024000I0J254000D01*
G01*
X84836000Y-63246000D02*
G75*
G03X84582000Y-63500000I0J-254000D01*
G01*
D14*
G36*
X84201000Y-58674000D02*
G01*
X84582000Y-58674000D01*
X84582000Y-58166000D01*
X84201000Y-58166000D01*
X84201000Y-58674000D01*
G37*
G36*
X89662000Y-58674000D02*
G01*
X90043000Y-58674000D01*
X90043000Y-58166000D01*
X89662000Y-58166000D01*
X89662000Y-58674000D01*
G37*
D11*
X89662000Y-59182000D02*
X89662000Y-57658000D01*
X89408000Y-59436000D02*
X89027000Y-59436000D01*
X89408000Y-57404000D02*
X89027000Y-57404000D01*
X88900000Y-59309000D02*
X85344000Y-59309000D01*
X88900000Y-59309000D02*
X89027000Y-59436000D01*
X88900000Y-57531000D02*
X85344000Y-57531000D01*
X88900000Y-57531000D02*
X89027000Y-57404000D01*
X85344000Y-59309000D02*
X85217000Y-59436000D01*
X84836000Y-59436000D02*
X85217000Y-59436000D01*
X85344000Y-57531000D02*
X85217000Y-57404000D01*
X84836000Y-57404000D02*
X85217000Y-57404000D01*
X84582000Y-59182000D02*
X84582000Y-57658000D01*
X89662000Y-57658000D02*
G75*
G03X89408000Y-57404000I-254000J0D01*
G01*
X89662000Y-59182000D02*
G75*
G02X89408000Y-59436000I-254000J0D01*
G01*
X84836000Y-59436000D02*
G75*
G02X84582000Y-59182000I0J254000D01*
G01*
X84836000Y-57404000D02*
G75*
G03X84582000Y-57658000I0J-254000D01*
G01*
D14*
G36*
X97917000Y-83566000D02*
G01*
X98298000Y-83566000D01*
X98298000Y-83058000D01*
X97917000Y-83058000D01*
X97917000Y-83566000D01*
G37*
G36*
X103378000Y-83566000D02*
G01*
X103759000Y-83566000D01*
X103759000Y-83058000D01*
X103378000Y-83058000D01*
X103378000Y-83566000D01*
G37*
D11*
X103378000Y-84074000D02*
X103378000Y-82550000D01*
X103124000Y-84328000D02*
X102743000Y-84328000D01*
X103124000Y-82296000D02*
X102743000Y-82296000D01*
X102616000Y-84201000D02*
X99060000Y-84201000D01*
X102616000Y-84201000D02*
X102743000Y-84328000D01*
X102616000Y-82423000D02*
X99060000Y-82423000D01*
X102616000Y-82423000D02*
X102743000Y-82296000D01*
X99060000Y-84201000D02*
X98933000Y-84328000D01*
X98552000Y-84328000D02*
X98933000Y-84328000D01*
X99060000Y-82423000D02*
X98933000Y-82296000D01*
X98552000Y-82296000D02*
X98933000Y-82296000D01*
X98298000Y-84074000D02*
X98298000Y-82550000D01*
X103378000Y-82550000D02*
G75*
G03X103124000Y-82296000I-254000J0D01*
G01*
X103378000Y-84074000D02*
G75*
G02X103124000Y-84328000I-254000J0D01*
G01*
X98552000Y-84328000D02*
G75*
G02X98298000Y-84074000I0J254000D01*
G01*
X98552000Y-82296000D02*
G75*
G03X98298000Y-82550000I0J-254000D01*
G01*
D14*
G36*
X67183000Y-166878000D02*
G01*
X67564000Y-166878000D01*
X67564000Y-166370000D01*
X67183000Y-166370000D01*
X67183000Y-166878000D01*
G37*
G36*
X72644000Y-166878000D02*
G01*
X73025000Y-166878000D01*
X73025000Y-166370000D01*
X72644000Y-166370000D01*
X72644000Y-166878000D01*
G37*
D11*
X72644000Y-167386000D02*
X72644000Y-165862000D01*
X72390000Y-167640000D02*
X72009000Y-167640000D01*
X72390000Y-165608000D02*
X72009000Y-165608000D01*
X71882000Y-167513000D02*
X68326000Y-167513000D01*
X71882000Y-167513000D02*
X72009000Y-167640000D01*
X71882000Y-165735000D02*
X68326000Y-165735000D01*
X71882000Y-165735000D02*
X72009000Y-165608000D01*
X68326000Y-167513000D02*
X68199000Y-167640000D01*
X67818000Y-167640000D02*
X68199000Y-167640000D01*
X68326000Y-165735000D02*
X68199000Y-165608000D01*
X67818000Y-165608000D02*
X68199000Y-165608000D01*
X67564000Y-167386000D02*
X67564000Y-165862000D01*
X72644000Y-165862000D02*
G75*
G03X72390000Y-165608000I-254000J0D01*
G01*
X72644000Y-167386000D02*
G75*
G02X72390000Y-167640000I-254000J0D01*
G01*
X67818000Y-167640000D02*
G75*
G02X67564000Y-167386000I0J254000D01*
G01*
X67818000Y-165608000D02*
G75*
G03X67564000Y-165862000I0J-254000D01*
G01*
D14*
G36*
X116205000Y-67818000D02*
G01*
X116586000Y-67818000D01*
X116586000Y-67310000D01*
X116205000Y-67310000D01*
X116205000Y-67818000D01*
G37*
G36*
X121666000Y-67818000D02*
G01*
X122047000Y-67818000D01*
X122047000Y-67310000D01*
X121666000Y-67310000D01*
X121666000Y-67818000D01*
G37*
D11*
X121666000Y-68326000D02*
X121666000Y-66802000D01*
X121412000Y-68580000D02*
X121031000Y-68580000D01*
X121412000Y-66548000D02*
X121031000Y-66548000D01*
X120904000Y-68453000D02*
X117348000Y-68453000D01*
X120904000Y-68453000D02*
X121031000Y-68580000D01*
X120904000Y-66675000D02*
X117348000Y-66675000D01*
X120904000Y-66675000D02*
X121031000Y-66548000D01*
X117348000Y-68453000D02*
X117221000Y-68580000D01*
X116840000Y-68580000D02*
X117221000Y-68580000D01*
X117348000Y-66675000D02*
X117221000Y-66548000D01*
X116840000Y-66548000D02*
X117221000Y-66548000D01*
X116586000Y-68326000D02*
X116586000Y-66802000D01*
X121666000Y-66802000D02*
G75*
G03X121412000Y-66548000I-254000J0D01*
G01*
X121666000Y-68326000D02*
G75*
G02X121412000Y-68580000I-254000J0D01*
G01*
X116840000Y-68580000D02*
G75*
G02X116586000Y-68326000I0J254000D01*
G01*
X116840000Y-66548000D02*
G75*
G03X116586000Y-66802000I0J-254000D01*
G01*
D14*
G36*
X116205000Y-65278000D02*
G01*
X116586000Y-65278000D01*
X116586000Y-64770000D01*
X116205000Y-64770000D01*
X116205000Y-65278000D01*
G37*
G36*
X121666000Y-65278000D02*
G01*
X122047000Y-65278000D01*
X122047000Y-64770000D01*
X121666000Y-64770000D01*
X121666000Y-65278000D01*
G37*
D11*
X121666000Y-65786000D02*
X121666000Y-64262000D01*
X121412000Y-66040000D02*
X121031000Y-66040000D01*
X121412000Y-64008000D02*
X121031000Y-64008000D01*
X120904000Y-65913000D02*
X117348000Y-65913000D01*
X120904000Y-65913000D02*
X121031000Y-66040000D01*
X120904000Y-64135000D02*
X117348000Y-64135000D01*
X120904000Y-64135000D02*
X121031000Y-64008000D01*
X117348000Y-65913000D02*
X117221000Y-66040000D01*
X116840000Y-66040000D02*
X117221000Y-66040000D01*
X117348000Y-64135000D02*
X117221000Y-64008000D01*
X116840000Y-64008000D02*
X117221000Y-64008000D01*
X116586000Y-65786000D02*
X116586000Y-64262000D01*
X121666000Y-64262000D02*
G75*
G03X121412000Y-64008000I-254000J0D01*
G01*
X121666000Y-65786000D02*
G75*
G02X121412000Y-66040000I-254000J0D01*
G01*
X116840000Y-66040000D02*
G75*
G02X116586000Y-65786000I0J254000D01*
G01*
X116840000Y-64008000D02*
G75*
G03X116586000Y-64262000I0J-254000D01*
G01*
X121285000Y-80518000D02*
X123063000Y-80518000D01*
X120904000Y-80137000D02*
X121285000Y-80518000D01*
X121285000Y-75438000D02*
X123063000Y-75438000D01*
X120904000Y-75819000D02*
X121285000Y-75438000D01*
X123444000Y-80137000D02*
X123063000Y-80518000D01*
X123444000Y-80137000D02*
X123825000Y-80518000D01*
X125603000Y-80518000D02*
X123825000Y-80518000D01*
X125984000Y-80137000D02*
X125603000Y-80518000D01*
X125984000Y-80137000D02*
X126365000Y-80518000D01*
X128143000Y-80518000D02*
X126365000Y-80518000D01*
X128143000Y-80518000D02*
X128524000Y-80137000D01*
X128524000Y-75819000D02*
X128524000Y-80137000D01*
X128524000Y-75819000D02*
X128143000Y-75438000D01*
X126365000Y-75438000D02*
X128143000Y-75438000D01*
X125984000Y-75819000D02*
X126365000Y-75438000D01*
X125984000Y-75819000D02*
X125603000Y-75438000D01*
X123825000Y-75438000D02*
X125603000Y-75438000D01*
X123444000Y-75819000D02*
X123825000Y-75438000D01*
X123063000Y-75438000D02*
X123444000Y-75819000D01*
X120904000Y-80137000D02*
X120904000Y-75819000D01*
X96012000Y-165608000D02*
X98044000Y-165608000D01*
X96012000Y-165608000D02*
X95758000Y-165354000D01*
X95758000Y-163322000D02*
X95758000Y-165354000D01*
X95758000Y-160782000D02*
X95758000Y-162814000D01*
X95758000Y-160782000D02*
X96012000Y-160528000D01*
X98044000Y-160528000D02*
X96012000Y-160528000D01*
X98298000Y-160782000D02*
X98298000Y-162814000D01*
X98298000Y-160782000D02*
X98044000Y-160528000D01*
X98044000Y-165608000D02*
X98298000Y-165354000D01*
X98298000Y-163322000D02*
X98298000Y-165354000D01*
X98044000Y-163068000D02*
X98298000Y-163322000D01*
X98044000Y-163068000D02*
X98298000Y-162814000D01*
X96012000Y-163068000D02*
X95758000Y-163322000D01*
X96012000Y-163068000D02*
X95758000Y-162814000D01*
D12*
X103742000Y-53534000D02*
X102092000Y-53534000D01*
X103742000Y-79054000D02*
X103742000Y-53534000D01*
X98442000Y-79054000D02*
X103742000Y-79054000D01*
X98442000Y-53534000D02*
X98442000Y-79054000D01*
X100092000Y-53534000D02*
X98442000Y-53534000D01*
X102092000Y-53534000D02*
G75*
G02X100092000Y-53534000I-1000000J0D01*
G01*
D14*
G36*
X65913000Y-149479000D02*
G01*
X67818000Y-149479000D01*
X67818000Y-148717000D01*
X65913000Y-148717000D01*
X65913000Y-149479000D01*
G37*
G36*
X71882000Y-149479000D02*
G01*
X73787000Y-149479000D01*
X73787000Y-148717000D01*
X71882000Y-148717000D01*
X71882000Y-149479000D01*
G37*
G36*
X68199000Y-150368000D02*
G01*
X68707000Y-150368000D01*
X68707000Y-147828000D01*
X68199000Y-147828000D01*
X68199000Y-150368000D01*
G37*
D11*
X69850000Y-149098000D02*
X69850000Y-149733000D01*
X69850000Y-148463000D02*
X69850000Y-149098000D01*
X69850000Y-149098000D02*
X70866000Y-148463000D01*
X69850000Y-149098000D02*
X71374000Y-149098000D01*
X70866000Y-149733000D02*
X69850000Y-149098000D01*
X70866000Y-148463000D02*
X70866000Y-149733000D01*
X69215000Y-149098000D02*
X69850000Y-149098000D01*
X67818000Y-147828000D02*
X67818000Y-150368000D01*
X67818000Y-147828000D02*
X71882000Y-147828000D01*
X71882000Y-150368000D02*
X71882000Y-147828000D01*
X71882000Y-150368000D02*
X67818000Y-150368000D01*
D14*
G36*
X92583000Y-80137000D02*
G01*
X90678000Y-80137000D01*
X90678000Y-80899000D01*
X92583000Y-80899000D01*
X92583000Y-80137000D01*
G37*
G36*
X86614000Y-80137000D02*
G01*
X84709000Y-80137000D01*
X84709000Y-80899000D01*
X86614000Y-80899000D01*
X86614000Y-80137000D01*
G37*
G36*
X90297000Y-79248000D02*
G01*
X89789000Y-79248000D01*
X89789000Y-81788000D01*
X90297000Y-81788000D01*
X90297000Y-79248000D01*
G37*
D11*
X88646000Y-80518000D02*
X88646000Y-79883000D01*
X88646000Y-81153000D02*
X88646000Y-80518000D01*
X88646000Y-80518000D02*
X87630000Y-81153000D01*
X88646000Y-80518000D02*
X87122000Y-80518000D01*
X87630000Y-79883000D02*
X88646000Y-80518000D01*
X87630000Y-81153000D02*
X87630000Y-79883000D01*
X89281000Y-80518000D02*
X88646000Y-80518000D01*
X90678000Y-81788000D02*
X90678000Y-79248000D01*
X90678000Y-81788000D02*
X86614000Y-81788000D01*
X86614000Y-79248000D02*
X86614000Y-81788000D01*
X86614000Y-79248000D02*
X90678000Y-79248000D01*
X116332000Y-84582000D02*
X117297200Y-84582000D01*
X118872000Y-84582000D02*
X117932200Y-84582000D01*
D15*
X117932200Y-84582000D02*
X117932200Y-85344000D01*
X117932200Y-83820000D02*
X117932200Y-84582000D01*
X117297200Y-84582000D02*
X117297200Y-85344000D01*
X117297200Y-83820000D02*
X117297200Y-84582000D01*
D11*
X119761000Y-85217000D02*
G75*
G02X119253000Y-85725000I-508000J0D01*
G01*
X119761000Y-83947000D02*
G75*
G03X119253000Y-83439000I-508000J0D01*
G01*
X119253000Y-85725000D02*
X115951000Y-85725000D01*
X119253000Y-83439000D02*
X115951000Y-83439000D01*
X115951000Y-85725000D02*
G75*
G02X115443000Y-85217000I0J508000D01*
G01*
X115951000Y-83439000D02*
G75*
G03X115443000Y-83947000I0J-508000D01*
G01*
X67564000Y-83566000D02*
X68529200Y-83566000D01*
X70104000Y-83566000D02*
X69164200Y-83566000D01*
D15*
X69164200Y-83566000D02*
X69164200Y-84328000D01*
X69164200Y-82804000D02*
X69164200Y-83566000D01*
X68529200Y-83566000D02*
X68529200Y-84328000D01*
X68529200Y-82804000D02*
X68529200Y-83566000D01*
D11*
X70993000Y-84201000D02*
G75*
G02X70485000Y-84709000I-508000J0D01*
G01*
X70993000Y-82931000D02*
G75*
G03X70485000Y-82423000I-508000J0D01*
G01*
X70485000Y-84709000D02*
X67183000Y-84709000D01*
X70485000Y-82423000D02*
X67183000Y-82423000D01*
X67183000Y-84709000D02*
G75*
G02X66675000Y-84201000I0J508000D01*
G01*
X67183000Y-82423000D02*
G75*
G03X66675000Y-82931000I0J-508000D01*
G01*
X83058000Y-175514000D02*
X84023200Y-175514000D01*
X85598000Y-175514000D02*
X84658200Y-175514000D01*
D15*
X84658200Y-175514000D02*
X84658200Y-176276000D01*
X84658200Y-174752000D02*
X84658200Y-175514000D01*
X84023200Y-175514000D02*
X84023200Y-176276000D01*
X84023200Y-174752000D02*
X84023200Y-175514000D01*
D11*
X86487000Y-176149000D02*
G75*
G02X85979000Y-176657000I-508000J0D01*
G01*
X86487000Y-174879000D02*
G75*
G03X85979000Y-174371000I-508000J0D01*
G01*
X85979000Y-176657000D02*
X82677000Y-176657000D01*
X85979000Y-174371000D02*
X82677000Y-174371000D01*
X82677000Y-176657000D02*
G75*
G02X82169000Y-176149000I0J508000D01*
G01*
X82677000Y-174371000D02*
G75*
G03X82169000Y-174879000I0J-508000D01*
G01*
X127254000Y-114554000D02*
X128219200Y-114554000D01*
X129794000Y-114554000D02*
X128854200Y-114554000D01*
D15*
X128854200Y-114554000D02*
X128854200Y-115316000D01*
X128854200Y-113792000D02*
X128854200Y-114554000D01*
X128219200Y-114554000D02*
X128219200Y-115316000D01*
X128219200Y-113792000D02*
X128219200Y-114554000D01*
D11*
X130683000Y-115189000D02*
G75*
G02X130175000Y-115697000I-508000J0D01*
G01*
X130683000Y-113919000D02*
G75*
G03X130175000Y-113411000I-508000J0D01*
G01*
X130175000Y-115697000D02*
X126873000Y-115697000D01*
X130175000Y-113411000D02*
X126873000Y-113411000D01*
X126873000Y-115697000D02*
G75*
G02X126365000Y-115189000I0J508000D01*
G01*
X126873000Y-113411000D02*
G75*
G03X126365000Y-113919000I0J-508000D01*
G01*
X119380000Y-153924000D02*
X120345200Y-153924000D01*
X121920000Y-153924000D02*
X120980200Y-153924000D01*
D15*
X120980200Y-153924000D02*
X120980200Y-154686000D01*
X120980200Y-153162000D02*
X120980200Y-153924000D01*
X120345200Y-153924000D02*
X120345200Y-154686000D01*
X120345200Y-153162000D02*
X120345200Y-153924000D01*
D11*
X122809000Y-154559000D02*
G75*
G02X122301000Y-155067000I-508000J0D01*
G01*
X122809000Y-153289000D02*
G75*
G03X122301000Y-152781000I-508000J0D01*
G01*
X122301000Y-155067000D02*
X118999000Y-155067000D01*
X122301000Y-152781000D02*
X118999000Y-152781000D01*
X118999000Y-155067000D02*
G75*
G02X118491000Y-154559000I0J508000D01*
G01*
X118999000Y-152781000D02*
G75*
G03X118491000Y-153289000I0J-508000D01*
G01*
X108458000Y-116332000D02*
X107492800Y-116332000D01*
X105918000Y-116332000D02*
X106857800Y-116332000D01*
D15*
X106857800Y-116332000D02*
X106857800Y-115570000D01*
X106857800Y-117094000D02*
X106857800Y-116332000D01*
X107492800Y-116332000D02*
X107492800Y-115570000D01*
X107492800Y-117094000D02*
X107492800Y-116332000D01*
D11*
X105029000Y-115697000D02*
G75*
G02X105537000Y-115189000I508000J0D01*
G01*
X105029000Y-116967000D02*
G75*
G03X105537000Y-117475000I508000J0D01*
G01*
X105537000Y-115189000D02*
X108839000Y-115189000D01*
X105537000Y-117475000D02*
X108839000Y-117475000D01*
X108839000Y-115189000D02*
G75*
G02X109347000Y-115697000I0J-508000D01*
G01*
X108839000Y-117475000D02*
G75*
G03X109347000Y-116967000I0J508000D01*
G01*
X85598000Y-52324000D02*
X86563200Y-52324000D01*
X88138000Y-52324000D02*
X87198200Y-52324000D01*
D15*
X87198200Y-52324000D02*
X87198200Y-53086000D01*
X87198200Y-51562000D02*
X87198200Y-52324000D01*
X86563200Y-52324000D02*
X86563200Y-53086000D01*
X86563200Y-51562000D02*
X86563200Y-52324000D01*
D11*
X89027000Y-52959000D02*
G75*
G02X88519000Y-53467000I-508000J0D01*
G01*
X89027000Y-51689000D02*
G75*
G03X88519000Y-51181000I-508000J0D01*
G01*
X88519000Y-53467000D02*
X85217000Y-53467000D01*
X88519000Y-51181000D02*
X85217000Y-51181000D01*
X85217000Y-53467000D02*
G75*
G02X84709000Y-52959000I0J508000D01*
G01*
X85217000Y-51181000D02*
G75*
G03X84709000Y-51689000I0J-508000D01*
G01*
D13*
X137102547Y-68337188D02*
X135896047Y-68337188D01*
X136987642Y-67073235D02*
X137045095Y-67130688D01*
X137102547Y-67303045D01*
X137102547Y-67417950D01*
X137045095Y-67590307D01*
X136930190Y-67705211D01*
X136815285Y-67762664D01*
X136585476Y-67820116D01*
X136413119Y-67820116D01*
X136183309Y-67762664D01*
X136068404Y-67705211D01*
X135953500Y-67590307D01*
X135896047Y-67417950D01*
X135896047Y-67303045D01*
X135953500Y-67130688D01*
X136010952Y-67073235D01*
X135896047Y-66039092D02*
X135896047Y-66268902D01*
X135953500Y-66383807D01*
X136010952Y-66441259D01*
X136183309Y-66556164D01*
X136413119Y-66613616D01*
X136872738Y-66613616D01*
X136987642Y-66556164D01*
X137045095Y-66498711D01*
X137102547Y-66383807D01*
X137102547Y-66153997D01*
X137045095Y-66039092D01*
X136987642Y-65981640D01*
X136872738Y-65924188D01*
X136585476Y-65924188D01*
X136470571Y-65981640D01*
X136413119Y-66039092D01*
X136355666Y-66153997D01*
X136355666Y-66383807D01*
X136413119Y-66498711D01*
X136470571Y-66556164D01*
X136585476Y-66613616D01*
D10*
X97067809Y-119280380D02*
X97067809Y-118280380D01*
X98115428Y-119185142D02*
X98067809Y-119232761D01*
X97924952Y-119280380D01*
X97829714Y-119280380D01*
X97686857Y-119232761D01*
X97591619Y-119137523D01*
X97544000Y-119042285D01*
X97496380Y-118851809D01*
X97496380Y-118708952D01*
X97544000Y-118518476D01*
X97591619Y-118423238D01*
X97686857Y-118328000D01*
X97829714Y-118280380D01*
X97924952Y-118280380D01*
X98067809Y-118328000D01*
X98115428Y-118375619D01*
X98972571Y-118613714D02*
X98972571Y-119280380D01*
X98734476Y-118232761D02*
X98496380Y-118947047D01*
X99115428Y-118947047D01*
X116117809Y-87022380D02*
X116117809Y-86022380D01*
X117165428Y-86927142D02*
X117117809Y-86974761D01*
X116974952Y-87022380D01*
X116879714Y-87022380D01*
X116736857Y-86974761D01*
X116641619Y-86879523D01*
X116594000Y-86784285D01*
X116546380Y-86593809D01*
X116546380Y-86450952D01*
X116594000Y-86260476D01*
X116641619Y-86165238D01*
X116736857Y-86070000D01*
X116879714Y-86022380D01*
X116974952Y-86022380D01*
X117117809Y-86070000D01*
X117165428Y-86117619D01*
X117498761Y-86022380D02*
X118117809Y-86022380D01*
X117784476Y-86403333D01*
X117927333Y-86403333D01*
X118022571Y-86450952D01*
X118070190Y-86498571D01*
X118117809Y-86593809D01*
X118117809Y-86831904D01*
X118070190Y-86927142D01*
X118022571Y-86974761D01*
X117927333Y-87022380D01*
X117641619Y-87022380D01*
X117546380Y-86974761D01*
X117498761Y-86927142D01*
X96813809Y-86768380D02*
X96813809Y-85768380D01*
X97861428Y-86673142D02*
X97813809Y-86720761D01*
X97670952Y-86768380D01*
X97575714Y-86768380D01*
X97432857Y-86720761D01*
X97337619Y-86625523D01*
X97290000Y-86530285D01*
X97242380Y-86339809D01*
X97242380Y-86196952D01*
X97290000Y-86006476D01*
X97337619Y-85911238D01*
X97432857Y-85816000D01*
X97575714Y-85768380D01*
X97670952Y-85768380D01*
X97813809Y-85816000D01*
X97861428Y-85863619D01*
X98242380Y-85863619D02*
X98290000Y-85816000D01*
X98385238Y-85768380D01*
X98623333Y-85768380D01*
X98718571Y-85816000D01*
X98766190Y-85863619D01*
X98813809Y-85958857D01*
X98813809Y-86054095D01*
X98766190Y-86196952D01*
X98194761Y-86768380D01*
X98813809Y-86768380D01*
X116371809Y-119534380D02*
X116371809Y-118534380D01*
X117419428Y-119439142D02*
X117371809Y-119486761D01*
X117228952Y-119534380D01*
X117133714Y-119534380D01*
X116990857Y-119486761D01*
X116895619Y-119391523D01*
X116848000Y-119296285D01*
X116800380Y-119105809D01*
X116800380Y-118962952D01*
X116848000Y-118772476D01*
X116895619Y-118677238D01*
X116990857Y-118582000D01*
X117133714Y-118534380D01*
X117228952Y-118534380D01*
X117371809Y-118582000D01*
X117419428Y-118629619D01*
X118371809Y-119534380D02*
X117800380Y-119534380D01*
X118086095Y-119534380D02*
X118086095Y-118534380D01*
X117990857Y-118677238D01*
X117895619Y-118772476D01*
X117800380Y-118820095D01*
X149907333Y-69517142D02*
X149859714Y-69564761D01*
X149716857Y-69612380D01*
X149621619Y-69612380D01*
X149478761Y-69564761D01*
X149383523Y-69469523D01*
X149335904Y-69374285D01*
X149288285Y-69183809D01*
X149288285Y-69040952D01*
X149335904Y-68850476D01*
X149383523Y-68755238D01*
X149478761Y-68660000D01*
X149621619Y-68612380D01*
X149716857Y-68612380D01*
X149859714Y-68660000D01*
X149907333Y-68707619D01*
X150812095Y-68612380D02*
X150335904Y-68612380D01*
X150288285Y-69088571D01*
X150335904Y-69040952D01*
X150431142Y-68993333D01*
X150669238Y-68993333D01*
X150764476Y-69040952D01*
X150812095Y-69088571D01*
X150859714Y-69183809D01*
X150859714Y-69421904D01*
X150812095Y-69517142D01*
X150764476Y-69564761D01*
X150669238Y-69612380D01*
X150431142Y-69612380D01*
X150335904Y-69564761D01*
X150288285Y-69517142D01*
X139239333Y-73073142D02*
X139191714Y-73120761D01*
X139048857Y-73168380D01*
X138953619Y-73168380D01*
X138810761Y-73120761D01*
X138715523Y-73025523D01*
X138667904Y-72930285D01*
X138620285Y-72739809D01*
X138620285Y-72596952D01*
X138667904Y-72406476D01*
X138715523Y-72311238D01*
X138810761Y-72216000D01*
X138953619Y-72168380D01*
X139048857Y-72168380D01*
X139191714Y-72216000D01*
X139239333Y-72263619D01*
X140096476Y-72168380D02*
X139906000Y-72168380D01*
X139810761Y-72216000D01*
X139763142Y-72263619D01*
X139667904Y-72406476D01*
X139620285Y-72596952D01*
X139620285Y-72977904D01*
X139667904Y-73073142D01*
X139715523Y-73120761D01*
X139810761Y-73168380D01*
X140001238Y-73168380D01*
X140096476Y-73120761D01*
X140144095Y-73073142D01*
X140191714Y-72977904D01*
X140191714Y-72739809D01*
X140144095Y-72644571D01*
X140096476Y-72596952D01*
X140001238Y-72549333D01*
X139810761Y-72549333D01*
X139715523Y-72596952D01*
X139667904Y-72644571D01*
X139620285Y-72739809D01*
X141517809Y-140870380D02*
X141517809Y-139870380D01*
X142565428Y-140775142D02*
X142517809Y-140822761D01*
X142374952Y-140870380D01*
X142279714Y-140870380D01*
X142136857Y-140822761D01*
X142041619Y-140727523D01*
X141994000Y-140632285D01*
X141946380Y-140441809D01*
X141946380Y-140298952D01*
X141994000Y-140108476D01*
X142041619Y-140013238D01*
X142136857Y-139918000D01*
X142279714Y-139870380D01*
X142374952Y-139870380D01*
X142517809Y-139918000D01*
X142565428Y-139965619D01*
X143041619Y-140870380D02*
X143232095Y-140870380D01*
X143327333Y-140822761D01*
X143374952Y-140775142D01*
X143470190Y-140632285D01*
X143517809Y-140441809D01*
X143517809Y-140060857D01*
X143470190Y-139965619D01*
X143422571Y-139918000D01*
X143327333Y-139870380D01*
X143136857Y-139870380D01*
X143041619Y-139918000D01*
X142994000Y-139965619D01*
X142946380Y-140060857D01*
X142946380Y-140298952D01*
X142994000Y-140394190D01*
X143041619Y-140441809D01*
X143136857Y-140489428D01*
X143327333Y-140489428D01*
X143422571Y-140441809D01*
X143470190Y-140394190D01*
X143517809Y-140298952D01*
D16*
X63255736Y-84590466D02*
X63255736Y-85957833D01*
X63336170Y-86118700D01*
X63416603Y-86199133D01*
X63577470Y-86279566D01*
X63899203Y-86279566D01*
X64060070Y-86199133D01*
X64140503Y-86118700D01*
X64220936Y-85957833D01*
X64220936Y-84590466D01*
X64944836Y-86199133D02*
X65186136Y-86279566D01*
X65588303Y-86279566D01*
X65749170Y-86199133D01*
X65829603Y-86118700D01*
X65910036Y-85957833D01*
X65910036Y-85796966D01*
X65829603Y-85636100D01*
X65749170Y-85555666D01*
X65588303Y-85475233D01*
X65266570Y-85394800D01*
X65105703Y-85314366D01*
X65025270Y-85233933D01*
X64944836Y-85073066D01*
X64944836Y-84912200D01*
X65025270Y-84751333D01*
X65105703Y-84670900D01*
X65266570Y-84590466D01*
X65668736Y-84590466D01*
X65910036Y-84670900D01*
X65427436Y-84349166D02*
X65427436Y-86520866D01*
X66553503Y-84751333D02*
X66633936Y-84670900D01*
X66794803Y-84590466D01*
X67196970Y-84590466D01*
X67357836Y-84670900D01*
X67438270Y-84751333D01*
X67518703Y-84912200D01*
X67518703Y-85073066D01*
X67438270Y-85314366D01*
X66473070Y-86279566D01*
X67518703Y-86279566D01*
D17*
X141744095Y-114123651D02*
X143697476Y-114123651D01*
X143927285Y-114008746D01*
X144042190Y-113893841D01*
X144157095Y-113664032D01*
X144157095Y-113204413D01*
X144042190Y-112974603D01*
X143927285Y-112859699D01*
X143697476Y-112744794D01*
X141744095Y-112744794D01*
X144042190Y-111710651D02*
X144157095Y-111365937D01*
X144157095Y-110791413D01*
X144042190Y-110561603D01*
X143927285Y-110446699D01*
X143697476Y-110331794D01*
X143467666Y-110331794D01*
X143237857Y-110446699D01*
X143122952Y-110561603D01*
X143008047Y-110791413D01*
X142893142Y-111251032D01*
X142778238Y-111480841D01*
X142663333Y-111595746D01*
X142433523Y-111710651D01*
X142203714Y-111710651D01*
X141973904Y-111595746D01*
X141859000Y-111480841D01*
X141744095Y-111251032D01*
X141744095Y-110676508D01*
X141859000Y-110331794D01*
X141399380Y-111021222D02*
X144501809Y-111021222D01*
X144157095Y-108033699D02*
X144157095Y-109412556D01*
X144157095Y-108723127D02*
X141744095Y-108723127D01*
X142088809Y-108952937D01*
X142318619Y-109182746D01*
X142433523Y-109412556D01*
D10*
X83058095Y-151300380D02*
X83058095Y-152109904D01*
X83105714Y-152205142D01*
X83153333Y-152252761D01*
X83248571Y-152300380D01*
X83439047Y-152300380D01*
X83534285Y-152252761D01*
X83581904Y-152205142D01*
X83629523Y-152109904D01*
X83629523Y-151300380D01*
X84010476Y-151300380D02*
X84677142Y-151300380D01*
X84248571Y-152300380D01*
X67818095Y-36746380D02*
X67818095Y-37555904D01*
X67865714Y-37651142D01*
X67913333Y-37698761D01*
X68008571Y-37746380D01*
X68199047Y-37746380D01*
X68294285Y-37698761D01*
X68341904Y-37651142D01*
X68389523Y-37555904D01*
X68389523Y-36746380D01*
X69389523Y-37746380D02*
X68818095Y-37746380D01*
X69103809Y-37746380D02*
X69103809Y-36746380D01*
X69008571Y-36889238D01*
X68913333Y-36984476D01*
X68818095Y-37032095D01*
D18*
X126556207Y-107371787D02*
X126242517Y-106923658D01*
X126018453Y-107371787D02*
X126018453Y-106430717D01*
X126376956Y-106430717D01*
X126466581Y-106475530D01*
X126511394Y-106520342D01*
X126556207Y-106609968D01*
X126556207Y-106744407D01*
X126511394Y-106834032D01*
X126466581Y-106878845D01*
X126376956Y-106923658D01*
X126018453Y-106923658D01*
X126914710Y-106520342D02*
X126959523Y-106475530D01*
X127049149Y-106430717D01*
X127273213Y-106430717D01*
X127362839Y-106475530D01*
X127407651Y-106520342D01*
X127452464Y-106609968D01*
X127452464Y-106699594D01*
X127407651Y-106834032D01*
X126869897Y-107371787D01*
X127452464Y-107371787D01*
X127810967Y-106520342D02*
X127855780Y-106475530D01*
X127945406Y-106430717D01*
X128169470Y-106430717D01*
X128259096Y-106475530D01*
X128303909Y-106520342D01*
X128348721Y-106609968D01*
X128348721Y-106699594D01*
X128303909Y-106834032D01*
X127766154Y-107371787D01*
X128348721Y-107371787D01*
X72573787Y-160209792D02*
X72125658Y-160523482D01*
X72573787Y-160747546D02*
X71632717Y-160747546D01*
X71632717Y-160389043D01*
X71677530Y-160299418D01*
X71722342Y-160254605D01*
X71811968Y-160209792D01*
X71946407Y-160209792D01*
X72036032Y-160254605D01*
X72080845Y-160299418D01*
X72125658Y-160389043D01*
X72125658Y-160747546D01*
X72573787Y-159313535D02*
X72573787Y-159851289D01*
X72573787Y-159582412D02*
X71632717Y-159582412D01*
X71767155Y-159672038D01*
X71856781Y-159761663D01*
X71901594Y-159851289D01*
X71632717Y-158999845D02*
X71632717Y-158372465D01*
X72573787Y-158775781D01*
X126810207Y-102545787D02*
X126496517Y-102097658D01*
X126272453Y-102545787D02*
X126272453Y-101604717D01*
X126630956Y-101604717D01*
X126720581Y-101649530D01*
X126765394Y-101694342D01*
X126810207Y-101783968D01*
X126810207Y-101918407D01*
X126765394Y-102008032D01*
X126720581Y-102052845D01*
X126630956Y-102097658D01*
X126272453Y-102097658D01*
X127706464Y-102545787D02*
X127168710Y-102545787D01*
X127437587Y-102545787D02*
X127437587Y-101604717D01*
X127347961Y-101739155D01*
X127258336Y-101828781D01*
X127168710Y-101873594D01*
X128513096Y-101604717D02*
X128333844Y-101604717D01*
X128244219Y-101649530D01*
X128199406Y-101694342D01*
X128109780Y-101828781D01*
X128064967Y-102008032D01*
X128064967Y-102366535D01*
X128109780Y-102456161D01*
X128154593Y-102500974D01*
X128244219Y-102545787D01*
X128423470Y-102545787D01*
X128513096Y-102500974D01*
X128557909Y-102456161D01*
X128602721Y-102366535D01*
X128602721Y-102142471D01*
X128557909Y-102052845D01*
X128513096Y-102008032D01*
X128423470Y-101963220D01*
X128244219Y-101963220D01*
X128154593Y-102008032D01*
X128109780Y-102052845D01*
X128064967Y-102142471D01*
X129027845Y-98024587D02*
X128714155Y-97576458D01*
X128490091Y-98024587D02*
X128490091Y-97083517D01*
X128848593Y-97083517D01*
X128938219Y-97128330D01*
X128983032Y-97173142D01*
X129027845Y-97262768D01*
X129027845Y-97397207D01*
X128983032Y-97486832D01*
X128938219Y-97531645D01*
X128848593Y-97576458D01*
X128490091Y-97576458D01*
X129924102Y-98024587D02*
X129386348Y-98024587D01*
X129655225Y-98024587D02*
X129655225Y-97083517D01*
X129565599Y-97217955D01*
X129475973Y-97307581D01*
X129386348Y-97352394D01*
X130775546Y-97083517D02*
X130327418Y-97083517D01*
X130282605Y-97531645D01*
X130327418Y-97486832D01*
X130417043Y-97442020D01*
X130641108Y-97442020D01*
X130730733Y-97486832D01*
X130775546Y-97531645D01*
X130820359Y-97621271D01*
X130820359Y-97845335D01*
X130775546Y-97934961D01*
X130730733Y-97979774D01*
X130641108Y-98024587D01*
X130417043Y-98024587D01*
X130327418Y-97979774D01*
X130282605Y-97934961D01*
X126810207Y-91115787D02*
X126496517Y-90667658D01*
X126272453Y-91115787D02*
X126272453Y-90174717D01*
X126630956Y-90174717D01*
X126720581Y-90219530D01*
X126765394Y-90264342D01*
X126810207Y-90353968D01*
X126810207Y-90488407D01*
X126765394Y-90578032D01*
X126720581Y-90622845D01*
X126630956Y-90667658D01*
X126272453Y-90667658D01*
X127706464Y-91115787D02*
X127168710Y-91115787D01*
X127437587Y-91115787D02*
X127437587Y-90174717D01*
X127347961Y-90309155D01*
X127258336Y-90398781D01*
X127168710Y-90443594D01*
X128064967Y-90264342D02*
X128109780Y-90219530D01*
X128199406Y-90174717D01*
X128423470Y-90174717D01*
X128513096Y-90219530D01*
X128557909Y-90264342D01*
X128602721Y-90353968D01*
X128602721Y-90443594D01*
X128557909Y-90578032D01*
X128020154Y-91115787D01*
X128602721Y-91115787D01*
X112586207Y-73335787D02*
X112272517Y-72887658D01*
X112048453Y-73335787D02*
X112048453Y-72394717D01*
X112406956Y-72394717D01*
X112496581Y-72439530D01*
X112541394Y-72484342D01*
X112586207Y-72573968D01*
X112586207Y-72708407D01*
X112541394Y-72798032D01*
X112496581Y-72842845D01*
X112406956Y-72887658D01*
X112048453Y-72887658D01*
X113123961Y-72798032D02*
X113034336Y-72753220D01*
X112989523Y-72708407D01*
X112944710Y-72618781D01*
X112944710Y-72573968D01*
X112989523Y-72484342D01*
X113034336Y-72439530D01*
X113123961Y-72394717D01*
X113303213Y-72394717D01*
X113392839Y-72439530D01*
X113437651Y-72484342D01*
X113482464Y-72573968D01*
X113482464Y-72618781D01*
X113437651Y-72708407D01*
X113392839Y-72753220D01*
X113303213Y-72798032D01*
X113123961Y-72798032D01*
X113034336Y-72842845D01*
X112989523Y-72887658D01*
X112944710Y-72977284D01*
X112944710Y-73156535D01*
X112989523Y-73246161D01*
X113034336Y-73290974D01*
X113123961Y-73335787D01*
X113303213Y-73335787D01*
X113392839Y-73290974D01*
X113437651Y-73246161D01*
X113482464Y-73156535D01*
X113482464Y-72977284D01*
X113437651Y-72887658D01*
X113392839Y-72842845D01*
X113303213Y-72798032D01*
X85154207Y-71303787D02*
X84840517Y-70855658D01*
X84616453Y-71303787D02*
X84616453Y-70362717D01*
X84974956Y-70362717D01*
X85064581Y-70407530D01*
X85109394Y-70452342D01*
X85154207Y-70541968D01*
X85154207Y-70676407D01*
X85109394Y-70766032D01*
X85064581Y-70810845D01*
X84974956Y-70855658D01*
X84616453Y-70855658D01*
X85467897Y-70362717D02*
X86095277Y-70362717D01*
X85691961Y-71303787D01*
X85408207Y-62921787D02*
X85094517Y-62473658D01*
X84870453Y-62921787D02*
X84870453Y-61980717D01*
X85228956Y-61980717D01*
X85318581Y-62025530D01*
X85363394Y-62070342D01*
X85408207Y-62159968D01*
X85408207Y-62294407D01*
X85363394Y-62384032D01*
X85318581Y-62428845D01*
X85228956Y-62473658D01*
X84870453Y-62473658D01*
X86214839Y-61980717D02*
X86035587Y-61980717D01*
X85945961Y-62025530D01*
X85901149Y-62070342D01*
X85811523Y-62204781D01*
X85766710Y-62384032D01*
X85766710Y-62742535D01*
X85811523Y-62832161D01*
X85856336Y-62876974D01*
X85945961Y-62921787D01*
X86125213Y-62921787D01*
X86214839Y-62876974D01*
X86259651Y-62832161D01*
X86304464Y-62742535D01*
X86304464Y-62518471D01*
X86259651Y-62428845D01*
X86214839Y-62384032D01*
X86125213Y-62339220D01*
X85945961Y-62339220D01*
X85856336Y-62384032D01*
X85811523Y-62428845D01*
X85766710Y-62518471D01*
X85408207Y-57079787D02*
X85094517Y-56631658D01*
X84870453Y-57079787D02*
X84870453Y-56138717D01*
X85228956Y-56138717D01*
X85318581Y-56183530D01*
X85363394Y-56228342D01*
X85408207Y-56317968D01*
X85408207Y-56452407D01*
X85363394Y-56542032D01*
X85318581Y-56586845D01*
X85228956Y-56631658D01*
X84870453Y-56631658D01*
X86259651Y-56138717D02*
X85811523Y-56138717D01*
X85766710Y-56586845D01*
X85811523Y-56542032D01*
X85901149Y-56497220D01*
X86125213Y-56497220D01*
X86214839Y-56542032D01*
X86259651Y-56586845D01*
X86304464Y-56676471D01*
X86304464Y-56900535D01*
X86259651Y-56990161D01*
X86214839Y-57034974D01*
X86125213Y-57079787D01*
X85901149Y-57079787D01*
X85811523Y-57034974D01*
X85766710Y-56990161D01*
X99124207Y-81971787D02*
X98810517Y-81523658D01*
X98586453Y-81971787D02*
X98586453Y-81030717D01*
X98944956Y-81030717D01*
X99034581Y-81075530D01*
X99079394Y-81120342D01*
X99124207Y-81209968D01*
X99124207Y-81344407D01*
X99079394Y-81434032D01*
X99034581Y-81478845D01*
X98944956Y-81523658D01*
X98586453Y-81523658D01*
X99930839Y-81344407D02*
X99930839Y-81971787D01*
X99706774Y-80985904D02*
X99482710Y-81658097D01*
X100065277Y-81658097D01*
X68390207Y-165283787D02*
X68076517Y-164835658D01*
X67852453Y-165283787D02*
X67852453Y-164342717D01*
X68210956Y-164342717D01*
X68300581Y-164387530D01*
X68345394Y-164432342D01*
X68390207Y-164521968D01*
X68390207Y-164656407D01*
X68345394Y-164746032D01*
X68300581Y-164790845D01*
X68210956Y-164835658D01*
X67852453Y-164835658D01*
X68703897Y-164342717D02*
X69286464Y-164342717D01*
X68972774Y-164701220D01*
X69107213Y-164701220D01*
X69196839Y-164746032D01*
X69241651Y-164790845D01*
X69286464Y-164880471D01*
X69286464Y-165104535D01*
X69241651Y-165194161D01*
X69196839Y-165238974D01*
X69107213Y-165283787D01*
X68838336Y-165283787D01*
X68748710Y-165238974D01*
X68703897Y-165194161D01*
X117412207Y-66223787D02*
X117098517Y-65775658D01*
X116874453Y-66223787D02*
X116874453Y-65282717D01*
X117232956Y-65282717D01*
X117322581Y-65327530D01*
X117367394Y-65372342D01*
X117412207Y-65461968D01*
X117412207Y-65596407D01*
X117367394Y-65686032D01*
X117322581Y-65730845D01*
X117232956Y-65775658D01*
X116874453Y-65775658D01*
X117770710Y-65372342D02*
X117815523Y-65327530D01*
X117905149Y-65282717D01*
X118129213Y-65282717D01*
X118218839Y-65327530D01*
X118263651Y-65372342D01*
X118308464Y-65461968D01*
X118308464Y-65551594D01*
X118263651Y-65686032D01*
X117725897Y-66223787D01*
X118308464Y-66223787D01*
X117412207Y-63683787D02*
X117098517Y-63235658D01*
X116874453Y-63683787D02*
X116874453Y-62742717D01*
X117232956Y-62742717D01*
X117322581Y-62787530D01*
X117367394Y-62832342D01*
X117412207Y-62921968D01*
X117412207Y-63056407D01*
X117367394Y-63146032D01*
X117322581Y-63190845D01*
X117232956Y-63235658D01*
X116874453Y-63235658D01*
X118308464Y-63683787D02*
X117770710Y-63683787D01*
X118039587Y-63683787D02*
X118039587Y-62742717D01*
X117949961Y-62877155D01*
X117860336Y-62966781D01*
X117770710Y-63011594D01*
D13*
X121999526Y-73793047D02*
X121999526Y-74654833D01*
X121942073Y-74827190D01*
X121827169Y-74942095D01*
X121654811Y-74999547D01*
X121539907Y-74999547D01*
X122574050Y-74999547D02*
X122574050Y-73793047D01*
X123033669Y-73793047D01*
X123148573Y-73850500D01*
X123206026Y-73907952D01*
X123263478Y-74022857D01*
X123263478Y-74195214D01*
X123206026Y-74310119D01*
X123148573Y-74367571D01*
X123033669Y-74425023D01*
X122574050Y-74425023D01*
X123723097Y-73907952D02*
X123780550Y-73850500D01*
X123895454Y-73793047D01*
X124182716Y-73793047D01*
X124297621Y-73850500D01*
X124355073Y-73907952D01*
X124412526Y-74022857D01*
X124412526Y-74137761D01*
X124355073Y-74310119D01*
X123665645Y-74999547D01*
X124412526Y-74999547D01*
X127000907Y-80905047D02*
X127747788Y-80905047D01*
X127345621Y-81364666D01*
X127517978Y-81364666D01*
X127632883Y-81422119D01*
X127690335Y-81479571D01*
X127747788Y-81594476D01*
X127747788Y-81881738D01*
X127690335Y-81996642D01*
X127632883Y-82054095D01*
X127517978Y-82111547D01*
X127173264Y-82111547D01*
X127058359Y-82054095D01*
X127000907Y-81996642D01*
X124518359Y-81019952D02*
X124575811Y-80962500D01*
X124690716Y-80905047D01*
X124977978Y-80905047D01*
X125092883Y-80962500D01*
X125150335Y-81019952D01*
X125207788Y-81134857D01*
X125207788Y-81249761D01*
X125150335Y-81422119D01*
X124460907Y-82111547D01*
X125207788Y-82111547D01*
X122667788Y-82111547D02*
X121978359Y-82111547D01*
X122323073Y-82111547D02*
X122323073Y-80905047D01*
X122208169Y-81077404D01*
X122093264Y-81192309D01*
X121978359Y-81249761D01*
X94113047Y-164893473D02*
X94974833Y-164893473D01*
X95147190Y-164950926D01*
X95262095Y-165065830D01*
X95319547Y-165238188D01*
X95319547Y-165353092D01*
X95319547Y-164318950D02*
X94113047Y-164318950D01*
X94113047Y-163859330D01*
X94170500Y-163744426D01*
X94227952Y-163686973D01*
X94342857Y-163629521D01*
X94515214Y-163629521D01*
X94630119Y-163686973D01*
X94687571Y-163744426D01*
X94745023Y-163859330D01*
X94745023Y-164318950D01*
X95319547Y-162480473D02*
X95319547Y-163169902D01*
X95319547Y-162825188D02*
X94113047Y-162825188D01*
X94285404Y-162940092D01*
X94400309Y-163054997D01*
X94457761Y-163169902D01*
D10*
X100758666Y-51986380D02*
X100758666Y-52700666D01*
X100711047Y-52843523D01*
X100615809Y-52938761D01*
X100472952Y-52986380D01*
X100377714Y-52986380D01*
X101758666Y-52986380D02*
X101187238Y-52986380D01*
X101472952Y-52986380D02*
X101472952Y-51986380D01*
X101377714Y-52129238D01*
X101282476Y-52224476D01*
X101187238Y-52272095D01*
D13*
X68187811Y-147389547D02*
X68187811Y-146183047D01*
X68475073Y-146183047D01*
X68647430Y-146240500D01*
X68762335Y-146355404D01*
X68819788Y-146470309D01*
X68877240Y-146700119D01*
X68877240Y-146872476D01*
X68819788Y-147102285D01*
X68762335Y-147217190D01*
X68647430Y-147332095D01*
X68475073Y-147389547D01*
X68187811Y-147389547D01*
X69336859Y-146297952D02*
X69394311Y-146240500D01*
X69509216Y-146183047D01*
X69796478Y-146183047D01*
X69911383Y-146240500D01*
X69968835Y-146297952D01*
X70026288Y-146412857D01*
X70026288Y-146527761D01*
X69968835Y-146700119D01*
X69279407Y-147389547D01*
X70026288Y-147389547D01*
X88527164Y-82111547D02*
X88527164Y-80905047D01*
X88814426Y-80905047D01*
X88986783Y-80962500D01*
X89101688Y-81077404D01*
X89159140Y-81192309D01*
X89216592Y-81422119D01*
X89216592Y-81594476D01*
X89159140Y-81824285D01*
X89101688Y-81939190D01*
X88986783Y-82054095D01*
X88814426Y-82111547D01*
X88527164Y-82111547D01*
X90365640Y-82111547D02*
X89676211Y-82111547D01*
X90020926Y-82111547D02*
X90020926Y-80905047D01*
X89906021Y-81077404D01*
X89791116Y-81192309D01*
X89676211Y-81249761D01*
X116502240Y-83012642D02*
X116444788Y-83070095D01*
X116272430Y-83127547D01*
X116157526Y-83127547D01*
X115985169Y-83070095D01*
X115870264Y-82955190D01*
X115812811Y-82840285D01*
X115755359Y-82610476D01*
X115755359Y-82438119D01*
X115812811Y-82208309D01*
X115870264Y-82093404D01*
X115985169Y-81978500D01*
X116157526Y-81921047D01*
X116272430Y-81921047D01*
X116444788Y-81978500D01*
X116502240Y-82035952D01*
X117076764Y-83127547D02*
X117306573Y-83127547D01*
X117421478Y-83070095D01*
X117478930Y-83012642D01*
X117593835Y-82840285D01*
X117651288Y-82610476D01*
X117651288Y-82150857D01*
X117593835Y-82035952D01*
X117536383Y-81978500D01*
X117421478Y-81921047D01*
X117191669Y-81921047D01*
X117076764Y-81978500D01*
X117019311Y-82035952D01*
X116961859Y-82150857D01*
X116961859Y-82438119D01*
X117019311Y-82553023D01*
X117076764Y-82610476D01*
X117191669Y-82667928D01*
X117421478Y-82667928D01*
X117536383Y-82610476D01*
X117593835Y-82553023D01*
X117651288Y-82438119D01*
X67734240Y-81996642D02*
X67676788Y-82054095D01*
X67504430Y-82111547D01*
X67389526Y-82111547D01*
X67217169Y-82054095D01*
X67102264Y-81939190D01*
X67044811Y-81824285D01*
X66987359Y-81594476D01*
X66987359Y-81422119D01*
X67044811Y-81192309D01*
X67102264Y-81077404D01*
X67217169Y-80962500D01*
X67389526Y-80905047D01*
X67504430Y-80905047D01*
X67676788Y-80962500D01*
X67734240Y-81019952D01*
X68423669Y-81422119D02*
X68308764Y-81364666D01*
X68251311Y-81307214D01*
X68193859Y-81192309D01*
X68193859Y-81134857D01*
X68251311Y-81019952D01*
X68308764Y-80962500D01*
X68423669Y-80905047D01*
X68653478Y-80905047D01*
X68768383Y-80962500D01*
X68825835Y-81019952D01*
X68883288Y-81134857D01*
X68883288Y-81192309D01*
X68825835Y-81307214D01*
X68768383Y-81364666D01*
X68653478Y-81422119D01*
X68423669Y-81422119D01*
X68308764Y-81479571D01*
X68251311Y-81537023D01*
X68193859Y-81651928D01*
X68193859Y-81881738D01*
X68251311Y-81996642D01*
X68308764Y-82054095D01*
X68423669Y-82111547D01*
X68653478Y-82111547D01*
X68768383Y-82054095D01*
X68825835Y-81996642D01*
X68883288Y-81881738D01*
X68883288Y-81651928D01*
X68825835Y-81537023D01*
X68768383Y-81479571D01*
X68653478Y-81422119D01*
X83228240Y-173944642D02*
X83170788Y-174002095D01*
X82998430Y-174059547D01*
X82883526Y-174059547D01*
X82711169Y-174002095D01*
X82596264Y-173887190D01*
X82538811Y-173772285D01*
X82481359Y-173542476D01*
X82481359Y-173370119D01*
X82538811Y-173140309D01*
X82596264Y-173025404D01*
X82711169Y-172910500D01*
X82883526Y-172853047D01*
X82998430Y-172853047D01*
X83170788Y-172910500D01*
X83228240Y-172967952D01*
X83630407Y-172853047D02*
X84434740Y-172853047D01*
X83917669Y-174059547D01*
X127424240Y-112984642D02*
X127366788Y-113042095D01*
X127194430Y-113099547D01*
X127079526Y-113099547D01*
X126907169Y-113042095D01*
X126792264Y-112927190D01*
X126734811Y-112812285D01*
X126677359Y-112582476D01*
X126677359Y-112410119D01*
X126734811Y-112180309D01*
X126792264Y-112065404D01*
X126907169Y-111950500D01*
X127079526Y-111893047D01*
X127194430Y-111893047D01*
X127366788Y-111950500D01*
X127424240Y-112007952D01*
X128458383Y-112295214D02*
X128458383Y-113099547D01*
X128171121Y-111835595D02*
X127883859Y-112697380D01*
X128630740Y-112697380D01*
X119550240Y-152354642D02*
X119492788Y-152412095D01*
X119320430Y-152469547D01*
X119205526Y-152469547D01*
X119033169Y-152412095D01*
X118918264Y-152297190D01*
X118860811Y-152182285D01*
X118803359Y-151952476D01*
X118803359Y-151780119D01*
X118860811Y-151550309D01*
X118918264Y-151435404D01*
X119033169Y-151320500D01*
X119205526Y-151263047D01*
X119320430Y-151263047D01*
X119492788Y-151320500D01*
X119550240Y-151377952D01*
X119952407Y-151263047D02*
X120699288Y-151263047D01*
X120297121Y-151722666D01*
X120469478Y-151722666D01*
X120584383Y-151780119D01*
X120641835Y-151837571D01*
X120699288Y-151952476D01*
X120699288Y-152239738D01*
X120641835Y-152354642D01*
X120584383Y-152412095D01*
X120469478Y-152469547D01*
X120124764Y-152469547D01*
X120009859Y-152412095D01*
X119952407Y-152354642D01*
X107885592Y-117556642D02*
X107828140Y-117614095D01*
X107655783Y-117671547D01*
X107540878Y-117671547D01*
X107368521Y-117614095D01*
X107253616Y-117499190D01*
X107196164Y-117384285D01*
X107138711Y-117154476D01*
X107138711Y-116982119D01*
X107196164Y-116752309D01*
X107253616Y-116637404D01*
X107368521Y-116522500D01*
X107540878Y-116465047D01*
X107655783Y-116465047D01*
X107828140Y-116522500D01*
X107885592Y-116579952D01*
X108345211Y-116579952D02*
X108402664Y-116522500D01*
X108517569Y-116465047D01*
X108804830Y-116465047D01*
X108919735Y-116522500D01*
X108977188Y-116579952D01*
X109034640Y-116694857D01*
X109034640Y-116809761D01*
X108977188Y-116982119D01*
X108287759Y-117671547D01*
X109034640Y-117671547D01*
X85768240Y-50754642D02*
X85710788Y-50812095D01*
X85538430Y-50869547D01*
X85423526Y-50869547D01*
X85251169Y-50812095D01*
X85136264Y-50697190D01*
X85078811Y-50582285D01*
X85021359Y-50352476D01*
X85021359Y-50180119D01*
X85078811Y-49950309D01*
X85136264Y-49835404D01*
X85251169Y-49720500D01*
X85423526Y-49663047D01*
X85538430Y-49663047D01*
X85710788Y-49720500D01*
X85768240Y-49777952D01*
X86917288Y-50869547D02*
X86227859Y-50869547D01*
X86572573Y-50869547D02*
X86572573Y-49663047D01*
X86457669Y-49835404D01*
X86342764Y-49950309D01*
X86227859Y-50007761D01*
M02*
