<?xml version="1.0" standalone="no"?>
 <!DOCTYPE svg PUBLIC "-//W3C//DTD SVG 1.1//EN" 
 "http://www.w3.org/Graphics/SVG/1.1/DTD/svg11.dtd"> 
<svg xmlns="http://www.w3.org/2000/svg" version="1.1" 
    width="29.7002cm" height="21.0007cm" viewBox="0 0 116930 82680 ">
<title>SVG Picture created as FAL6567i-F_Fab.svg date 2022/07/07 22:06:52 </title>
  <desc>Picture generated by PCBNEW </desc>
<g style="fill:#000000; fill-opacity:1;stroke:#000000; stroke-opacity:1;
stroke-linecap:round; stroke-linejoin:round; "
 transform="translate(0 0) scale(1 1)">
</g>
<g style="fill:#000000; fill-opacity:0.0; 
stroke:#000000; stroke-width:-0.000393701; stroke-opacity:1; 
stroke-linecap:round; stroke-linejoin:round;">
</g>
<g style="fill:#000000; fill-opacity:0.0; 
stroke:#000000; stroke-width:39.3701; stroke-opacity:1; 
stroke-linecap:round; stroke-linejoin:round;">
</g>
<g style="fill:#000000; fill-opacity:0.0; 
stroke:#000000; stroke-width:59.0551; stroke-opacity:1; 
stroke-linecap:round; stroke-linejoin:round;">
<rect x="69685.9" y="65357.2" width="42519.7" height="12598.4" rx="0" />
</g>
<g style="fill:#000000; fill-opacity:0.0; 
stroke:#000000; stroke-width:39.3701; stroke-opacity:1; 
stroke-linecap:round; stroke-linejoin:round;">
</g>
<g style="fill:#000000; fill-opacity:0.0; 
stroke:#000000; stroke-width:59.0551; stroke-opacity:1; 
stroke-linecap:round; stroke-linejoin:round;">
<rect x="3937.01" y="3937.01" width="109056" height="74806" rx="0" />
</g>
<g style="fill:#000000; fill-opacity:0.0; 
stroke:#000000; stroke-width:39.3701; stroke-opacity:1; 
stroke-linecap:round; stroke-linejoin:round;">
</g>
<g style="fill:#000000; fill-opacity:0.0; 
stroke:#000000; stroke-width:59.0551; stroke-opacity:1; 
stroke-linecap:round; stroke-linejoin:round;">
<rect x="4724.41" y="4724.41" width="107481" height="73231.2" rx="0" />
</g>
<g style="fill:#000000; fill-opacity:0.0; 
stroke:#000000; stroke-width:39.3701; stroke-opacity:1; 
stroke-linecap:round; stroke-linejoin:round;">
</g>
<g style="fill:#000000; fill-opacity:0.0; 
stroke:#000000; stroke-width:59.0551; stroke-opacity:1; 
stroke-linecap:round; stroke-linejoin:round;">
<path d="M23622 4724
L23622 3937
" />
</g>
<g style="fill:#000000; fill-opacity:0.0; 
stroke:#000000; stroke-width:39.3701; stroke-opacity:1; 
stroke-linecap:round; stroke-linejoin:round;">
</g>
<g style="fill:#000000; fill-opacity:0.0; 
stroke:#000000; stroke-width:59.0551; stroke-opacity:1; 
stroke-linecap:round; stroke-linejoin:round;">
<path d="M43307 4724
L43307 3937
" />
</g>
<g style="fill:#000000; fill-opacity:0.0; 
stroke:#000000; stroke-width:39.3701; stroke-opacity:1; 
stroke-linecap:round; stroke-linejoin:round;">
</g>
<g style="fill:#000000; fill-opacity:0.0; 
stroke:#000000; stroke-width:59.0551; stroke-opacity:1; 
stroke-linecap:round; stroke-linejoin:round;">
<path d="M62992 4724
L62992 3937
" />
</g>
<g style="fill:#000000; fill-opacity:0.0; 
stroke:#000000; stroke-width:39.3701; stroke-opacity:1; 
stroke-linecap:round; stroke-linejoin:round;">
</g>
<g style="fill:#000000; fill-opacity:0.0; 
stroke:#000000; stroke-width:59.0551; stroke-opacity:1; 
stroke-linecap:round; stroke-linejoin:round;">
<path d="M82677 4724
L82677 3937
" />
</g>
<g style="fill:#000000; fill-opacity:0.0; 
stroke:#000000; stroke-width:39.3701; stroke-opacity:1; 
stroke-linecap:round; stroke-linejoin:round;">
</g>
<g style="fill:#000000; fill-opacity:0.0; 
stroke:#000000; stroke-width:59.0551; stroke-opacity:1; 
stroke-linecap:round; stroke-linejoin:round;">
<path d="M102362 4724
L102362 3937
" />
</g>
<g style="fill:#000000; fill-opacity:0.0; 
stroke:#000000; stroke-width:39.3701; stroke-opacity:1; 
stroke-linecap:round; stroke-linejoin:round;">
</g>
<g style="fill:#000000; fill-opacity:0.0; 
stroke:#000000; stroke-width:59.0551; stroke-opacity:1; 
stroke-linecap:round; stroke-linejoin:round;">
<text x="13779.5" y="4586.61"
textLength="546.494" font-size="682.415" lengthAdjust="spacingAndGlyphs"
text-anchor="start" opacity="0">1</text>
<path d="M14199 4562
L13906 4562
" />
<path d="M14052 4562
L14052 4050
L14004 4123
L13955 4172
L13906 4196
" />
</g>
<g style="fill:#000000; fill-opacity:0.0; 
stroke:#000000; stroke-width:39.3701; stroke-opacity:1; 
stroke-linecap:round; stroke-linejoin:round;">
</g>
<g style="fill:#000000; fill-opacity:0.0; 
stroke:#000000; stroke-width:59.0551; stroke-opacity:1; 
stroke-linecap:round; stroke-linejoin:round;">
<text x="33464.6" y="4586.61"
textLength="546.494" font-size="682.415" lengthAdjust="spacingAndGlyphs"
text-anchor="start" opacity="0">2</text>
<path d="M33591 4099
L33615 4074
L33664 4050
L33786 4050
L33835 4074
L33859 4099
L33884 4147
L33884 4196
L33859 4269
L33567 4562
L33884 4562
" />
</g>
<g style="fill:#000000; fill-opacity:0.0; 
stroke:#000000; stroke-width:39.3701; stroke-opacity:1; 
stroke-linecap:round; stroke-linejoin:round;">
</g>
<g style="fill:#000000; fill-opacity:0.0; 
stroke:#000000; stroke-width:59.0551; stroke-opacity:1; 
stroke-linecap:round; stroke-linejoin:round;">
<text x="53149.6" y="4586.61"
textLength="546.494" font-size="682.415" lengthAdjust="spacingAndGlyphs"
text-anchor="start" opacity="0">3</text>
<path d="M53252 4050
L53569 4050
L53398 4245
L53471 4245
L53520 4269
L53544 4294
L53569 4342
L53569 4464
L53544 4513
L53520 4537
L53471 4562
L53325 4562
L53276 4537
L53252 4513
" />
</g>
<g style="fill:#000000; fill-opacity:0.0; 
stroke:#000000; stroke-width:39.3701; stroke-opacity:1; 
stroke-linecap:round; stroke-linejoin:round;">
</g>
<g style="fill:#000000; fill-opacity:0.0; 
stroke:#000000; stroke-width:59.0551; stroke-opacity:1; 
stroke-linecap:round; stroke-linejoin:round;">
<text x="72834.6" y="4586.61"
textLength="546.494" font-size="682.415" lengthAdjust="spacingAndGlyphs"
text-anchor="start" opacity="0">4</text>
<path d="M73205 4221
L73205 4562
" />
<path d="M73083 4026
L72961 4391
L73278 4391
" />
</g>
<g style="fill:#000000; fill-opacity:0.0; 
stroke:#000000; stroke-width:39.3701; stroke-opacity:1; 
stroke-linecap:round; stroke-linejoin:round;">
</g>
<g style="fill:#000000; fill-opacity:0.0; 
stroke:#000000; stroke-width:59.0551; stroke-opacity:1; 
stroke-linecap:round; stroke-linejoin:round;">
<text x="92519.7" y="4586.61"
textLength="546.494" font-size="682.415" lengthAdjust="spacingAndGlyphs"
text-anchor="start" opacity="0">5</text>
<path d="M92914 4050
L92671 4050
L92646 4294
L92671 4269
L92719 4245
L92841 4245
L92890 4269
L92914 4294
L92939 4342
L92939 4464
L92914 4513
L92890 4537
L92841 4562
L92719 4562
L92671 4537
L92646 4513
" />
</g>
<g style="fill:#000000; fill-opacity:0.0; 
stroke:#000000; stroke-width:39.3701; stroke-opacity:1; 
stroke-linecap:round; stroke-linejoin:round;">
</g>
<g style="fill:#000000; fill-opacity:0.0; 
stroke:#000000; stroke-width:59.0551; stroke-opacity:1; 
stroke-linecap:round; stroke-linejoin:round;">
<text x="112205" y="4586.61"
textLength="546.494" font-size="682.415" lengthAdjust="spacingAndGlyphs"
text-anchor="start" opacity="0">6</text>
<path d="M112575 4050
L112477 4050
L112429 4074
L112404 4099
L112356 4172
L112331 4269
L112331 4464
L112356 4513
L112380 4537
L112429 4562
L112526 4562
L112575 4537
L112599 4513
L112624 4464
L112624 4342
L112599 4294
L112575 4269
L112526 4245
L112429 4245
L112380 4269
L112356 4294
L112331 4342
" />
</g>
<g style="fill:#000000; fill-opacity:0.0; 
stroke:#000000; stroke-width:39.3701; stroke-opacity:1; 
stroke-linecap:round; stroke-linejoin:round;">
</g>
<g style="fill:#000000; fill-opacity:0.0; 
stroke:#000000; stroke-width:59.0551; stroke-opacity:1; 
stroke-linecap:round; stroke-linejoin:round;">
<path d="M23622 77955
L23622 78742
" />
</g>
<g style="fill:#000000; fill-opacity:0.0; 
stroke:#000000; stroke-width:39.3701; stroke-opacity:1; 
stroke-linecap:round; stroke-linejoin:round;">
</g>
<g style="fill:#000000; fill-opacity:0.0; 
stroke:#000000; stroke-width:59.0551; stroke-opacity:1; 
stroke-linecap:round; stroke-linejoin:round;">
<path d="M43307 77955
L43307 78742
" />
</g>
<g style="fill:#000000; fill-opacity:0.0; 
stroke:#000000; stroke-width:39.3701; stroke-opacity:1; 
stroke-linecap:round; stroke-linejoin:round;">
</g>
<g style="fill:#000000; fill-opacity:0.0; 
stroke:#000000; stroke-width:59.0551; stroke-opacity:1; 
stroke-linecap:round; stroke-linejoin:round;">
<path d="M62992 77955
L62992 78742
" />
</g>
<g style="fill:#000000; fill-opacity:0.0; 
stroke:#000000; stroke-width:39.3701; stroke-opacity:1; 
stroke-linecap:round; stroke-linejoin:round;">
</g>
<g style="fill:#000000; fill-opacity:0.0; 
stroke:#000000; stroke-width:59.0551; stroke-opacity:1; 
stroke-linecap:round; stroke-linejoin:round;">
<path d="M82677 77955
L82677 78742
" />
</g>
<g style="fill:#000000; fill-opacity:0.0; 
stroke:#000000; stroke-width:39.3701; stroke-opacity:1; 
stroke-linecap:round; stroke-linejoin:round;">
</g>
<g style="fill:#000000; fill-opacity:0.0; 
stroke:#000000; stroke-width:59.0551; stroke-opacity:1; 
stroke-linecap:round; stroke-linejoin:round;">
<path d="M102362 77955
L102362 78742
" />
</g>
<g style="fill:#000000; fill-opacity:0.0; 
stroke:#000000; stroke-width:39.3701; stroke-opacity:1; 
stroke-linecap:round; stroke-linejoin:round;">
</g>
<g style="fill:#000000; fill-opacity:0.0; 
stroke:#000000; stroke-width:59.0551; stroke-opacity:1; 
stroke-linecap:round; stroke-linejoin:round;">
<text x="13779.5" y="78605.2"
textLength="546.494" font-size="682.415" lengthAdjust="spacingAndGlyphs"
text-anchor="start" opacity="0">1</text>
<path d="M14199 78580
L13906 78580
" />
<path d="M14052 78580
L14052 78069
L14004 78142
L13955 78190
L13906 78215
" />
</g>
<g style="fill:#000000; fill-opacity:0.0; 
stroke:#000000; stroke-width:39.3701; stroke-opacity:1; 
stroke-linecap:round; stroke-linejoin:round;">
</g>
<g style="fill:#000000; fill-opacity:0.0; 
stroke:#000000; stroke-width:59.0551; stroke-opacity:1; 
stroke-linecap:round; stroke-linejoin:round;">
<text x="33464.6" y="78605.2"
textLength="546.494" font-size="682.415" lengthAdjust="spacingAndGlyphs"
text-anchor="start" opacity="0">2</text>
<path d="M33591 78117
L33615 78093
L33664 78069
L33786 78069
L33835 78093
L33859 78117
L33884 78166
L33884 78215
L33859 78288
L33567 78580
L33884 78580
" />
</g>
<g style="fill:#000000; fill-opacity:0.0; 
stroke:#000000; stroke-width:39.3701; stroke-opacity:1; 
stroke-linecap:round; stroke-linejoin:round;">
</g>
<g style="fill:#000000; fill-opacity:0.0; 
stroke:#000000; stroke-width:59.0551; stroke-opacity:1; 
stroke-linecap:round; stroke-linejoin:round;">
<text x="53149.6" y="78605.2"
textLength="546.494" font-size="682.415" lengthAdjust="spacingAndGlyphs"
text-anchor="start" opacity="0">3</text>
<path d="M53252 78069
L53569 78069
L53398 78263
L53471 78263
L53520 78288
L53544 78312
L53569 78361
L53569 78483
L53544 78532
L53520 78556
L53471 78580
L53325 78580
L53276 78556
L53252 78532
" />
</g>
<g style="fill:#000000; fill-opacity:0.0; 
stroke:#000000; stroke-width:39.3701; stroke-opacity:1; 
stroke-linecap:round; stroke-linejoin:round;">
</g>
<g style="fill:#000000; fill-opacity:0.0; 
stroke:#000000; stroke-width:59.0551; stroke-opacity:1; 
stroke-linecap:round; stroke-linejoin:round;">
<text x="72834.6" y="78605.2"
textLength="546.494" font-size="682.415" lengthAdjust="spacingAndGlyphs"
text-anchor="start" opacity="0">4</text>
<path d="M73205 78239
L73205 78580
" />
<path d="M73083 78044
L72961 78410
L73278 78410
" />
</g>
<g style="fill:#000000; fill-opacity:0.0; 
stroke:#000000; stroke-width:39.3701; stroke-opacity:1; 
stroke-linecap:round; stroke-linejoin:round;">
</g>
<g style="fill:#000000; fill-opacity:0.0; 
stroke:#000000; stroke-width:59.0551; stroke-opacity:1; 
stroke-linecap:round; stroke-linejoin:round;">
<text x="92519.7" y="78605.2"
textLength="546.494" font-size="682.415" lengthAdjust="spacingAndGlyphs"
text-anchor="start" opacity="0">5</text>
<path d="M92914 78069
L92671 78069
L92646 78312
L92671 78288
L92719 78263
L92841 78263
L92890 78288
L92914 78312
L92939 78361
L92939 78483
L92914 78532
L92890 78556
L92841 78580
L92719 78580
L92671 78556
L92646 78532
" />
</g>
<g style="fill:#000000; fill-opacity:0.0; 
stroke:#000000; stroke-width:39.3701; stroke-opacity:1; 
stroke-linecap:round; stroke-linejoin:round;">
</g>
<g style="fill:#000000; fill-opacity:0.0; 
stroke:#000000; stroke-width:59.0551; stroke-opacity:1; 
stroke-linecap:round; stroke-linejoin:round;">
<text x="112205" y="78605.2"
textLength="546.494" font-size="682.415" lengthAdjust="spacingAndGlyphs"
text-anchor="start" opacity="0">6</text>
<path d="M112575 78069
L112477 78069
L112429 78093
L112404 78117
L112356 78190
L112331 78288
L112331 78483
L112356 78532
L112380 78556
L112429 78580
L112526 78580
L112575 78556
L112599 78532
L112624 78483
L112624 78361
L112599 78312
L112575 78288
L112526 78263
L112429 78263
L112380 78288
L112356 78312
L112331 78361
" />
</g>
<g style="fill:#000000; fill-opacity:0.0; 
stroke:#000000; stroke-width:39.3701; stroke-opacity:1; 
stroke-linecap:round; stroke-linejoin:round;">
</g>
<g style="fill:#000000; fill-opacity:0.0; 
stroke:#000000; stroke-width:59.0551; stroke-opacity:1; 
stroke-linecap:round; stroke-linejoin:round;">
<path d="M3937 23622
L4724 23622
" />
</g>
<g style="fill:#000000; fill-opacity:0.0; 
stroke:#000000; stroke-width:39.3701; stroke-opacity:1; 
stroke-linecap:round; stroke-linejoin:round;">
</g>
<g style="fill:#000000; fill-opacity:0.0; 
stroke:#000000; stroke-width:59.0551; stroke-opacity:1; 
stroke-linecap:round; stroke-linejoin:round;">
<path d="M3937 43307
L4724 43307
" />
</g>
<g style="fill:#000000; fill-opacity:0.0; 
stroke:#000000; stroke-width:39.3701; stroke-opacity:1; 
stroke-linecap:round; stroke-linejoin:round;">
</g>
<g style="fill:#000000; fill-opacity:0.0; 
stroke:#000000; stroke-width:59.0551; stroke-opacity:1; 
stroke-linecap:round; stroke-linejoin:round;">
<path d="M3937 62992
L4724 62992
" />
</g>
<g style="fill:#000000; fill-opacity:0.0; 
stroke:#000000; stroke-width:39.3701; stroke-opacity:1; 
stroke-linecap:round; stroke-linejoin:round;">
</g>
<g style="fill:#000000; fill-opacity:0.0; 
stroke:#000000; stroke-width:59.0551; stroke-opacity:1; 
stroke-linecap:round; stroke-linejoin:round;">
<text x="4330.71" y="14035.4"
textLength="497.75" font-size="682.415" lengthAdjust="spacingAndGlyphs"
text-anchor="middle" opacity="0">A</text>
<path d="M4208 13864
L4452 13864
" />
<path d="M4160 14011
L4330 13499
L4501 14011
" />
</g>
<g style="fill:#000000; fill-opacity:0.0; 
stroke:#000000; stroke-width:39.3701; stroke-opacity:1; 
stroke-linecap:round; stroke-linejoin:round;">
</g>
<g style="fill:#000000; fill-opacity:0.0; 
stroke:#000000; stroke-width:59.0551; stroke-opacity:1; 
stroke-linecap:round; stroke-linejoin:round;">
<text x="4330.71" y="33720.5"
textLength="570.866" font-size="682.415" lengthAdjust="spacingAndGlyphs"
text-anchor="middle" opacity="0">B</text>
<path d="M4367 33428
L4440 33452
L4464 33476
L4489 33525
L4489 33598
L4464 33647
L4440 33671
L4391 33696
L4196 33696
L4196 33184
L4367 33184
L4416 33208
L4440 33233
L4464 33281
L4464 33330
L4440 33379
L4416 33403
L4367 33428
L4196 33428
" />
</g>
<g style="fill:#000000; fill-opacity:0.0; 
stroke:#000000; stroke-width:39.3701; stroke-opacity:1; 
stroke-linecap:round; stroke-linejoin:round;">
</g>
<g style="fill:#000000; fill-opacity:0.0; 
stroke:#000000; stroke-width:59.0551; stroke-opacity:1; 
stroke-linecap:round; stroke-linejoin:round;">
<text x="4330.71" y="53405.5"
textLength="570.866" font-size="682.415" lengthAdjust="spacingAndGlyphs"
text-anchor="middle" opacity="0">C</text>
<path d="M4489 53332
L4464 53356
L4391 53381
L4342 53381
L4269 53356
L4221 53308
L4196 53259
L4172 53161
L4172 53088
L4196 52991
L4221 52942
L4269 52893
L4342 52869
L4391 52869
L4464 52893
L4489 52918
" />
</g>
<g style="fill:#000000; fill-opacity:0.0; 
stroke:#000000; stroke-width:39.3701; stroke-opacity:1; 
stroke-linecap:round; stroke-linejoin:round;">
</g>
<g style="fill:#000000; fill-opacity:0.0; 
stroke:#000000; stroke-width:59.0551; stroke-opacity:1; 
stroke-linecap:round; stroke-linejoin:round;">
<text x="4330.71" y="73090.6"
textLength="570.866" font-size="682.415" lengthAdjust="spacingAndGlyphs"
text-anchor="middle" opacity="0">D</text>
<path d="M4196 73066
L4196 72554
L4318 72554
L4391 72578
L4440 72627
L4464 72676
L4489 72773
L4489 72846
L4464 72944
L4440 72993
L4391 73041
L4318 73066
L4196 73066
" />
</g>
<g style="fill:#000000; fill-opacity:0.0; 
stroke:#000000; stroke-width:39.3701; stroke-opacity:1; 
stroke-linecap:round; stroke-linejoin:round;">
</g>
<g style="fill:#000000; fill-opacity:0.0; 
stroke:#000000; stroke-width:59.0551; stroke-opacity:1; 
stroke-linecap:round; stroke-linejoin:round;">
<path d="M112992 23622
L112205 23622
" />
</g>
<g style="fill:#000000; fill-opacity:0.0; 
stroke:#000000; stroke-width:39.3701; stroke-opacity:1; 
stroke-linecap:round; stroke-linejoin:round;">
</g>
<g style="fill:#000000; fill-opacity:0.0; 
stroke:#000000; stroke-width:59.0551; stroke-opacity:1; 
stroke-linecap:round; stroke-linejoin:round;">
<path d="M112992 43307
L112205 43307
" />
</g>
<g style="fill:#000000; fill-opacity:0.0; 
stroke:#000000; stroke-width:39.3701; stroke-opacity:1; 
stroke-linecap:round; stroke-linejoin:round;">
</g>
<g style="fill:#000000; fill-opacity:0.0; 
stroke:#000000; stroke-width:59.0551; stroke-opacity:1; 
stroke-linecap:round; stroke-linejoin:round;">
<path d="M112992 62992
L112205 62992
" />
</g>
<g style="fill:#000000; fill-opacity:0.0; 
stroke:#000000; stroke-width:39.3701; stroke-opacity:1; 
stroke-linecap:round; stroke-linejoin:round;">
</g>
<g style="fill:#000000; fill-opacity:0.0; 
stroke:#000000; stroke-width:59.0551; stroke-opacity:1; 
stroke-linecap:round; stroke-linejoin:round;">
<text x="112599" y="14035.4"
textLength="497.75" font-size="682.415" lengthAdjust="spacingAndGlyphs"
text-anchor="middle" opacity="0">A</text>
<path d="M112477 13864
L112721 13864
" />
<path d="M112428 14011
L112599 13499
L112769 14011
" />
</g>
<g style="fill:#000000; fill-opacity:0.0; 
stroke:#000000; stroke-width:39.3701; stroke-opacity:1; 
stroke-linecap:round; stroke-linejoin:round;">
</g>
<g style="fill:#000000; fill-opacity:0.0; 
stroke:#000000; stroke-width:59.0551; stroke-opacity:1; 
stroke-linecap:round; stroke-linejoin:round;">
<text x="112599" y="33720.5"
textLength="570.866" font-size="682.415" lengthAdjust="spacingAndGlyphs"
text-anchor="middle" opacity="0">B</text>
<path d="M112635 33428
L112708 33452
L112733 33476
L112757 33525
L112757 33598
L112733 33647
L112708 33671
L112660 33696
L112465 33696
L112465 33184
L112635 33184
L112684 33208
L112708 33233
L112733 33281
L112733 33330
L112708 33379
L112684 33403
L112635 33428
L112465 33428
" />
</g>
<g style="fill:#000000; fill-opacity:0.0; 
stroke:#000000; stroke-width:39.3701; stroke-opacity:1; 
stroke-linecap:round; stroke-linejoin:round;">
</g>
<g style="fill:#000000; fill-opacity:0.0; 
stroke:#000000; stroke-width:59.0551; stroke-opacity:1; 
stroke-linecap:round; stroke-linejoin:round;">
<text x="112599" y="53405.5"
textLength="570.866" font-size="682.415" lengthAdjust="spacingAndGlyphs"
text-anchor="middle" opacity="0">C</text>
<path d="M112757 53332
L112733 53356
L112660 53381
L112611 53381
L112538 53356
L112489 53308
L112465 53259
L112440 53161
L112440 53088
L112465 52991
L112489 52942
L112538 52893
L112611 52869
L112660 52869
L112733 52893
L112757 52918
" />
</g>
<g style="fill:#000000; fill-opacity:0.0; 
stroke:#000000; stroke-width:39.3701; stroke-opacity:1; 
stroke-linecap:round; stroke-linejoin:round;">
</g>
<g style="fill:#000000; fill-opacity:0.0; 
stroke:#000000; stroke-width:59.0551; stroke-opacity:1; 
stroke-linecap:round; stroke-linejoin:round;">
<text x="112599" y="73090.6"
textLength="570.866" font-size="682.415" lengthAdjust="spacingAndGlyphs"
text-anchor="middle" opacity="0">D</text>
<path d="M112465 73066
L112465 72554
L112587 72554
L112660 72578
L112708 72627
L112733 72676
L112757 72773
L112757 72846
L112733 72944
L112708 72993
L112660 73041
L112587 73066
L112465 73066
" />
</g>
<g style="fill:#000000; fill-opacity:0.0; 
stroke:#000000; stroke-width:39.3701; stroke-opacity:1; 
stroke-linecap:round; stroke-linejoin:round;">
</g>
<g style="fill:#000000; fill-opacity:0.0; 
stroke:#000000; stroke-width:59.0551; stroke-opacity:1; 
stroke-linecap:round; stroke-linejoin:round;">
<text x="78741" y="76321.7"
textLength="2758.72" font-size="787.402" lengthAdjust="spacingAndGlyphs"
text-anchor="start" opacity="0">Date: </text>
<path d="M78911 76293
L78911 75703
L79051 75703
L79136 75731
L79192 75787
L79220 75843
L79248 75956
L79248 76040
L79220 76153
L79192 76209
L79136 76265
L79051 76293
L78911 76293
" />
<path d="M79754 76293
L79754 75984
L79726 75928
L79670 75899
L79557 75899
L79501 75928
" />
<path d="M79754 76265
L79698 76293
L79557 76293
L79501 76265
L79473 76209
L79473 76153
L79501 76096
L79557 76068
L79698 76068
L79754 76040
" />
<path d="M79951 75899
L80176 75899
" />
<path d="M80036 75703
L80036 76209
L80064 76265
L80120 76293
L80176 76293
" />
<path d="M80598 76265
L80542 76293
L80429 76293
L80373 76265
L80345 76209
L80345 75984
L80373 75928
L80429 75899
L80542 75899
L80598 75928
L80626 75984
L80626 76040
L80345 76096
" />
<path d="M80879 76237
L80907 76265
L80879 76293
L80851 76265
L80879 76237
L80879 76293
" />
<path d="M80879 75928
L80907 75956
L80879 75984
L80851 75956
L80879 75928
L80879 75984
" />
</g>
<g style="fill:#000000; fill-opacity:0.0; 
stroke:#000000; stroke-width:39.3701; stroke-opacity:1; 
stroke-linecap:round; stroke-linejoin:round;">
</g>
<g style="fill:#000000; fill-opacity:0.0; 
stroke:#000000; stroke-width:59.0551; stroke-opacity:1; 
stroke-linecap:round; stroke-linejoin:round;">
<path d="M69685 76577
L112205 76577
" />
</g>
<g style="fill:#000000; fill-opacity:0.0; 
stroke:#000000; stroke-width:39.3701; stroke-opacity:1; 
stroke-linecap:round; stroke-linejoin:round;">
</g>
<g style="fill:#000000; fill-opacity:0.0; 
stroke:#000000; stroke-width:59.0551; stroke-opacity:1; 
stroke-linecap:round; stroke-linejoin:round;">
<text x="70079.6" y="77424.1"
textLength="13529.2" font-size="787.402" lengthAdjust="spacingAndGlyphs"
text-anchor="start" opacity="0">KiCad E.D.A.  kicad (5.1.5)-3</text>
<path d="M70249 77395
L70249 76805
" />
<path d="M70587 77395
L70334 77058
" />
<path d="M70587 76805
L70249 77142
" />
<path d="M70840 77395
L70840 77002
" />
<path d="M70840 76805
L70812 76833
L70840 76861
L70868 76833
L70840 76805
L70840 76861
" />
<path d="M71458 77339
L71430 77367
L71346 77395
L71290 77395
L71205 77367
L71149 77311
L71121 77255
L71093 77142
L71093 77058
L71121 76946
L71149 76889
L71205 76833
L71290 76805
L71346 76805
L71430 76833
L71458 76861
" />
<path d="M71965 77395
L71965 77086
L71937 77030
L71880 77002
L71768 77002
L71712 77030
" />
<path d="M71965 77367
L71908 77395
L71768 77395
L71712 77367
L71683 77311
L71683 77255
L71712 77199
L71768 77171
L71908 77171
L71965 77142
" />
<path d="M72499 77395
L72499 76805
" />
<path d="M72499 77367
L72443 77395
L72330 77395
L72274 77367
L72246 77339
L72218 77283
L72218 77114
L72246 77058
L72274 77030
L72330 77002
L72443 77002
L72499 77030
" />
<path d="M73230 77086
L73427 77086
" />
<path d="M73511 77395
L73230 77395
L73230 76805
L73511 76805
" />
<path d="M73764 77339
L73793 77367
L73764 77395
L73736 77367
L73764 77339
L73764 77395
" />
<path d="M74046 77395
L74046 76805
L74186 76805
L74271 76833
L74327 76889
L74355 76946
L74383 77058
L74383 77142
L74355 77255
L74327 77311
L74271 77367
L74186 77395
L74046 77395
" />
<path d="M74636 77339
L74664 77367
L74636 77395
L74608 77367
L74636 77339
L74636 77395
" />
<path d="M74889 77227
L75171 77227
" />
<path d="M74833 77395
L75030 76805
L75227 77395
" />
<path d="M75424 77339
L75452 77367
L75424 77395
L75395 77367
L75424 77339
L75424 77395
" />
<path d="M76605 77395
L76605 76805
" />
<path d="M76661 77171
L76830 77395
" />
<path d="M76830 77002
L76605 77227
" />
<path d="M77083 77395
L77083 77002
" />
<path d="M77083 76805
L77055 76833
L77083 76861
L77111 76833
L77083 76805
L77083 76861
" />
<path d="M77617 77367
L77561 77395
L77448 77395
L77392 77367
L77364 77339
L77336 77283
L77336 77114
L77364 77058
L77392 77030
L77448 77002
L77561 77002
L77617 77030
" />
<path d="M78123 77395
L78123 77086
L78095 77030
L78039 77002
L77926 77002
L77870 77030
" />
<path d="M78123 77367
L78067 77395
L77926 77395
L77870 77367
L77842 77311
L77842 77255
L77870 77199
L77926 77171
L78067 77171
L78123 77142
" />
<path d="M78658 77395
L78658 76805
" />
<path d="M78658 77367
L78601 77395
L78489 77395
L78433 77367
L78404 77339
L78376 77283
L78376 77114
L78404 77058
L78433 77030
L78489 77002
L78601 77002
L78658 77030
" />
<path d="M79557 77620
L79529 77592
L79473 77508
L79445 77452
L79417 77367
L79389 77227
L79389 77114
L79417 76974
L79445 76889
L79473 76833
L79529 76749
L79557 76721
" />
<path d="M80064 76805
L79782 76805
L79754 77086
L79782 77058
L79839 77030
L79979 77030
L80036 77058
L80064 77086
L80092 77142
L80092 77283
L80064 77339
L80036 77367
L79979 77395
L79839 77395
L79782 77367
L79754 77339
" />
<path d="M80345 77339
L80373 77367
L80345 77395
L80317 77367
L80345 77339
L80345 77395
" />
<path d="M80935 77395
L80598 77395
" />
<path d="M80767 77395
L80767 76805
L80710 76889
L80654 76946
L80598 76974
" />
<path d="M81188 77339
L81217 77367
L81188 77395
L81160 77367
L81188 77339
L81188 77395
" />
<path d="M81751 76805
L81470 76805
L81442 77086
L81470 77058
L81526 77030
L81667 77030
L81723 77058
L81751 77086
L81779 77142
L81779 77283
L81751 77339
L81723 77367
L81667 77395
L81526 77395
L81470 77367
L81442 77339
" />
<path d="M81976 77620
L82004 77592
L82060 77508
L82088 77452
L82117 77367
L82145 77227
L82145 77114
L82117 76974
L82088 76889
L82060 76833
L82004 76749
L81976 76721
" />
<path d="M82426 77171
L82876 77171
" />
<path d="M83101 76805
L83466 76805
L83269 77030
L83354 77030
L83410 77058
L83438 77086
L83466 77142
L83466 77283
L83438 77339
L83410 77367
L83354 77395
L83185 77395
L83129 77367
L83101 77339
" />
</g>
<g style="fill:#000000; fill-opacity:0.0; 
stroke:#000000; stroke-width:39.3701; stroke-opacity:1; 
stroke-linecap:round; stroke-linejoin:round;">
</g>
<g style="fill:#000000; fill-opacity:0.0; 
stroke:#000000; stroke-width:59.0551; stroke-opacity:1; 
stroke-linecap:round; stroke-linejoin:round;">
<path d="M69685 75396
L112205 75396
" />
</g>
<g style="fill:#000000; fill-opacity:0.0; 
stroke:#000000; stroke-width:39.3701; stroke-opacity:1; 
stroke-linecap:round; stroke-linejoin:round;">
</g>
<g style="fill:#000000; fill-opacity:0.0; 
stroke:#000000; stroke-width:118.11; stroke-opacity:1; 
stroke-linecap:round; stroke-linejoin:round;">
<text x="103544" y="76321.7"
textLength="2336.9" font-size="787.402" lengthAdjust="spacingAndGlyphs"
text-anchor="start" opacity="0">Rev: </text>
<path d="M104099 76293
L103902 76012
" />
<path d="M103761 76293
L103761 75703
L103986 75703
L104042 75731
L104070 75759
L104099 75815
L104099 75899
L104070 75956
L104042 75984
L103986 76012
L103761 76012
" />
<path d="M104577 76265
L104520 76293
L104408 76293
L104352 76265
L104323 76209
L104323 75984
L104352 75928
L104408 75899
L104520 75899
L104577 75928
L104605 75984
L104605 76040
L104323 76096
" />
<path d="M104802 75899
L104942 76293
L105083 75899
" />
<path d="M105308 76237
L105336 76265
L105308 76293
L105280 76265
L105308 76237
L105308 76293
" />
<path d="M105308 75928
L105336 75956
L105308 75984
L105280 75956
L105308 75928
L105308 75984
" />
</g>
<g style="fill:#000000; fill-opacity:0.0; 
stroke:#000000; stroke-width:39.3701; stroke-opacity:1; 
stroke-linecap:round; stroke-linejoin:round;">
</g>
<g style="fill:#000000; fill-opacity:0.0; 
stroke:#000000; stroke-width:59.0551; stroke-opacity:1; 
stroke-linecap:round; stroke-linejoin:round;">
<text x="70079.6" y="76321.7"
textLength="3781.21" font-size="787.402" lengthAdjust="spacingAndGlyphs"
text-anchor="start" opacity="0">Size: A4</text>
<path d="M70221 76265
L70305 76293
L70446 76293
L70502 76265
L70530 76237
L70559 76181
L70559 76124
L70530 76068
L70502 76040
L70446 76012
L70334 75984
L70277 75956
L70249 75928
L70221 75871
L70221 75815
L70249 75759
L70277 75731
L70334 75703
L70474 75703
L70559 75731
" />
<path d="M70812 76293
L70812 75899
" />
<path d="M70812 75703
L70784 75731
L70812 75759
L70840 75731
L70812 75703
L70812 75759
" />
<path d="M71037 75899
L71346 75899
L71037 76293
L71346 76293
" />
<path d="M71796 76265
L71740 76293
L71627 76293
L71571 76265
L71543 76209
L71543 75984
L71571 75928
L71627 75899
L71740 75899
L71796 75928
L71824 75984
L71824 76040
L71543 76096
" />
<path d="M72077 76237
L72105 76265
L72077 76293
L72049 76265
L72077 76237
L72077 76293
" />
<path d="M72077 75928
L72105 75956
L72077 75984
L72049 75956
L72077 75928
L72077 75984
" />
<path d="M72780 76124
L73061 76124
" />
<path d="M72724 76293
L72921 75703
L73118 76293
" />
<path d="M73568 75899
L73568 76293
" />
<path d="M73427 75674
L73286 76096
L73652 76096
" />
</g>
<g style="fill:#000000; fill-opacity:0.0; 
stroke:#000000; stroke-width:39.3701; stroke-opacity:1; 
stroke-linecap:round; stroke-linejoin:round;">
</g>
<g style="fill:#000000; fill-opacity:0.0; 
stroke:#000000; stroke-width:59.0551; stroke-opacity:1; 
stroke-linecap:round; stroke-linejoin:round;">
<text x="103544" y="77424.1"
textLength="3349.27" font-size="787.402" lengthAdjust="spacingAndGlyphs"
text-anchor="start" opacity="0">Id: 1/1</text>
<path d="M103714 77395
L103714 76805
" />
<path d="M104248 77395
L104248 76805
" />
<path d="M104248 77367
L104192 77395
L104079 77395
L104023 77367
L103995 77339
L103967 77283
L103967 77114
L103995 77058
L104023 77030
L104079 77002
L104192 77002
L104248 77030
" />
<path d="M104529 77339
L104557 77367
L104529 77395
L104501 77367
L104529 77339
L104529 77395
" />
<path d="M104529 77030
L104557 77058
L104529 77086
L104501 77058
L104529 77030
L104529 77086
" />
<path d="M105570 77395
L105232 77395
" />
<path d="M105401 77395
L105401 76805
L105345 76889
L105289 76946
L105232 76974
" />
<path d="M106245 76777
L105739 77536
" />
<path d="M106751 77395
L106413 77395
" />
<path d="M106582 77395
L106582 76805
L106526 76889
L106470 76946
L106413 76974
" />
</g>
<g style="fill:#000000; fill-opacity:0.0; 
stroke:#000000; stroke-width:39.3701; stroke-opacity:1; 
stroke-linecap:round; stroke-linejoin:round;">
</g>
<g style="fill:#000000; fill-opacity:0.0; 
stroke:#000000; stroke-width:59.0551; stroke-opacity:1; 
stroke-linecap:round; stroke-linejoin:round;">
<path d="M69685 73821
L112205 73821
" />
</g>
<g style="fill:#000000; fill-opacity:0.0; 
stroke:#000000; stroke-width:39.3701; stroke-opacity:1; 
stroke-linecap:round; stroke-linejoin:round;">
</g>
<g style="fill:#000000; fill-opacity:0.0; 
stroke:#000000; stroke-width:157.48; stroke-opacity:1; 
stroke-linecap:round; stroke-linejoin:round;">
<text x="70079.6" y="74924.1"
textLength="3701.14" font-size="1049.87" lengthAdjust="spacingAndGlyphs"
text-anchor="start" opacity="0">Title: </text>
<path d="M70360 74099
L70810 74099
" />
<path d="M70486 74886
L70585 74099
" />
<path d="M70974 74886
L71039 74361
" />
<path d="M71072 74099
L71030 74136
L71063 74174
L71105 74136
L71072 74099
L71063 74174
" />
<path d="M71302 74361
L71602 74361
" />
<path d="M71447 74099
L71363 74774
L71391 74849
L71461 74886
L71536 74886
" />
<path d="M71911 74886
L71841 74849
L71813 74774
L71897 74099
" />
<path d="M72516 74849
L72436 74886
L72286 74886
L72216 74849
L72187 74774
L72225 74474
L72272 74399
L72352 74361
L72501 74361
L72572 74399
L72600 74474
L72591 74549
L72206 74624
" />
<path d="M72895 74811
L72928 74849
L72886 74886
L72853 74849
L72895 74811
L72886 74886
" />
<path d="M72947 74399
L72980 74436
L72937 74474
L72905 74436
L72947 74399
L72937 74474
" />
</g>
<g style="fill:#000000; fill-opacity:0.0; 
stroke:#000000; stroke-width:39.3701; stroke-opacity:1; 
stroke-linecap:round; stroke-linejoin:round;">
</g>
<g style="fill:#000000; fill-opacity:0.0; 
stroke:#000000; stroke-width:59.0551; stroke-opacity:1; 
stroke-linecap:round; stroke-linejoin:round;">
<text x="70079.6" y="73408.3"
textLength="11200.2" font-size="787.402" lengthAdjust="spacingAndGlyphs"
text-anchor="start" opacity="0">File: FAL6567i.kicad_pcb</text>
<path d="M70446 73070
L70249 73070
" />
<path d="M70249 73380
L70249 72789
L70530 72789
" />
<path d="M70755 73380
L70755 72986
" />
<path d="M70755 72789
L70727 72817
L70755 72845
L70784 72817
L70755 72789
L70755 72845
" />
<path d="M71121 73380
L71065 73352
L71037 73295
L71037 72789
" />
<path d="M71571 73352
L71515 73380
L71402 73380
L71346 73352
L71318 73295
L71318 73070
L71346 73014
L71402 72986
L71515 72986
L71571 73014
L71599 73070
L71599 73127
L71318 73183
" />
<path d="M71852 73323
L71880 73352
L71852 73380
L71824 73352
L71852 73323
L71852 73380
" />
<path d="M71852 73014
L71880 73042
L71852 73070
L71824 73042
L71852 73014
L71852 73070
" />
<path d="M72780 73070
L72583 73070
" />
<path d="M72583 73380
L72583 72789
L72865 72789
" />
<path d="M73061 73211
L73343 73211
" />
<path d="M73005 73380
L73202 72789
L73399 73380
" />
<path d="M73877 73380
L73596 73380
L73596 72789
" />
<path d="M74327 72789
L74214 72789
L74158 72817
L74130 72845
L74074 72930
L74046 73042
L74046 73267
L74074 73323
L74102 73352
L74158 73380
L74271 73380
L74327 73352
L74355 73323
L74383 73267
L74383 73127
L74355 73070
L74327 73042
L74271 73014
L74158 73014
L74102 73042
L74074 73070
L74046 73127
" />
<path d="M74917 72789
L74636 72789
L74608 73070
L74636 73042
L74692 73014
L74833 73014
L74889 73042
L74917 73070
L74946 73127
L74946 73267
L74917 73323
L74889 73352
L74833 73380
L74692 73380
L74636 73352
L74608 73323
" />
<path d="M75452 72789
L75339 72789
L75283 72817
L75255 72845
L75199 72930
L75171 73042
L75171 73267
L75199 73323
L75227 73352
L75283 73380
L75395 73380
L75452 73352
L75480 73323
L75508 73267
L75508 73127
L75480 73070
L75452 73042
L75395 73014
L75283 73014
L75227 73042
L75199 73070
L75171 73127
" />
<path d="M75705 72789
L76099 72789
L75845 73380
" />
<path d="M76323 73380
L76323 72986
" />
<path d="M76323 72789
L76295 72817
L76323 72845
L76352 72817
L76323 72789
L76323 72845
" />
<path d="M76605 73323
L76633 73352
L76605 73380
L76577 73352
L76605 73323
L76605 73380
" />
<path d="M76886 73380
L76886 72789
" />
<path d="M76942 73155
L77111 73380
" />
<path d="M77111 72986
L76886 73211
" />
<path d="M77364 73380
L77364 72986
" />
<path d="M77364 72789
L77336 72817
L77364 72845
L77392 72817
L77364 72789
L77364 72845
" />
<path d="M77898 73352
L77842 73380
L77730 73380
L77673 73352
L77645 73323
L77617 73267
L77617 73099
L77645 73042
L77673 73014
L77730 72986
L77842 72986
L77898 73014
" />
<path d="M78404 73380
L78404 73070
L78376 73014
L78320 72986
L78208 72986
L78151 73014
" />
<path d="M78404 73352
L78348 73380
L78208 73380
L78151 73352
L78123 73295
L78123 73239
L78151 73183
L78208 73155
L78348 73155
L78404 73127
" />
<path d="M78939 73380
L78939 72789
" />
<path d="M78939 73352
L78883 73380
L78770 73380
L78714 73352
L78686 73323
L78658 73267
L78658 73099
L78686 73042
L78714 73014
L78770 72986
L78883 72986
L78939 73014
" />
<path d="M79079 73436
L79529 73436
" />
<path d="M79670 72986
L79670 73577
" />
<path d="M79670 73014
L79726 72986
L79839 72986
L79895 73014
L79923 73042
L79951 73099
L79951 73267
L79923 73323
L79895 73352
L79839 73380
L79726 73380
L79670 73352
" />
<path d="M80457 73352
L80401 73380
L80289 73380
L80232 73352
L80204 73323
L80176 73267
L80176 73099
L80204 73042
L80232 73014
L80289 72986
L80401 72986
L80457 73014
" />
<path d="M80710 73380
L80710 72789
" />
<path d="M80710 73014
L80767 72986
L80879 72986
L80935 73014
L80964 73042
L80992 73099
L80992 73267
L80964 73323
L80935 73352
L80879 73380
L80767 73380
L80710 73352
" />
</g>
<g style="fill:#000000; fill-opacity:0.0; 
stroke:#000000; stroke-width:39.3701; stroke-opacity:1; 
stroke-linecap:round; stroke-linejoin:round;">
</g>
<g style="fill:#000000; fill-opacity:0.0; 
stroke:#000000; stroke-width:59.0551; stroke-opacity:1; 
stroke-linecap:round; stroke-linejoin:round;">
<path d="M69685 71459
L112205 71459
" />
</g>
<g style="fill:#000000; fill-opacity:0.0; 
stroke:#000000; stroke-width:39.3701; stroke-opacity:1; 
stroke-linecap:round; stroke-linejoin:round;">
</g>
<g style="fill:#000000; fill-opacity:0.0; 
stroke:#000000; stroke-width:59.0551; stroke-opacity:1; 
stroke-linecap:round; stroke-linejoin:round;">
<text x="70079.6" y="72345.4"
textLength="3236.78" font-size="787.402" lengthAdjust="spacingAndGlyphs"
text-anchor="start" opacity="0">Sheet: </text>
<path d="M70221 72289
L70305 72317
L70446 72317
L70502 72289
L70530 72260
L70559 72204
L70559 72148
L70530 72092
L70502 72064
L70446 72036
L70334 72007
L70277 71979
L70249 71951
L70221 71895
L70221 71839
L70249 71782
L70277 71754
L70334 71726
L70474 71726
L70559 71754
" />
<path d="M70812 72317
L70812 71726
" />
<path d="M71065 72317
L71065 72007
L71037 71951
L70980 71923
L70896 71923
L70840 71951
L70812 71979
" />
<path d="M71571 72289
L71515 72317
L71402 72317
L71346 72289
L71318 72232
L71318 72007
L71346 71951
L71402 71923
L71515 71923
L71571 71951
L71599 72007
L71599 72064
L71318 72120
" />
<path d="M72077 72289
L72021 72317
L71908 72317
L71852 72289
L71824 72232
L71824 72007
L71852 71951
L71908 71923
L72021 71923
L72077 71951
L72105 72007
L72105 72064
L71824 72120
" />
<path d="M72274 71923
L72499 71923
" />
<path d="M72358 71726
L72358 72232
L72386 72289
L72443 72317
L72499 72317
" />
<path d="M72696 72260
L72724 72289
L72696 72317
L72668 72289
L72696 72260
L72696 72317
" />
<path d="M72696 71951
L72724 71979
L72696 72007
L72668 71979
L72696 71951
L72696 72007
" />
</g>
<g style="fill:#000000; fill-opacity:0.0; 
stroke:#000000; stroke-width:39.3701; stroke-opacity:1; 
stroke-linecap:round; stroke-linejoin:round;">
</g>
<g style="fill:#000000; fill-opacity:0.0; 
stroke:#000000; stroke-width:59.0551; stroke-opacity:1; 
stroke-linecap:round; stroke-linejoin:round;">
<path d="M77559 75396
L77559 76577
" />
</g>
<g style="fill:#000000; fill-opacity:0.0; 
stroke:#000000; stroke-width:39.3701; stroke-opacity:1; 
stroke-linecap:round; stroke-linejoin:round;">
</g>
<g style="fill:#000000; fill-opacity:0.0; 
stroke:#000000; stroke-width:59.0551; stroke-opacity:1; 
stroke-linecap:round; stroke-linejoin:round;">
<path d="M102756 75396
L102756 77955
" />
</g>
<g style="fill:#848484; fill-opacity:0.0; 
stroke:#848484; stroke-width:59.0551; stroke-opacity:1; 
stroke-linecap:round; stroke-linejoin:round;">
</g>
<g style="fill:#848484; fill-opacity:1.0; 
stroke:#848484; stroke-width:0; stroke-opacity:1; 
stroke-linecap:round; stroke-linejoin:round;">
<path style="fill:#848484; fill-opacity:1.0; 
stroke:#848484; stroke-width:0; stroke-opacity:1; 
stroke-linecap:round; stroke-linejoin:round;fill-rule:evenodd;"
d="M 56250,26550
56750,26550
56750,24550
56250,24550
" /> 
<path style="fill:#848484; fill-opacity:1.0; 
stroke:#848484; stroke-width:0; stroke-opacity:1; 
stroke-linecap:round; stroke-linejoin:round;fill-rule:evenodd;"
d="M 55250,26550
55750,26550
55750,24550
55250,24550
" /> 
<path style="fill:#848484; fill-opacity:1.0; 
stroke:#848484; stroke-width:0; stroke-opacity:1; 
stroke-linecap:round; stroke-linejoin:round;fill-rule:evenodd;"
d="M 54250,26550
54750,26550
54750,24550
54250,24550
" /> 
</g>
<g style="fill:#848484; fill-opacity:1.0; 
stroke:#848484; stroke-width:39.3701; stroke-opacity:1; 
stroke-linecap:round; stroke-linejoin:round;">
</g>
<g style="fill:#848484; fill-opacity:0.0; 
stroke:#848484; stroke-width:39.3701; stroke-opacity:1; 
stroke-linecap:round; stroke-linejoin:round;">
<path d="M37350 47593
L37743 47200
" />
<path d="M37350 57200
L37350 47593
" />
<path d="M39850 57200
L37350 57200
" />
<path d="M39850 47200
L39850 57200
" />
<path d="M37743 47200
L39850 47200
" />
<path d="M44850 34893
L45243 34500
" />
<path d="M44850 44500
L44850 34893
" />
<path d="M47350 44500
L44850 44500
" />
<path d="M47350 34500
L47350 44500
" />
<path d="M45243 34500
L47350 34500
" />
<path d="M37250 34793
L37643 34400
" />
<path d="M37250 44400
L37250 34793
" />
<path d="M39750 44400
L37250 44400
" />
<path d="M39750 34400
L39750 44400
" />
<path d="M37643 34400
L39750 34400
" />
<path d="M44950 47693
L45343 47300
" />
<path d="M44950 57300
L44950 47693
" />
<path d="M47450 57300
L44950 57300
" />
<path d="M47450 47300
L47450 57300
" />
<path d="M45343 47300
L47450 47300
" />
<path d="M60462 27720
L57706 27720
" />
<path d="M60462 30279
L60462 27720
" />
<path d="M57706 30279
L60462 30279
" />
<path d="M57706 27720
L57706 30279
" />
<path d="M56262 29120
L53506 29120
" />
<path d="M56262 31679
L56262 29120
" />
<path d="M53506 31679
L56262 31679
" />
<path d="M53506 29120
L53506 31679
" />
<path d="M54850 56093
L55243 55700
" />
<path d="M54850 65700
L54850 56093
" />
<path d="M57350 65700
L54850 65700
" />
<path d="M57350 55700
L57350 65700
" />
<path d="M55243 55700
L57350 55700
" />
<path d="M31750 60593
L32143 60200
" />
<path d="M31750 67200
L31750 60593
" />
<path d="M34250 67200
L31750 67200
" />
<path d="M34250 60200
L34250 67200
" />
<path d="M32143 60200
L34250 60200
" />
<path d="M24100 15493
L24494 15100
" />
<path d="M24100 31100
L24100 15493
" />
<path d="M29899 31100
L24100 31100
" />
<path d="M29899 15100
L29899 31100
" />
<path d="M24494 15100
L29899 15100
" />
</g>
<g style="fill:#848484; fill-opacity:0.0; 
stroke:#848484; stroke-width:200; stroke-opacity:1; 
stroke-linecap:round; stroke-linejoin:round;">
<path d="M49000 42800
L49350 42800
" />
<path d="M52000 42800
L51650 42800
" />
<path d="M29100 63900
L29100 63550
" />
<path d="M29100 60900
L29100 61250
" />
<path d="M49100 40900
L49450 40900
" />
<path d="M52100 40900
L51750 40900
" />
<path d="M52100 38100
L51750 38100
" />
<path d="M49100 38100
L49450 38100
" />
<path d="M49100 36400
L49450 36400
" />
<path d="M52100 36400
L51750 36400
" />
<path d="M43500 29400
L43850 29400
" />
<path d="M46500 29400
L46150 29400
" />
<path d="M32700 28600
L33050 28600
" />
<path d="M35700 28600
L35350 28600
" />
<path d="M32800 25300
L33150 25300
" />
<path d="M35800 25300
L35450 25300
" />
<path d="M32800 23000
L33150 23000
" />
<path d="M35800 23000
L35450 23000
" />
<path d="M38200 32800
L38550 32800
" />
<path d="M41200 32800
L40850 32800
" />
<path d="M26100 65600
L26450 65600
" />
<path d="M29100 65600
L28750 65600
" />
<path d="M45400 26600
L45750 26600
" />
<path d="M48400 26600
L48050 26600
" />
<path d="M45400 25600
L45750 25600
" />
<path d="M48400 25600
L48050 25600
" />
</g>
<g style="fill:#848484; fill-opacity:1.0; 
stroke:#848484; stroke-width:0; stroke-opacity:1; 
stroke-linecap:round; stroke-linejoin:round;">
<path style="fill:#848484; fill-opacity:1.0; 
stroke:#848484; stroke-width:0; stroke-opacity:1; 
stroke-linecap:round; stroke-linejoin:round;fill-rule:evenodd;"
d="M 49980,31320
50220,31320
50220,31080
49980,31080
" /> 
<path style="fill:#848484; fill-opacity:1.0; 
stroke:#848484; stroke-width:0; stroke-opacity:1; 
stroke-linecap:round; stroke-linejoin:round;fill-rule:evenodd;"
d="M 48980,31320
49220,31320
49220,31080
48980,31080
" /> 
<path style="fill:#848484; fill-opacity:1.0; 
stroke:#848484; stroke-width:0; stroke-opacity:1; 
stroke-linecap:round; stroke-linejoin:round;fill-rule:evenodd;"
d="M 47980,31320
48220,31320
48220,31080
47980,31080
" /> 
<path style="fill:#848484; fill-opacity:1.0; 
stroke:#848484; stroke-width:0; stroke-opacity:1; 
stroke-linecap:round; stroke-linejoin:round;fill-rule:evenodd;"
d="M 49980,30320
50220,30320
50220,30080
49980,30080
" /> 
<path style="fill:#848484; fill-opacity:1.0; 
stroke:#848484; stroke-width:0; stroke-opacity:1; 
stroke-linecap:round; stroke-linejoin:round;fill-rule:evenodd;"
d="M 48980,30320
49220,30320
49220,30080
48980,30080
" /> 
<path style="fill:#848484; fill-opacity:1.0; 
stroke:#848484; stroke-width:0; stroke-opacity:1; 
stroke-linecap:round; stroke-linejoin:round;fill-rule:evenodd;"
d="M 47980,30320
48220,30320
48220,30080
47980,30080
" /> 
<path style="fill:#848484; fill-opacity:1.0; 
stroke:#848484; stroke-width:0; stroke-opacity:1; 
stroke-linecap:round; stroke-linejoin:round;fill-rule:evenodd;"
d="M 38080,64820
38320,64820
38320,64580
38080,64580
" /> 
<path style="fill:#848484; fill-opacity:1.0; 
stroke:#848484; stroke-width:0; stroke-opacity:1; 
stroke-linecap:round; stroke-linejoin:round;fill-rule:evenodd;"
d="M 38080,63820
38320,63820
38320,63580
38080,63580
" /> 
</g>
<g style="fill:#848484; fill-opacity:1.0; 
stroke:#848484; stroke-width:39.3701; stroke-opacity:1; 
stroke-linecap:round; stroke-linejoin:round;">
</g>
<g style="fill:#848484; fill-opacity:0.0; 
stroke:#848484; stroke-width:39.3701; stroke-opacity:1; 
stroke-linecap:round; stroke-linejoin:round;">
<path d="M38550 21493
L38943 21100
" />
<path d="M38550 31100
L38550 21493
" />
<path d="M41050 31100
L38550 31100
" />
<path d="M41050 21100
L41050 31100
" />
<path d="M38943 21100
L41050 21100
" />
</g>
<g style="fill:#848484; fill-opacity:0.0; 
stroke:#848484; stroke-width:300; stroke-opacity:1; 
stroke-linecap:round; stroke-linejoin:round;">
<path d="M25500 58700
L25900 58700
" />
<path d="M29500 58700
L29100 58700
" />
<path d="M36900 31700
L36500 31700
" />
<path d="M32900 31700
L33300 31700
" />
</g>
<g style="fill:#848484; fill-opacity:1.0; 
stroke:#848484; stroke-width:0; stroke-opacity:1; 
stroke-linecap:round; stroke-linejoin:round;">
<path style="fill:#848484; fill-opacity:1.0; 
stroke:#848484; stroke-width:0; stroke-opacity:1; 
stroke-linecap:round; stroke-linejoin:round;fill-rule:evenodd;"
d="M 45300,33450
45450,33450
45450,33150
45300,33150
" /> 
<path style="fill:#848484; fill-opacity:1.0; 
stroke:#848484; stroke-width:0; stroke-opacity:1; 
stroke-linecap:round; stroke-linejoin:round;fill-rule:evenodd;"
d="M 47150,33450
47300,33450
47300,33150
47150,33150
" /> 
</g>
<g style="fill:#848484; fill-opacity:1.0; 
stroke:#848484; stroke-width:60; stroke-opacity:1; 
stroke-linecap:round; stroke-linejoin:round;">
</g>
<g style="fill:#848484; fill-opacity:0.0; 
stroke:#848484; stroke-width:60; stroke-opacity:1; 
stroke-linecap:round; stroke-linejoin:round;">
<path d="M47150 33550
L47150 33050
" />
<path d="M45450 33550
L45450 33050
" />
</g>
<g style="fill:#848484; fill-opacity:1.0; 
stroke:#848484; stroke-width:0; stroke-opacity:1; 
stroke-linecap:round; stroke-linejoin:round;">
<path style="fill:#848484; fill-opacity:1.0; 
stroke:#848484; stroke-width:0; stroke-opacity:1; 
stroke-linecap:round; stroke-linejoin:round;fill-rule:evenodd;"
d="M 26100,33050
26250,33050
26250,32750
26100,32750
" /> 
<path style="fill:#848484; fill-opacity:1.0; 
stroke:#848484; stroke-width:0; stroke-opacity:1; 
stroke-linecap:round; stroke-linejoin:round;fill-rule:evenodd;"
d="M 27950,33050
28100,33050
28100,32750
27950,32750
" /> 
</g>
<g style="fill:#848484; fill-opacity:1.0; 
stroke:#848484; stroke-width:60; stroke-opacity:1; 
stroke-linecap:round; stroke-linejoin:round;">
</g>
<g style="fill:#848484; fill-opacity:0.0; 
stroke:#848484; stroke-width:60; stroke-opacity:1; 
stroke-linecap:round; stroke-linejoin:round;">
<path d="M27950 33150
L27950 32650
" />
<path d="M26250 33150
L26250 32650
" />
</g>
<g style="fill:#848484; fill-opacity:1.0; 
stroke:#848484; stroke-width:0; stroke-opacity:1; 
stroke-linecap:round; stroke-linejoin:round;">
<path style="fill:#848484; fill-opacity:1.0; 
stroke:#848484; stroke-width:0; stroke-opacity:1; 
stroke-linecap:round; stroke-linejoin:round;fill-rule:evenodd;"
d="M 32200,69250
32350,69250
32350,68950
32200,68950
" /> 
<path style="fill:#848484; fill-opacity:1.0; 
stroke:#848484; stroke-width:0; stroke-opacity:1; 
stroke-linecap:round; stroke-linejoin:round;fill-rule:evenodd;"
d="M 34050,69250
34200,69250
34200,68950
34050,68950
" /> 
</g>
<g style="fill:#848484; fill-opacity:1.0; 
stroke:#848484; stroke-width:60; stroke-opacity:1; 
stroke-linecap:round; stroke-linejoin:round;">
</g>
<g style="fill:#848484; fill-opacity:0.0; 
stroke:#848484; stroke-width:60; stroke-opacity:1; 
stroke-linecap:round; stroke-linejoin:round;">
<path d="M34050 69350
L34050 68850
" />
<path d="M32350 69350
L32350 68850
" />
</g>
<g style="fill:#848484; fill-opacity:1.0; 
stroke:#848484; stroke-width:0; stroke-opacity:1; 
stroke-linecap:round; stroke-linejoin:round;">
<path style="fill:#848484; fill-opacity:1.0; 
stroke:#848484; stroke-width:0; stroke-opacity:1; 
stroke-linecap:round; stroke-linejoin:round;fill-rule:evenodd;"
d="M 49600,45250
49750,45250
49750,44950
49600,44950
" /> 
<path style="fill:#848484; fill-opacity:1.0; 
stroke:#848484; stroke-width:0; stroke-opacity:1; 
stroke-linecap:round; stroke-linejoin:round;fill-rule:evenodd;"
d="M 51450,45250
51600,45250
51600,44950
51450,44950
" /> 
</g>
<g style="fill:#848484; fill-opacity:1.0; 
stroke:#848484; stroke-width:60; stroke-opacity:1; 
stroke-linecap:round; stroke-linejoin:round;">
</g>
<g style="fill:#848484; fill-opacity:0.0; 
stroke:#848484; stroke-width:60; stroke-opacity:1; 
stroke-linecap:round; stroke-linejoin:round;">
<path d="M51450 45350
L51450 44850
" />
<path d="M49750 45350
L49750 44850
" />
</g>
<g style="fill:#848484; fill-opacity:1.0; 
stroke:#848484; stroke-width:0; stroke-opacity:1; 
stroke-linecap:round; stroke-linejoin:round;">
<path style="fill:#848484; fill-opacity:1.0; 
stroke:#848484; stroke-width:0; stroke-opacity:1; 
stroke-linecap:round; stroke-linejoin:round;fill-rule:evenodd;"
d="M 46500,60750
46650,60750
46650,60450
46500,60450
" /> 
<path style="fill:#848484; fill-opacity:1.0; 
stroke:#848484; stroke-width:0; stroke-opacity:1; 
stroke-linecap:round; stroke-linejoin:round;fill-rule:evenodd;"
d="M 48350,60750
48500,60750
48500,60450
48350,60450
" /> 
</g>
<g style="fill:#848484; fill-opacity:1.0; 
stroke:#848484; stroke-width:60; stroke-opacity:1; 
stroke-linecap:round; stroke-linejoin:round;">
</g>
<g style="fill:#848484; fill-opacity:0.0; 
stroke:#848484; stroke-width:60; stroke-opacity:1; 
stroke-linecap:round; stroke-linejoin:round;">
<path d="M48350 60850
L48350 60350
" />
<path d="M46650 60850
L46650 60350
" />
</g>
<g style="fill:#848484; fill-opacity:1.0; 
stroke:#848484; stroke-width:0; stroke-opacity:1; 
stroke-linecap:round; stroke-linejoin:round;">
<path style="fill:#848484; fill-opacity:1.0; 
stroke:#848484; stroke-width:0; stroke-opacity:1; 
stroke-linecap:round; stroke-linejoin:round;fill-rule:evenodd;"
d="M 43200,45650
43050,45650
43050,45950
43200,45950
" /> 
<path style="fill:#848484; fill-opacity:1.0; 
stroke:#848484; stroke-width:0; stroke-opacity:1; 
stroke-linecap:round; stroke-linejoin:round;fill-rule:evenodd;"
d="M 41350,45650
41200,45650
41200,45950
41350,45950
" /> 
</g>
<g style="fill:#848484; fill-opacity:1.0; 
stroke:#848484; stroke-width:60; stroke-opacity:1; 
stroke-linecap:round; stroke-linejoin:round;">
</g>
<g style="fill:#848484; fill-opacity:0.0; 
stroke:#848484; stroke-width:60; stroke-opacity:1; 
stroke-linecap:round; stroke-linejoin:round;">
<path d="M41350 45550
L41350 46050
" />
<path d="M43050 45550
L43050 46050
" />
</g>
<g style="fill:#848484; fill-opacity:1.0; 
stroke:#848484; stroke-width:0; stroke-opacity:1; 
stroke-linecap:round; stroke-linejoin:round;">
<path style="fill:#848484; fill-opacity:1.0; 
stroke:#848484; stroke-width:0; stroke-opacity:1; 
stroke-linecap:round; stroke-linejoin:round;fill-rule:evenodd;"
d="M 33200,20750
33350,20750
33350,20450
33200,20450
" /> 
<path style="fill:#848484; fill-opacity:1.0; 
stroke:#848484; stroke-width:0; stroke-opacity:1; 
stroke-linecap:round; stroke-linejoin:round;fill-rule:evenodd;"
d="M 35050,20750
35200,20750
35200,20450
35050,20450
" /> 
</g>
<g style="fill:#848484; fill-opacity:1.0; 
stroke:#848484; stroke-width:60; stroke-opacity:1; 
stroke-linecap:round; stroke-linejoin:round;">
</g>
<g style="fill:#848484; fill-opacity:0.0; 
stroke:#848484; stroke-width:60; stroke-opacity:1; 
stroke-linecap:round; stroke-linejoin:round;">
<path d="M35050 20850
L35050 20350
" />
<path d="M33350 20850
L33350 20350
" />
<g >
</g>
<g >
</g>
<g >
</g>
<g >
</g>
<g >
</g>
<g >
</g>
<g >
</g>
<g >
</g>
<g >
</g>
<g >
</g>
<g >
</g>
<g >
</g>
<g >
</g>
<g >
</g>
<g >
</g>
<g >
</g>
<g >
</g>
<g >
</g>
<g >
</g>
<g >
</g>
<g >
</g>
<g >
</g>
<g >
</g>
<g >
</g>
<g >
</g>
<g >
</g>
<g >
</g>
<g >
</g>
<g >
</g>
<g >
</g>
<g >
</g>
<g >
</g>
<g >
</g>
<g >
</g>
<g >
</g>
<g >
</g>
<g >
</g>
</g>
<g style="fill:#848484; fill-opacity:0.0; 
stroke:#848484; stroke-width:60; stroke-opacity:1; 
stroke-linecap:round; stroke-linejoin:round;">
</g>
<g style="fill:#848484; fill-opacity:0.0; 
stroke:#848484; stroke-width:50; stroke-opacity:1; 
stroke-linecap:round; stroke-linejoin:round;">
<text x="54500" y="23300"
textLength="3655.48" font-size="633.333" lengthAdjust="spacingAndGlyphs"
text-anchor="start" opacity="0">REG1117F</text>
<path d="M54917 23277
L54758 23051
" />
<path d="M54645 23277
L54645 22802
L54826 22802
L54871 22825
L54894 22847
L54917 22892
L54917 22960
L54894 23005
L54871 23028
L54826 23051
L54645 23051
" />
<path d="M55120 23028
L55278 23028
" />
<path d="M55346 23277
L55120 23277
L55120 22802
L55346 22802
" />
<path d="M55799 22825
L55753 22802
L55686 22802
L55618 22825
L55572 22870
L55550 22915
L55527 23005
L55527 23073
L55550 23164
L55572 23209
L55618 23254
L55686 23277
L55731 23277
L55799 23254
L55821 23232
L55821 23073
L55731 23073
" />
<path d="M56274 23277
L56002 23277
" />
<path d="M56138 23277
L56138 22802
L56093 22870
L56047 22915
L56002 22938
" />
<path d="M56726 23277
L56455 23277
" />
<path d="M56590 23277
L56590 22802
L56545 22870
L56500 22915
L56455 22938
" />
<path d="M57178 23277
L56907 23277
" />
<path d="M57043 23277
L57043 22802
L56997 22870
L56952 22915
L56907 22938
" />
<path d="M57337 22802
L57653 22802
L57450 23277
" />
<path d="M57993 23028
L57834 23028
" />
<path d="M57834 23277
L57834 22802
L58061 22802
" />
</g>
<g style="fill:#848484; fill-opacity:0.0; 
stroke:#848484; stroke-width:59.0551; stroke-opacity:1; 
stroke-linecap:round; stroke-linejoin:round;">
<text x="38600" y="57814.2"
textLength="2989.63" font-size="524.934" lengthAdjust="spacingAndGlyphs"
text-anchor="middle" opacity="0">74LVC245</text>
<path d="M37193 57401
L37456 57401
L37287 57795
" />
<path d="M37775 57532
L37775 57795
" />
<path d="M37681 57382
L37587 57664
L37831 57664
" />
<path d="M38168 57795
L37981 57795
L37981 57401
" />
<path d="M38243 57401
L38375 57795
L38506 57401
" />
<path d="M38862 57757
L38843 57776
L38787 57795
L38749 57795
L38693 57776
L38656 57739
L38637 57701
L38618 57626
L38618 57570
L38637 57495
L38656 57457
L38693 57420
L38749 57401
L38787 57401
L38843 57420
L38862 57439
" />
<path d="M39012 57439
L39031 57420
L39068 57401
L39162 57401
L39199 57420
L39218 57439
L39237 57476
L39237 57514
L39218 57570
L38993 57795
L39237 57795
" />
<path d="M39574 57532
L39574 57795
" />
<path d="M39481 57382
L39387 57664
L39631 57664
" />
<path d="M39968 57401
L39781 57401
L39762 57589
L39781 57570
L39818 57551
L39912 57551
L39949 57570
L39968 57589
L39987 57626
L39987 57720
L39968 57757
L39949 57776
L39912 57795
L39818 57795
L39781 57776
L39762 57757
" />
<text x="38600" y="52396.9"
textLength="1032.9" font-size="524.934" lengthAdjust="spacingAndGlyphs"
text-anchor="middle" opacity="0">IC4</text>
<path d="M38215 52378
L38215 51984
" />
<path d="M38628 52340
L38609 52359
L38553 52378
L38515 52378
L38459 52359
L38421 52321
L38403 52284
L38384 52209
L38384 52153
L38403 52078
L38421 52040
L38459 52003
L38515 51984
L38553 51984
L38609 52003
L38628 52021
" />
<path d="M38965 52115
L38965 52378
" />
<path d="M38871 51965
L38778 52246
L39021 52246
" />
<text x="46100" y="45114.2"
textLength="3001.41" font-size="524.934" lengthAdjust="spacingAndGlyphs"
text-anchor="middle" opacity="0">74LVC245</text>
<path d="M44693 44701
L44956 44701
L44787 45095
" />
<path d="M45275 44832
L45275 45095
" />
<path d="M45181 44682
L45087 44964
L45331 44964
" />
<path d="M45668 45095
L45481 45095
L45481 44701
" />
<path d="M45743 44701
L45875 45095
L46006 44701
" />
<path d="M46362 45057
L46343 45076
L46287 45095
L46249 45095
L46193 45076
L46156 45039
L46137 45001
L46118 44926
L46118 44870
L46137 44795
L46156 44757
L46193 44720
L46249 44701
L46287 44701
L46343 44720
L46362 44739
" />
<path d="M46512 44739
L46531 44720
L46568 44701
L46662 44701
L46699 44720
L46718 44739
L46737 44776
L46737 44814
L46718 44870
L46493 45095
L46737 45095
" />
<path d="M47074 44832
L47074 45095
" />
<path d="M46981 44682
L46887 44964
L47131 44964
" />
<path d="M47468 44701
L47281 44701
L47262 44889
L47281 44870
L47318 44851
L47412 44851
L47449 44870
L47468 44889
L47487 44926
L47487 45020
L47468 45057
L47449 45076
L47412 45095
L47318 45095
L47281 45076
L47262 45057
" />
<text x="46100" y="39696.9"
textLength="1032.9" font-size="524.934" lengthAdjust="spacingAndGlyphs"
text-anchor="middle" opacity="0">IC3</text>
<path d="M45715 39678
L45715 39284
" />
<path d="M46128 39640
L46109 39659
L46053 39678
L46015 39678
L45959 39659
L45921 39621
L45903 39584
L45884 39509
L45884 39453
L45903 39378
L45921 39340
L45959 39303
L46015 39284
L46053 39284
L46109 39303
L46128 39321
" />
<path d="M46259 39284
L46503 39284
L46371 39434
L46428 39434
L46465 39453
L46484 39471
L46503 39509
L46503 39603
L46484 39640
L46465 39659
L46428 39678
L46315 39678
L46278 39659
L46259 39640
" />
<text x="38500" y="45014.2"
textLength="3001.41" font-size="524.934" lengthAdjust="spacingAndGlyphs"
text-anchor="middle" opacity="0">74LVC245</text>
<path d="M37093 44601
L37356 44601
L37187 44995
" />
<path d="M37675 44732
L37675 44995
" />
<path d="M37581 44582
L37487 44864
L37731 44864
" />
<path d="M38068 44995
L37881 44995
L37881 44601
" />
<path d="M38143 44601
L38275 44995
L38406 44601
" />
<path d="M38762 44957
L38743 44976
L38687 44995
L38649 44995
L38593 44976
L38556 44939
L38537 44901
L38518 44826
L38518 44770
L38537 44695
L38556 44657
L38593 44620
L38649 44601
L38687 44601
L38743 44620
L38762 44639
" />
<path d="M38912 44639
L38931 44620
L38968 44601
L39062 44601
L39099 44620
L39118 44639
L39137 44676
L39137 44714
L39118 44770
L38893 44995
L39137 44995
" />
<path d="M39474 44732
L39474 44995
" />
<path d="M39381 44582
L39287 44864
L39531 44864
" />
<path d="M39868 44601
L39681 44601
L39662 44789
L39681 44770
L39718 44751
L39812 44751
L39849 44770
L39868 44789
L39887 44826
L39887 44920
L39868 44957
L39849 44976
L39812 44995
L39718 44995
L39681 44976
L39662 44957
" />
<text x="38500" y="39596.9"
textLength="1032.9" font-size="524.934" lengthAdjust="spacingAndGlyphs"
text-anchor="middle" opacity="0">IC2</text>
<path d="M38115 39578
L38115 39184
" />
<path d="M38528 39540
L38509 39559
L38453 39578
L38415 39578
L38359 39559
L38321 39521
L38303 39484
L38284 39409
L38284 39353
L38303 39278
L38321 39240
L38359 39203
L38415 39184
L38453 39184
L38509 39203
L38528 39221
" />
<path d="M38678 39221
L38696 39203
L38734 39184
L38828 39184
L38865 39203
L38884 39221
L38903 39259
L38903 39296
L38884 39353
L38659 39578
L38903 39578
" />
<text x="46200" y="57914.2"
textLength="2795.18" font-size="524.934" lengthAdjust="spacingAndGlyphs"
text-anchor="middle" opacity="0">74245DW</text>
<path d="M44897 57501
L45159 57501
L44990 57895
" />
<path d="M45478 57632
L45478 57895
" />
<path d="M45384 57482
L45290 57764
L45534 57764
" />
<path d="M45665 57539
L45684 57520
L45721 57501
L45815 57501
L45853 57520
L45871 57539
L45890 57576
L45890 57614
L45871 57670
L45646 57895
L45890 57895
" />
<path d="M46228 57632
L46228 57895
" />
<path d="M46134 57482
L46040 57764
L46284 57764
" />
<path d="M46621 57501
L46434 57501
L46415 57689
L46434 57670
L46471 57651
L46565 57651
L46603 57670
L46621 57689
L46640 57726
L46640 57820
L46621 57857
L46603 57876
L46565 57895
L46471 57895
L46434 57876
L46415 57857
" />
<path d="M46809 57895
L46809 57501
L46903 57501
L46959 57520
L46996 57557
L47015 57595
L47034 57670
L47034 57726
L47015 57801
L46996 57839
L46959 57876
L46903 57895
L46809 57895
" />
<path d="M47165 57501
L47259 57895
L47334 57614
L47409 57895
L47502 57501
" />
<text x="46200" y="52496.9"
textLength="1032.9" font-size="524.934" lengthAdjust="spacingAndGlyphs"
text-anchor="middle" opacity="0">IC1</text>
<path d="M45815 52478
L45815 52084
" />
<path d="M46228 52440
L46209 52459
L46153 52478
L46115 52478
L46059 52459
L46021 52421
L46003 52384
L45984 52309
L45984 52253
L46003 52178
L46021 52140
L46059 52103
L46115 52084
L46153 52084
L46209 52103
L46228 52121
" />
<path d="M46603 52478
L46378 52478
" />
<path d="M46490 52478
L46490 52084
L46453 52140
L46415 52178
L46378 52196
" />
<text x="59084.3" y="30968.5"
textLength="1182.88" font-size="524.934" lengthAdjust="spacingAndGlyphs"
text-anchor="middle" opacity="0">10u</text>
<path d="M58831 30949
L58606 30949
" />
<path d="M58718 30949
L58718 30556
L58681 30612
L58643 30649
L58606 30668
" />
<path d="M59074 30556
L59112 30556
L59149 30574
L59168 30593
L59187 30631
L59206 30706
L59206 30799
L59187 30874
L59168 30912
L59149 30931
L59112 30949
L59074 30949
L59037 30931
L59018 30912
L58999 30874
L58981 30799
L58981 30706
L58999 30631
L59018 30593
L59037 30574
L59074 30556
" />
<path d="M59543 30687
L59543 30949
" />
<path d="M59374 30687
L59374 30893
L59393 30931
L59431 30949
L59487 30949
L59524 30931
L59543 30912
" />
<text x="59084.3" y="29196.9"
textLength="845.426" font-size="524.934" lengthAdjust="spacingAndGlyphs"
text-anchor="middle" opacity="0">C5</text>
<path d="M59018 29140
L58999 29159
L58943 29178
L58906 29178
L58849 29159
L58812 29121
L58793 29084
L58774 29009
L58774 28953
L58793 28878
L58812 28840
L58849 28803
L58906 28784
L58943 28784
L58999 28803
L59018 28821
" />
<path d="M59374 28784
L59187 28784
L59168 28971
L59187 28953
L59224 28934
L59318 28934
L59356 28953
L59374 28971
L59393 29009
L59393 29103
L59374 29140
L59356 29159
L59318 29178
L59224 29178
L59187 29159
L59168 29140
" />
<text x="54884.3" y="32368.5"
textLength="1182.88" font-size="524.934" lengthAdjust="spacingAndGlyphs"
text-anchor="middle" opacity="0">10u</text>
<path d="M54631 32349
L54406 32349
" />
<path d="M54518 32349
L54518 31956
L54481 32012
L54443 32049
L54406 32068
" />
<path d="M54874 31956
L54912 31956
L54949 31974
L54968 31993
L54987 32031
L55006 32106
L55006 32199
L54987 32274
L54968 32312
L54949 32331
L54912 32349
L54874 32349
L54837 32331
L54818 32312
L54799 32274
L54781 32199
L54781 32106
L54799 32031
L54818 31993
L54837 31974
L54874 31956
" />
<path d="M55343 32087
L55343 32349
" />
<path d="M55174 32087
L55174 32293
L55193 32331
L55231 32349
L55287 32349
L55324 32331
L55343 32312
" />
<text x="54884.3" y="30596.9"
textLength="845.426" font-size="524.934" lengthAdjust="spacingAndGlyphs"
text-anchor="middle" opacity="0">C6</text>
<path d="M54818 30540
L54799 30559
L54743 30578
L54706 30578
L54649 30559
L54612 30521
L54593 30484
L54574 30409
L54574 30353
L54593 30278
L54612 30240
L54649 30203
L54706 30184
L54743 30184
L54799 30203
L54818 30221
" />
<path d="M55156 30184
L55081 30184
L55043 30203
L55024 30221
L54987 30278
L54968 30353
L54968 30503
L54987 30540
L55006 30559
L55043 30578
L55118 30578
L55156 30559
L55174 30540
L55193 30503
L55193 30409
L55174 30371
L55156 30353
L55118 30334
L55043 30334
L55006 30353
L54987 30371
L54968 30409
" />
<text x="56100" y="66314.2"
textLength="2982.66" font-size="524.934" lengthAdjust="spacingAndGlyphs"
text-anchor="middle" opacity="0">74ALS573</text>
<path d="M54703 65901
L54965 65901
L54797 66295
" />
<path d="M55284 66032
L55284 66295
" />
<path d="M55190 65882
L55097 66164
L55340 66164
" />
<path d="M55471 66182
L55659 66182
" />
<path d="M55434 66295
L55565 65901
L55696 66295
" />
<path d="M56015 66295
L55828 66295
L55828 65901
" />
<path d="M56128 66276
L56184 66295
L56278 66295
L56315 66276
L56334 66257
L56353 66220
L56353 66182
L56334 66145
L56315 66126
L56278 66107
L56203 66089
L56165 66070
L56146 66051
L56128 66014
L56128 65976
L56146 65939
L56165 65920
L56203 65901
L56296 65901
L56353 65920
" />
<path d="M56709 65901
L56521 65901
L56503 66089
L56521 66070
L56559 66051
L56653 66051
L56690 66070
L56709 66089
L56728 66126
L56728 66220
L56709 66257
L56690 66276
L56653 66295
L56559 66295
L56521 66276
L56503 66257
" />
<path d="M56859 65901
L57121 65901
L56953 66295
" />
<path d="M57234 65901
L57477 65901
L57346 66051
L57402 66051
L57440 66070
L57459 66089
L57477 66126
L57477 66220
L57459 66257
L57440 66276
L57402 66295
L57290 66295
L57252 66276
L57234 66257
" />
<text x="56100" y="60896.9"
textLength="1032.9" font-size="524.934" lengthAdjust="spacingAndGlyphs"
text-anchor="middle" opacity="0">IC9</text>
<path d="M55715 60878
L55715 60484
" />
<path d="M56128 60840
L56109 60859
L56053 60878
L56015 60878
L55959 60859
L55921 60821
L55903 60784
L55884 60709
L55884 60653
L55903 60578
L55921 60540
L55959 60503
L56015 60484
L56053 60484
L56109 60503
L56128 60521
" />
<path d="M56315 60878
L56390 60878
L56428 60859
L56446 60840
L56484 60784
L56503 60709
L56503 60559
L56484 60521
L56465 60503
L56428 60484
L56353 60484
L56315 60503
L56296 60521
L56278 60559
L56278 60653
L56296 60690
L56315 60709
L56353 60728
L56428 60728
L56465 60709
L56484 60690
L56503 60653
" />
</g>
<g style="fill:#848484; fill-opacity:0.0; 
stroke:#848484; stroke-width:70; stroke-opacity:1; 
stroke-linecap:round; stroke-linejoin:round;">
<g transform="rotate(-90 26800 39350)">
<text x="26800" y="39350"
textLength="4066.77" font-size="886.667" lengthAdjust="spacingAndGlyphs"
text-anchor="end" opacity="0">CMODA7</text>
</g>
<path d="M26705 42847
L26736 42878
L26768 42973
L26768 43037
L26736 43132
L26673 43195
L26610 43227
L26483 43258
L26388 43258
L26261 43227
L26198 43195
L26135 43132
L26103 43037
L26103 42973
L26135 42878
L26166 42847
" />
<path d="M26768 42562
L26103 42562
L26578 42340
L26103 42118
L26768 42118
" />
<path d="M26103 41675
L26103 41548
L26135 41485
L26198 41422
L26325 41390
L26546 41390
L26673 41422
L26736 41485
L26768 41548
L26768 41675
L26736 41738
L26673 41802
L26546 41833
L26325 41833
L26198 41802
L26135 41738
L26103 41675
" />
<path d="M26768 41105
L26103 41105
L26103 40947
L26135 40852
L26198 40788
L26261 40757
L26388 40725
L26483 40725
L26610 40757
L26673 40788
L26736 40852
L26768 40947
L26768 41105
" />
<path d="M26578 40472
L26578 40155
" />
<path d="M26768 40535
L26103 40313
L26768 40092
" />
<path d="M26103 39933
L26103 39490
L26768 39775
" />
</g>
<g style="fill:#848484; fill-opacity:0.0; 
stroke:#848484; stroke-width:80; stroke-opacity:1; 
stroke-linecap:round; stroke-linejoin:round;">
<g transform="rotate(-90 54800 42300)">
<text x="54800" y="42300"
textLength="6514.81" font-size="1266.67" lengthAdjust="spacingAndGlyphs"
text-anchor="end" opacity="0">CSG6567</text>
</g>
<path d="M54664 48006
L54709 48052
L54754 48187
L54754 48278
L54709 48413
L54619 48504
L54528 48549
L54347 48594
L54211 48594
L54030 48549
L53940 48504
L53850 48413
L53804 48278
L53804 48187
L53850 48052
L53895 48006
" />
<path d="M54709 47644
L54754 47509
L54754 47282
L54709 47192
L54664 47147
L54573 47102
L54483 47102
L54392 47147
L54347 47192
L54302 47282
L54257 47463
L54211 47554
L54166 47599
L54076 47644
L53985 47644
L53895 47599
L53850 47554
L53804 47463
L53804 47237
L53850 47102
" />
<path d="M53850 46197
L53804 46287
L53804 46423
L53850 46559
L53940 46649
L54030 46694
L54211 46740
L54347 46740
L54528 46694
L54619 46649
L54709 46559
L54754 46423
L54754 46332
L54709 46197
L54664 46152
L54347 46152
L54347 46332
" />
<path d="M53804 45337
L53804 45518
L53850 45609
L53895 45654
L54030 45744
L54211 45790
L54573 45790
L54664 45744
L54709 45699
L54754 45609
L54754 45428
L54709 45337
L54664 45292
L54573 45247
L54347 45247
L54257 45292
L54211 45337
L54166 45428
L54166 45609
L54211 45699
L54257 45744
L54347 45790
" />
<path d="M53804 44387
L53804 44840
L54257 44885
L54211 44840
L54166 44749
L54166 44523
L54211 44432
L54257 44387
L54347 44342
L54573 44342
L54664 44387
L54709 44432
L54754 44523
L54754 44749
L54709 44840
L54664 44885
" />
<path d="M53804 43528
L53804 43709
L53850 43799
L53895 43844
L54030 43935
L54211 43980
L54573 43980
L54664 43935
L54709 43890
L54754 43799
L54754 43618
L54709 43528
L54664 43482
L54573 43437
L54347 43437
L54257 43482
L54211 43528
L54166 43618
L54166 43799
L54211 43890
L54257 43935
L54347 43980
" />
<path d="M53804 43121
L53804 42487
L54754 42894
" />
</g>
<g style="fill:#848484; fill-opacity:0.0; 
stroke:#848484; stroke-width:59.0551; stroke-opacity:1; 
stroke-linecap:round; stroke-linejoin:round;">
<text x="33000" y="67814.2"
textLength="2709.92" font-size="524.934" lengthAdjust="spacingAndGlyphs"
text-anchor="middle" opacity="0">74LS06N</text>
<path d="M31753 67401
L32015 67401
L31847 67795
" />
<path d="M32334 67532
L32334 67795
" />
<path d="M32240 67382
L32146 67664
L32390 67664
" />
<path d="M32728 67795
L32540 67795
L32540 67401
" />
<path d="M32840 67776
L32896 67795
L32990 67795
L33028 67776
L33046 67757
L33065 67720
L33065 67682
L33046 67645
L33028 67626
L32990 67607
L32915 67589
L32878 67570
L32859 67551
L32840 67514
L32840 67476
L32859 67439
L32878 67420
L32915 67401
L33009 67401
L33065 67420
" />
<path d="M33309 67401
L33346 67401
L33384 67420
L33403 67439
L33421 67476
L33440 67551
L33440 67645
L33421 67720
L33403 67757
L33384 67776
L33346 67795
L33309 67795
L33271 67776
L33253 67757
L33234 67720
L33215 67645
L33215 67551
L33234 67476
L33253 67439
L33271 67420
L33309 67401
" />
<path d="M33778 67401
L33703 67401
L33665 67420
L33646 67439
L33609 67495
L33590 67570
L33590 67720
L33609 67757
L33628 67776
L33665 67795
L33740 67795
L33778 67776
L33796 67757
L33815 67720
L33815 67626
L33796 67589
L33778 67570
L33740 67551
L33665 67551
L33628 67570
L33609 67589
L33590 67626
" />
<path d="M33984 67795
L33984 67401
L34209 67795
L34209 67401
" />
<text x="33000" y="63896.9"
textLength="864.173" font-size="524.934" lengthAdjust="spacingAndGlyphs"
text-anchor="middle" opacity="0">U7</text>
<path d="M32700 63484
L32700 63803
L32718 63840
L32737 63859
L32775 63878
L32850 63878
L32887 63859
L32906 63840
L32925 63803
L32925 63484
" />
<path d="M33074 63484
L33337 63484
L33168 63878
" />
<text x="27000" y="31714.2"
textLength="2738.94" font-size="524.934" lengthAdjust="spacingAndGlyphs"
text-anchor="middle" opacity="0">MAX3814</text>
<path d="M25762 31695
L25762 31301
L25893 31582
L26025 31301
L26025 31695
" />
<path d="M26193 31582
L26381 31582
" />
<path d="M26156 31695
L26287 31301
L26418 31695
" />
<path d="M26512 31301
L26775 31695
" />
<path d="M26775 31301
L26512 31695
" />
<path d="M26887 31301
L27131 31301
L27000 31451
L27056 31451
L27093 31470
L27112 31489
L27131 31526
L27131 31620
L27112 31657
L27093 31676
L27056 31695
L26943 31695
L26906 31676
L26887 31657
" />
<path d="M27356 31470
L27318 31451
L27299 31432
L27281 31395
L27281 31376
L27299 31339
L27318 31320
L27356 31301
L27431 31301
L27468 31320
L27487 31339
L27506 31376
L27506 31395
L27487 31432
L27468 31451
L27431 31470
L27356 31470
L27318 31489
L27299 31507
L27281 31545
L27281 31620
L27299 31657
L27318 31676
L27356 31695
L27431 31695
L27468 31676
L27487 31657
L27506 31620
L27506 31545
L27487 31507
L27468 31489
L27431 31470
" />
<path d="M27881 31695
L27656 31695
" />
<path d="M27768 31695
L27768 31301
L27731 31357
L27693 31395
L27656 31414
" />
<path d="M28218 31432
L28218 31695
" />
<path d="M28124 31282
L28031 31564
L28274 31564
" />
<text x="27000" y="23296.9"
textLength="864.173" font-size="524.934" lengthAdjust="spacingAndGlyphs"
text-anchor="middle" opacity="0">U1</text>
<path d="M26700 22884
L26700 23203
L26718 23240
L26737 23259
L26775 23278
L26850 23278
L26887 23259
L26906 23240
L26925 23203
L26925 22884
" />
<path d="M27318 23278
L27093 23278
" />
<path d="M27206 23278
L27206 22884
L27168 22940
L27131 22978
L27093 22996
" />
</g>
<g style="fill:#848484; fill-opacity:0.0; 
stroke:#848484; stroke-width:39; stroke-opacity:1; 
stroke-linecap:round; stroke-linejoin:round;">
<text x="49860" y="42990"
textLength="1082.41" font-size="494" lengthAdjust="spacingAndGlyphs"
text-anchor="start" opacity="0">10k</text>
<path d="M50167 42972
L49955 42972
" />
<path d="M50061 42972
L50061 42601
L50026 42654
L49991 42690
L49955 42707
" />
<path d="M50396 42601
L50432 42601
L50467 42619
L50485 42637
L50502 42672
L50520 42743
L50520 42831
L50502 42901
L50485 42937
L50467 42954
L50432 42972
L50396 42972
L50361 42954
L50344 42937
L50326 42901
L50308 42831
L50308 42743
L50326 42672
L50344 42637
L50361 42619
L50396 42601
" />
<path d="M50679 42972
L50679 42601
" />
<path d="M50714 42831
L50820 42972
" />
<path d="M50820 42725
L50679 42866
" />
<g transform="rotate(-90 29290 63040)">
<text x="29290" y="63040"
textLength="1232.77" font-size="494" lengthAdjust="spacingAndGlyphs"
text-anchor="start" opacity="0">4.7k</text>
</g>
<path d="M29025 62767
L29272 62767
" />
<path d="M28884 62855
L29148 62944
L29148 62714
" />
<path d="M29237 62573
L29254 62555
L29272 62573
L29254 62591
L29237 62573
L29272 62573
" />
<path d="M28901 62432
L28901 62185
L29272 62344
" />
<path d="M29272 62044
L28901 62044
" />
<path d="M29131 62009
L29272 61903
" />
<path d="M29025 61903
L29166 62044
" />
<text x="49960" y="41090"
textLength="1056.34" font-size="494" lengthAdjust="spacingAndGlyphs"
text-anchor="start" opacity="0">10k</text>
<path d="M50267 41072
L50055 41072
" />
<path d="M50161 41072
L50161 40701
L50126 40754
L50091 40790
L50055 40807
" />
<path d="M50496 40701
L50532 40701
L50567 40719
L50585 40737
L50602 40772
L50620 40843
L50620 40931
L50602 41001
L50585 41037
L50567 41054
L50532 41072
L50496 41072
L50461 41054
L50444 41037
L50426 41001
L50408 40931
L50408 40843
L50426 40772
L50444 40737
L50461 40719
L50496 40701
" />
<path d="M50779 41072
L50779 40701
" />
<path d="M50814 40931
L50920 41072
" />
<path d="M50920 40825
L50779 40966
" />
<text x="51240" y="37910"
textLength="1056.34" font-size="494" lengthAdjust="spacingAndGlyphs"
text-anchor="end" opacity="0">10k</text>
<path d="M50491 37892
L50279 37892
" />
<path d="M50385 37892
L50385 37521
L50350 37574
L50314 37610
L50279 37627
" />
<path d="M50720 37521
L50755 37521
L50791 37539
L50808 37557
L50826 37592
L50844 37663
L50844 37751
L50826 37821
L50808 37857
L50791 37874
L50755 37892
L50720 37892
L50685 37874
L50667 37857
L50650 37821
L50632 37751
L50632 37663
L50650 37592
L50667 37557
L50685 37539
L50720 37521
" />
<path d="M51002 37892
L51002 37521
" />
<path d="M51038 37751
L51144 37892
" />
<path d="M51144 37645
L51002 37786
" />
<text x="49960" y="36590"
textLength="1056.34" font-size="494" lengthAdjust="spacingAndGlyphs"
text-anchor="start" opacity="0">10k</text>
<path d="M50267 36572
L50055 36572
" />
<path d="M50161 36572
L50161 36201
L50126 36254
L50091 36290
L50055 36307
" />
<path d="M50496 36201
L50532 36201
L50567 36219
L50585 36237
L50602 36272
L50620 36343
L50620 36431
L50602 36501
L50585 36537
L50567 36554
L50532 36572
L50496 36572
L50461 36554
L50444 36537
L50426 36501
L50408 36431
L50408 36343
L50426 36272
L50444 36237
L50461 36219
L50496 36201
" />
<path d="M50779 36572
L50779 36201
" />
<path d="M50814 36431
L50920 36572
" />
<path d="M50920 36325
L50779 36466
" />
<text x="44579.5" y="29024"
textLength="1109.27" font-size="494" lengthAdjust="spacingAndGlyphs"
text-anchor="start" opacity="0">200</text>
<path d="M44675 28671
L44693 28653
L44728 28635
L44816 28635
L44851 28653
L44869 28671
L44887 28706
L44887 28741
L44869 28794
L44657 29006
L44887 29006
" />
<path d="M45116 28635
L45151 28635
L45187 28653
L45204 28671
L45222 28706
L45240 28777
L45240 28865
L45222 28935
L45204 28971
L45187 28988
L45151 29006
L45116 29006
L45081 28988
L45063 28971
L45045 28935
L45028 28865
L45028 28777
L45045 28706
L45063 28671
L45081 28653
L45116 28635
" />
<path d="M45469 28635
L45504 28635
L45539 28653
L45557 28671
L45575 28706
L45592 28777
L45592 28865
L45575 28935
L45557 28971
L45539 28988
L45504 29006
L45469 29006
L45434 28988
L45416 28971
L45398 28935
L45381 28865
L45381 28777
L45398 28706
L45416 28671
L45434 28653
L45469 28635
" />
<text x="33560" y="28790"
textLength="1109.27" font-size="494" lengthAdjust="spacingAndGlyphs"
text-anchor="start" opacity="0">200</text>
<path d="M33655 28437
L33673 28419
L33708 28401
L33797 28401
L33832 28419
L33849 28437
L33867 28472
L33867 28507
L33849 28560
L33638 28772
L33867 28772
" />
<path d="M34096 28401
L34132 28401
L34167 28419
L34185 28437
L34202 28472
L34220 28543
L34220 28631
L34202 28701
L34185 28737
L34167 28754
L34132 28772
L34096 28772
L34061 28754
L34044 28737
L34026 28701
L34008 28631
L34008 28543
L34026 28472
L34044 28437
L34061 28419
L34096 28401
" />
<path d="M34449 28401
L34485 28401
L34520 28419
L34538 28437
L34555 28472
L34573 28543
L34573 28631
L34555 28701
L34538 28737
L34520 28754
L34485 28772
L34449 28772
L34414 28754
L34396 28737
L34379 28701
L34361 28631
L34361 28543
L34379 28472
L34396 28437
L34414 28419
L34449 28401
" />
<text x="33660" y="25490"
textLength="1109.27" font-size="494" lengthAdjust="spacingAndGlyphs"
text-anchor="start" opacity="0">200</text>
<path d="M33755 25137
L33773 25119
L33808 25101
L33897 25101
L33932 25119
L33949 25137
L33967 25172
L33967 25207
L33949 25260
L33738 25472
L33967 25472
" />
<path d="M34196 25101
L34232 25101
L34267 25119
L34285 25137
L34302 25172
L34320 25243
L34320 25331
L34302 25401
L34285 25437
L34267 25454
L34232 25472
L34196 25472
L34161 25454
L34144 25437
L34126 25401
L34108 25331
L34108 25243
L34126 25172
L34144 25137
L34161 25119
L34196 25101
" />
<path d="M34549 25101
L34585 25101
L34620 25119
L34638 25137
L34655 25172
L34673 25243
L34673 25331
L34655 25401
L34638 25437
L34620 25454
L34585 25472
L34549 25472
L34514 25454
L34496 25437
L34479 25401
L34461 25331
L34461 25243
L34479 25172
L34496 25137
L34514 25119
L34549 25101
" />
<text x="33800" y="23100"
textLength="1109.27" font-size="494" lengthAdjust="spacingAndGlyphs"
text-anchor="start" opacity="0">200</text>
<path d="M33895 22747
L33913 22729
L33948 22711
L34037 22711
L34072 22729
L34089 22747
L34107 22782
L34107 22817
L34089 22870
L33878 23082
L34107 23082
" />
<path d="M34336 22711
L34372 22711
L34407 22729
L34425 22747
L34442 22782
L34460 22853
L34460 22941
L34442 23011
L34425 23047
L34407 23064
L34372 23082
L34336 23082
L34301 23064
L34284 23047
L34266 23011
L34248 22941
L34248 22853
L34266 22782
L34284 22747
L34301 22729
L34336 22711
" />
<path d="M34689 22711
L34725 22711
L34760 22729
L34778 22747
L34795 22782
L34813 22853
L34813 22941
L34795 23011
L34778 23047
L34760 23064
L34725 23082
L34689 23082
L34654 23064
L34636 23047
L34619 23011
L34601 22941
L34601 22853
L34619 22782
L34636 22747
L34654 22729
L34689 22711
" />
<text x="39060" y="32990"
textLength="1056.34" font-size="494" lengthAdjust="spacingAndGlyphs"
text-anchor="start" opacity="0">27k</text>
<path d="M39155 32637
L39173 32619
L39208 32601
L39297 32601
L39332 32619
L39349 32637
L39367 32672
L39367 32707
L39349 32760
L39138 32972
L39367 32972
" />
<path d="M39491 32601
L39738 32601
L39579 32972
" />
<path d="M39879 32972
L39879 32601
" />
<path d="M39914 32831
L40020 32972
" />
<path d="M40020 32725
L39879 32866
" />
<text x="26960" y="65790"
textLength="1232.77" font-size="494" lengthAdjust="spacingAndGlyphs"
text-anchor="start" opacity="0">4.7k</text>
<path d="M27232 65525
L27232 65772
" />
<path d="M27144 65384
L27055 65648
L27285 65648
" />
<path d="M27426 65737
L27444 65754
L27426 65772
L27408 65754
L27426 65737
L27426 65772
" />
<path d="M27567 65401
L27814 65401
L27655 65772
" />
<path d="M27955 65772
L27955 65401
" />
<path d="M27990 65631
L28096 65772
" />
<path d="M28096 65525
L27955 65666
" />
<text x="46260" y="26790"
textLength="1232.77" font-size="494" lengthAdjust="spacingAndGlyphs"
text-anchor="start" opacity="0">1.5k</text>
<path d="M46567 26772
L46355 26772
" />
<path d="M46461 26772
L46461 26401
L46426 26454
L46391 26490
L46355 26507
" />
<path d="M46726 26737
L46744 26754
L46726 26772
L46708 26754
L46726 26737
L46726 26772
" />
<path d="M47079 26401
L46902 26401
L46885 26578
L46902 26560
L46938 26543
L47026 26543
L47061 26560
L47079 26578
L47096 26613
L47096 26701
L47079 26737
L47061 26754
L47026 26772
L46938 26772
L46902 26754
L46885 26737
" />
<path d="M47255 26772
L47255 26401
" />
<path d="M47290 26631
L47396 26772
" />
<path d="M47396 26525
L47255 26666
" />
<text x="46260" y="25790"
textLength="1232.77" font-size="494" lengthAdjust="spacingAndGlyphs"
text-anchor="start" opacity="0">1.5k</text>
<path d="M46567 25772
L46355 25772
" />
<path d="M46461 25772
L46461 25401
L46426 25454
L46391 25490
L46355 25507
" />
<path d="M46726 25737
L46744 25754
L46726 25772
L46708 25754
L46726 25737
L46726 25772
" />
<path d="M47079 25401
L46902 25401
L46885 25578
L46902 25560
L46938 25543
L47026 25543
L47061 25560
L47079 25578
L47096 25613
L47096 25701
L47079 25737
L47061 25754
L47026 25772
L46938 25772
L46902 25754
L46885 25737
" />
<path d="M47255 25772
L47255 25401
" />
<path d="M47290 25631
L47396 25772
" />
<path d="M47396 25525
L47255 25666
" />
</g>
<g style="fill:#848484; fill-opacity:0.0; 
stroke:#848484; stroke-width:50; stroke-opacity:1; 
stroke-linecap:round; stroke-linejoin:round;">
<text x="47750" y="33000"
textLength="1837.6" font-size="633.333" lengthAdjust="spacingAndGlyphs"
text-anchor="start" opacity="0">JP3Q</text>
<path d="M48031 32502
L48031 32841
L48008 32909
L47963 32954
L47895 32977
L47850 32977
" />
<path d="M48257 32977
L48257 32502
L48438 32502
L48483 32525
L48506 32547
L48528 32592
L48528 32660
L48506 32705
L48483 32728
L48438 32751
L48257 32751
" />
<path d="M48687 32502
L48981 32502
L48822 32683
L48890 32683
L48936 32705
L48958 32728
L48981 32773
L48981 32886
L48958 32932
L48936 32954
L48890 32977
L48755 32977
L48709 32954
L48687 32932
" />
<path d="M49501 33022
L49456 33000
L49411 32954
L49343 32886
L49297 32864
L49252 32864
" />
<path d="M49275 32977
L49230 32954
L49184 32909
L49162 32819
L49162 32660
L49184 32570
L49230 32525
L49275 32502
L49365 32502
L49411 32525
L49456 32570
L49478 32660
L49478 32819
L49456 32909
L49411 32954
L49365 32977
L49275 32977
" />
<g transform="rotate(-90 39350 65200)">
<text x="39350" y="65200"
textLength="1784.05" font-size="633.333" lengthAdjust="spacingAndGlyphs"
text-anchor="start" opacity="0">JP1E</text>
</g>
<path d="M38852 64918
L39191 64918
L39259 64941
L39304 64986
L39327 65054
L39327 65099
" />
<path d="M39327 64692
L38852 64692
L38852 64511
L38875 64466
L38897 64443
L38942 64421
L39010 64421
L39055 64443
L39078 64466
L39101 64511
L39101 64692
" />
<path d="M39327 63968
L39327 64240
" />
<path d="M39327 64104
L38852 64104
L38920 64149
L38965 64194
L38988 64240
" />
<path d="M39078 63765
L39078 63606
" />
<path d="M39327 63538
L39327 63765
L38852 63765
L38852 63538
" />
</g>
<g style="fill:#848484; fill-opacity:0.0; 
stroke:#848484; stroke-width:59.0551; stroke-opacity:1; 
stroke-linecap:round; stroke-linejoin:round;">
<text x="39800" y="31714.2"
textLength="6195.48" font-size="524.934" lengthAdjust="spacingAndGlyphs"
text-anchor="middle" opacity="0">HDMI_A_1.4_Shielded</text>
<path d="M36828 31695
L36828 31301
" />
<path d="M36828 31489
L37053 31489
" />
<path d="M37053 31695
L37053 31301
" />
<path d="M37240 31695
L37240 31301
L37334 31301
L37390 31320
L37428 31357
L37447 31395
L37465 31470
L37465 31526
L37447 31601
L37428 31639
L37390 31676
L37334 31695
L37240 31695
" />
<path d="M37634 31695
L37634 31301
L37765 31582
L37897 31301
L37897 31695
" />
<path d="M38084 31695
L38084 31301
" />
<path d="M38178 31732
L38478 31732
" />
<path d="M38553 31582
L38740 31582
" />
<path d="M38515 31695
L38647 31301
L38778 31695
" />
<path d="M38815 31732
L39115 31732
" />
<path d="M39415 31695
L39190 31695
" />
<path d="M39303 31695
L39303 31301
L39265 31357
L39228 31395
L39190 31414
" />
<path d="M39584 31657
L39603 31676
L39584 31695
L39565 31676
L39584 31657
L39584 31695
" />
<path d="M39940 31432
L39940 31695
" />
<path d="M39846 31282
L39753 31564
L39996 31564
" />
<path d="M40053 31732
L40353 31732
" />
<path d="M40428 31676
L40484 31695
L40578 31695
L40615 31676
L40634 31657
L40653 31620
L40653 31582
L40634 31545
L40615 31526
L40578 31507
L40503 31489
L40465 31470
L40446 31451
L40428 31414
L40428 31376
L40446 31339
L40465 31320
L40503 31301
L40596 31301
L40653 31320
" />
<path d="M40821 31695
L40821 31301
" />
<path d="M40990 31695
L40990 31489
L40971 31451
L40934 31432
L40877 31432
L40840 31451
L40821 31470
" />
<path d="M41177 31695
L41177 31432
" />
<path d="M41177 31301
L41159 31320
L41177 31339
L41196 31320
L41177 31301
L41177 31339
" />
<path d="M41515 31676
L41477 31695
L41402 31695
L41365 31676
L41346 31639
L41346 31489
L41365 31451
L41402 31432
L41477 31432
L41515 31451
L41534 31489
L41534 31526
L41346 31564
" />
<path d="M41759 31695
L41721 31676
L41702 31639
L41702 31301
" />
<path d="M42077 31695
L42077 31301
" />
<path d="M42077 31676
L42040 31695
L41965 31695
L41927 31676
L41909 31657
L41890 31620
L41890 31507
L41909 31470
L41927 31451
L41965 31432
L42040 31432
L42077 31451
" />
<path d="M42415 31676
L42377 31695
L42302 31695
L42265 31676
L42246 31639
L42246 31489
L42265 31451
L42302 31432
L42377 31432
L42415 31451
L42434 31489
L42434 31526
L42246 31564
" />
<path d="M42771 31695
L42771 31301
" />
<path d="M42771 31676
L42734 31695
L42659 31695
L42621 31676
L42602 31657
L42584 31620
L42584 31507
L42602 31470
L42621 31451
L42659 31432
L42734 31432
L42771 31451
" />
<text x="39800" y="26296.9"
textLength="751.687" font-size="524.934" lengthAdjust="spacingAndGlyphs"
text-anchor="middle" opacity="0">J1</text>
<path d="M39668 25884
L39668 26165
L39650 26221
L39612 26259
L39556 26278
L39518 26278
" />
<path d="M40062 26278
L39837 26278
" />
<path d="M39949 26278
L39949 25884
L39912 25940
L39874 25978
L39837 25996
" />
</g>
<g style="fill:#848484; fill-opacity:0.0; 
stroke:#848484; stroke-width:50; stroke-opacity:1; 
stroke-linecap:round; stroke-linejoin:round;">
<text x="26700" y="59800"
textLength="2836.3" font-size="633.333" lengthAdjust="spacingAndGlyphs"
text-anchor="start" opacity="0">1N4004</text>
<path d="M27094 59777
L26822 59777
" />
<path d="M26958 59777
L26958 59302
L26913 59370
L26868 59415
L26822 59438
" />
<path d="M27297 59777
L27297 59302
L27569 59777
L27569 59302
" />
<path d="M27999 59460
L27999 59777
" />
<path d="M27886 59279
L27772 59619
L28067 59619
" />
<path d="M28338 59302
L28383 59302
L28428 59325
L28451 59347
L28474 59392
L28496 59483
L28496 59596
L28474 59686
L28451 59732
L28428 59754
L28383 59777
L28338 59777
L28293 59754
L28270 59732
L28247 59686
L28225 59596
L28225 59483
L28247 59392
L28270 59347
L28293 59325
L28338 59302
" />
<path d="M28790 59302
L28836 59302
L28881 59325
L28903 59347
L28926 59392
L28949 59483
L28949 59596
L28926 59686
L28903 59732
L28881 59754
L28836 59777
L28790 59777
L28745 59754
L28722 59732
L28700 59686
L28677 59596
L28677 59483
L28700 59392
L28722 59347
L28745 59325
L28790 59302
" />
<path d="M29356 59460
L29356 59777
" />
<path d="M29243 59279
L29130 59619
L29424 59619
" />
<text x="35700" y="30600"
textLength="2824.52" font-size="633.333" lengthAdjust="spacingAndGlyphs"
text-anchor="end" opacity="0">1N4004</text>
<path d="M33269 30577
L32998 30577
" />
<path d="M33134 30577
L33134 30102
L33088 30170
L33043 30215
L32998 30238
" />
<path d="M33473 30577
L33473 30102
L33744 30577
L33744 30102
" />
<path d="M34174 30260
L34174 30577
" />
<path d="M34061 30079
L33948 30419
L34242 30419
" />
<path d="M34513 30102
L34559 30102
L34604 30125
L34627 30147
L34649 30192
L34672 30283
L34672 30396
L34649 30486
L34627 30532
L34604 30554
L34559 30577
L34513 30577
L34468 30554
L34446 30532
L34423 30486
L34400 30396
L34400 30283
L34423 30192
L34446 30147
L34468 30125
L34513 30102
" />
<path d="M34966 30102
L35011 30102
L35056 30125
L35079 30147
L35102 30192
L35124 30283
L35124 30396
L35102 30486
L35079 30532
L35056 30554
L35011 30577
L34966 30577
L34921 30554
L34898 30532
L34875 30486
L34853 30396
L34853 30283
L34875 30192
L34898 30147
L34921 30125
L34966 30102
" />
<path d="M35531 30260
L35531 30577
" />
<path d="M35418 30079
L35305 30419
L35599 30419
" />
<text x="45450" y="34350"
textLength="1195.95" font-size="633.333" lengthAdjust="spacingAndGlyphs"
text-anchor="start" opacity="0">0.1</text>
<path d="M45686 33852
L45731 33852
L45776 33875
L45799 33897
L45821 33942
L45844 34033
L45844 34146
L45821 34236
L45799 34282
L45776 34304
L45731 34327
L45686 34327
L45640 34304
L45618 34282
L45595 34236
L45572 34146
L45572 34033
L45595 33942
L45618 33897
L45640 33875
L45686 33852
" />
<path d="M46047 34282
L46070 34304
L46047 34327
L46025 34304
L46047 34282
L46047 34327
" />
<path d="M46522 34327
L46251 34327
" />
<path d="M46387 34327
L46387 33852
L46342 33920
L46296 33965
L46251 33988
" />
<text x="26250" y="33950"
textLength="1195.95" font-size="633.333" lengthAdjust="spacingAndGlyphs"
text-anchor="start" opacity="0">0.1</text>
<path d="M26486 33452
L26531 33452
L26576 33475
L26599 33497
L26621 33542
L26644 33633
L26644 33746
L26621 33836
L26599 33882
L26576 33904
L26531 33927
L26486 33927
L26440 33904
L26418 33882
L26395 33836
L26372 33746
L26372 33633
L26395 33542
L26418 33497
L26440 33475
L26486 33452
" />
<path d="M26847 33882
L26870 33904
L26847 33927
L26825 33904
L26847 33882
L26847 33927
" />
<path d="M27322 33927
L27051 33927
" />
<path d="M27187 33927
L27187 33452
L27142 33520
L27096 33565
L27051 33588
" />
<text x="32350" y="70150"
textLength="1195.95" font-size="633.333" lengthAdjust="spacingAndGlyphs"
text-anchor="start" opacity="0">0.1</text>
<path d="M32586 69652
L32631 69652
L32676 69675
L32699 69697
L32721 69742
L32744 69833
L32744 69946
L32721 70036
L32699 70082
L32676 70104
L32631 70127
L32586 70127
L32540 70104
L32518 70082
L32495 70036
L32472 69946
L32472 69833
L32495 69742
L32518 69697
L32540 69675
L32586 69652
" />
<path d="M32947 70082
L32970 70104
L32947 70127
L32925 70104
L32947 70082
L32947 70127
" />
<path d="M33422 70127
L33151 70127
" />
<path d="M33287 70127
L33287 69652
L33242 69720
L33196 69765
L33151 69788
" />
<text x="49750" y="46150"
textLength="1195.95" font-size="633.333" lengthAdjust="spacingAndGlyphs"
text-anchor="start" opacity="0">0.1</text>
<path d="M49986 45652
L50031 45652
L50076 45675
L50099 45697
L50121 45742
L50144 45833
L50144 45946
L50121 46036
L50099 46082
L50076 46104
L50031 46127
L49986 46127
L49940 46104
L49918 46082
L49895 46036
L49872 45946
L49872 45833
L49895 45742
L49918 45697
L49940 45675
L49986 45652
" />
<path d="M50347 46082
L50370 46104
L50347 46127
L50325 46104
L50347 46082
L50347 46127
" />
<path d="M50822 46127
L50551 46127
" />
<path d="M50687 46127
L50687 45652
L50642 45720
L50596 45765
L50551 45788
" />
<text x="46650" y="61650"
textLength="7167.38" font-size="633.333" lengthAdjust="spacingAndGlyphs"
text-anchor="start" opacity="0">C-EU050-024X044</text>
<path d="M47067 61582
L47044 61604
L46976 61627
L46931 61627
L46863 61604
L46818 61559
L46795 61514
L46772 61423
L46772 61355
L46795 61265
L46818 61220
L46863 61175
L46931 61152
L46976 61152
L47044 61175
L47067 61197
" />
<path d="M47270 61446
L47632 61446
" />
<path d="M47858 61378
L48017 61378
" />
<path d="M48084 61627
L47858 61627
L47858 61152
L48084 61152
" />
<path d="M48288 61152
L48288 61536
L48311 61582
L48333 61604
L48378 61627
L48469 61627
L48514 61604
L48537 61582
L48559 61536
L48559 61152
" />
<path d="M48876 61152
L48921 61152
L48967 61175
L48989 61197
L49012 61242
L49034 61333
L49034 61446
L49012 61536
L48989 61582
L48967 61604
L48921 61627
L48876 61627
L48831 61604
L48808 61582
L48786 61536
L48763 61446
L48763 61333
L48786 61242
L48808 61197
L48831 61175
L48876 61152
" />
<path d="M49464 61152
L49238 61152
L49215 61378
L49238 61355
L49283 61333
L49396 61333
L49442 61355
L49464 61378
L49487 61423
L49487 61536
L49464 61582
L49442 61604
L49396 61627
L49283 61627
L49238 61604
L49215 61582
" />
<path d="M49781 61152
L49826 61152
L49871 61175
L49894 61197
L49917 61242
L49939 61333
L49939 61446
L49917 61536
L49894 61582
L49871 61604
L49826 61627
L49781 61627
L49736 61604
L49713 61582
L49690 61536
L49668 61446
L49668 61333
L49690 61242
L49713 61197
L49736 61175
L49781 61152
" />
<path d="M50143 61446
L50505 61446
" />
<path d="M50821 61152
L50867 61152
L50912 61175
L50934 61197
L50957 61242
L50980 61333
L50980 61446
L50957 61536
L50934 61582
L50912 61604
L50867 61627
L50821 61627
L50776 61604
L50753 61582
L50731 61536
L50708 61446
L50708 61333
L50731 61242
L50753 61197
L50776 61175
L50821 61152
" />
<path d="M51161 61197
L51183 61175
L51228 61152
L51342 61152
L51387 61175
L51409 61197
L51432 61242
L51432 61288
L51409 61355
L51138 61627
L51432 61627
" />
<path d="M51839 61310
L51839 61627
" />
<path d="M51726 61129
L51613 61469
L51907 61469
" />
<path d="M52043 61152
L52359 61627
" />
<path d="M52359 61152
L52043 61627
" />
<path d="M52631 61152
L52676 61152
L52721 61175
L52744 61197
L52767 61242
L52789 61333
L52789 61446
L52767 61536
L52744 61582
L52721 61604
L52676 61627
L52631 61627
L52586 61604
L52563 61582
L52540 61536
L52518 61446
L52518 61333
L52540 61242
L52563 61197
L52586 61175
L52631 61152
" />
<path d="M53196 61310
L53196 61627
" />
<path d="M53083 61129
L52970 61469
L53264 61469
" />
<path d="M53649 61310
L53649 61627
" />
<path d="M53536 61129
L53422 61469
L53717 61469
" />
<text x="43050" y="44750"
textLength="7167.38" font-size="633.333" lengthAdjust="spacingAndGlyphs"
text-anchor="end" opacity="0">C-EU050-024X044</text>
<path d="M36299 44682
L36277 44704
L36209 44727
L36163 44727
L36096 44704
L36050 44659
L36028 44614
L36005 44523
L36005 44455
L36028 44365
L36050 44320
L36096 44275
L36163 44252
L36209 44252
L36277 44275
L36299 44297
" />
<path d="M36503 44546
L36865 44546
" />
<path d="M37091 44478
L37249 44478
" />
<path d="M37317 44727
L37091 44727
L37091 44252
L37317 44252
" />
<path d="M37521 44252
L37521 44636
L37543 44682
L37566 44704
L37611 44727
L37702 44727
L37747 44704
L37769 44682
L37792 44636
L37792 44252
" />
<path d="M38109 44252
L38154 44252
L38199 44275
L38222 44297
L38244 44342
L38267 44433
L38267 44546
L38244 44636
L38222 44682
L38199 44704
L38154 44727
L38109 44727
L38063 44704
L38041 44682
L38018 44636
L37996 44546
L37996 44433
L38018 44342
L38041 44297
L38063 44275
L38109 44252
" />
<path d="M38697 44252
L38471 44252
L38448 44478
L38471 44455
L38516 44433
L38629 44433
L38674 44455
L38697 44478
L38719 44523
L38719 44636
L38697 44682
L38674 44704
L38629 44727
L38516 44727
L38471 44704
L38448 44682
" />
<path d="M39013 44252
L39059 44252
L39104 44275
L39127 44297
L39149 44342
L39172 44433
L39172 44546
L39149 44636
L39127 44682
L39104 44704
L39059 44727
L39013 44727
L38968 44704
L38946 44682
L38923 44636
L38900 44546
L38900 44433
L38923 44342
L38946 44297
L38968 44275
L39013 44252
" />
<path d="M39375 44546
L39737 44546
" />
<path d="M40054 44252
L40099 44252
L40144 44275
L40167 44297
L40190 44342
L40212 44433
L40212 44546
L40190 44636
L40167 44682
L40144 44704
L40099 44727
L40054 44727
L40009 44704
L39986 44682
L39963 44636
L39941 44546
L39941 44433
L39963 44342
L39986 44297
L40009 44275
L40054 44252
" />
<path d="M40393 44297
L40416 44275
L40461 44252
L40574 44252
L40619 44275
L40642 44297
L40665 44342
L40665 44388
L40642 44455
L40371 44727
L40665 44727
" />
<path d="M41072 44410
L41072 44727
" />
<path d="M40959 44229
L40846 44569
L41140 44569
" />
<path d="M41275 44252
L41592 44727
" />
<path d="M41592 44252
L41275 44727
" />
<path d="M41863 44252
L41909 44252
L41954 44275
L41977 44297
L41999 44342
L42022 44433
L42022 44546
L41999 44636
L41977 44682
L41954 44704
L41909 44727
L41863 44727
L41818 44704
L41796 44682
L41773 44636
L41750 44546
L41750 44433
L41773 44342
L41796 44297
L41818 44275
L41863 44252
" />
<path d="M42429 44410
L42429 44727
" />
<path d="M42316 44229
L42203 44569
L42497 44569
" />
<path d="M42881 44410
L42881 44727
" />
<path d="M42768 44229
L42655 44569
L42949 44569
" />
<text x="33350" y="21650"
textLength="7167.38" font-size="633.333" lengthAdjust="spacingAndGlyphs"
text-anchor="start" opacity="0">C-EU050-024X044</text>
<path d="M33767 21582
L33744 21604
L33676 21627
L33631 21627
L33563 21604
L33518 21559
L33495 21514
L33472 21423
L33472 21355
L33495 21265
L33518 21220
L33563 21175
L33631 21152
L33676 21152
L33744 21175
L33767 21197
" />
<path d="M33970 21446
L34332 21446
" />
<path d="M34558 21378
L34717 21378
" />
<path d="M34784 21627
L34558 21627
L34558 21152
L34784 21152
" />
<path d="M34988 21152
L34988 21536
L35011 21582
L35033 21604
L35078 21627
L35169 21627
L35214 21604
L35237 21582
L35259 21536
L35259 21152
" />
<path d="M35576 21152
L35621 21152
L35667 21175
L35689 21197
L35712 21242
L35734 21333
L35734 21446
L35712 21536
L35689 21582
L35667 21604
L35621 21627
L35576 21627
L35531 21604
L35508 21582
L35486 21536
L35463 21446
L35463 21333
L35486 21242
L35508 21197
L35531 21175
L35576 21152
" />
<path d="M36164 21152
L35938 21152
L35915 21378
L35938 21355
L35983 21333
L36096 21333
L36142 21355
L36164 21378
L36187 21423
L36187 21536
L36164 21582
L36142 21604
L36096 21627
L35983 21627
L35938 21604
L35915 21582
" />
<path d="M36481 21152
L36526 21152
L36571 21175
L36594 21197
L36617 21242
L36639 21333
L36639 21446
L36617 21536
L36594 21582
L36571 21604
L36526 21627
L36481 21627
L36436 21604
L36413 21582
L36390 21536
L36368 21446
L36368 21333
L36390 21242
L36413 21197
L36436 21175
L36481 21152
" />
<path d="M36843 21446
L37205 21446
" />
<path d="M37521 21152
L37567 21152
L37612 21175
L37634 21197
L37657 21242
L37680 21333
L37680 21446
L37657 21536
L37634 21582
L37612 21604
L37567 21627
L37521 21627
L37476 21604
L37453 21582
L37431 21536
L37408 21446
L37408 21333
L37431 21242
L37453 21197
L37476 21175
L37521 21152
" />
<path d="M37861 21197
L37883 21175
L37928 21152
L38042 21152
L38087 21175
L38109 21197
L38132 21242
L38132 21288
L38109 21355
L37838 21627
L38132 21627
" />
<path d="M38539 21310
L38539 21627
" />
<path d="M38426 21129
L38313 21469
L38607 21469
" />
<path d="M38743 21152
L39059 21627
" />
<path d="M39059 21152
L38743 21627
" />
<path d="M39331 21152
L39376 21152
L39421 21175
L39444 21197
L39467 21242
L39489 21333
L39489 21446
L39467 21536
L39444 21582
L39421 21604
L39376 21627
L39331 21627
L39286 21604
L39263 21582
L39240 21536
L39218 21446
L39218 21333
L39240 21242
L39263 21197
L39286 21175
L39331 21152
" />
<path d="M39896 21310
L39896 21627
" />
<path d="M39783 21129
L39670 21469
L39964 21469
" />
<path d="M40349 21310
L40349 21627
" />
<path d="M40236 21129
L40122 21469
L40417 21469
" />
<g >
</g>
</g>
<g style="fill:#000000; fill-opacity:0.0; 
stroke:#000000; stroke-width:50; stroke-opacity:1; 
stroke-linecap:round; stroke-linejoin:round;">
</g>
<g style="fill:#C2C200; fill-opacity:0.0; 
stroke:#C2C200; stroke-width:50; stroke-opacity:1; 
stroke-linecap:round; stroke-linejoin:round;">
</g>
<g style="fill:#C2C200; fill-opacity:0.0; 
stroke:#C2C200; stroke-width:39.3701; stroke-opacity:1; 
stroke-linecap:round; stroke-linejoin:round;">
<path d="M61200 13300
L61200 72400
" />
<path d="M22600 13300
L61200 13300
" />
<path d="M22600 72400
L22600 13300
" />
<path d="M61200 72400
L22600 72400
" />
<g >
</g>
<g >
</g>
<g >
</g>
<g >
</g>
<g >
</g>
<g >
</g>
<g >
</g>
<g >
</g>
<g >
</g>
<g >
</g>
<g >
</g>
<g >
</g>
<g >
</g>
<g >
</g>
<g >
</g>
<g >
</g>
<g >
</g>
<g >
</g>
<g >
</g>
<g >
</g>
<g >
</g>
<g >
</g>
<g >
</g>
<g >
</g>
<g >
</g>
<g >
</g>
<g >
</g>
<g >
</g>
<g >
</g>
<g >
</g>
<g >
</g>
<g >
</g>
<g >
</g>
<g >
</g>
<g >
</g>
<g >
</g>
<g >
</g>
<g >
</g>
</g> 
</svg>
